<svg width="55" height="55" viewBox="0 0 55 55" fill="none" xmlns="http://www.w3.org/2000/svg">
<g filter="url(#filter0_d)">
<circle cx="27.5" cy="23.5" r="23.5" fill="#11A299"/>
<circle cx="27.5" cy="23.5" r="21.5" fill="#11A299" stroke="white" stroke-width="4" stroke-dasharray="10 10"/>
<circle cx="27.5" cy="23.5" r="18.3" fill="white" stroke="#11A299"/>
<path d="M23.948 25.642C23.948 26.0433 24.0227 26.3233 24.172 26.482C24.3213 26.6313 24.5827 26.706 24.956 26.706V27C23.948 26.9627 23.304 26.944 23.024 26.944C22.716 26.944 22.044 26.958 21.008 26.986L20.616 27V26.706C21.0547 26.706 21.3813 26.622 21.596 26.454C21.82 26.286 21.932 25.9873 21.932 25.558V22.142C21.932 21.694 21.89 21.3673 21.806 21.162C21.7313 20.9473 21.6007 20.8073 21.414 20.742C21.2273 20.6673 20.9427 20.63 20.56 20.63V20.322C21.372 20.3033 22.0393 20.2427 22.562 20.14C23.0847 20.028 23.5467 19.8507 23.948 19.608V25.642ZM29.9514 19.566C30.6887 19.566 31.3467 19.72 31.9254 20.028C32.504 20.336 32.952 20.77 33.2694 21.33C33.596 21.89 33.7594 22.534 33.7594 23.262C33.7594 24.0087 33.5914 24.6807 33.2554 25.278C32.9287 25.8753 32.462 26.3467 31.8554 26.692C31.258 27.028 30.572 27.196 29.7974 27.196C29.0694 27.196 28.416 27.042 27.8374 26.734C27.2587 26.426 26.806 25.992 26.4794 25.432C26.1527 24.872 25.9894 24.2233 25.9894 23.486C25.9894 22.7487 26.1527 22.0813 26.4794 21.484C26.8154 20.8867 27.282 20.42 27.8794 20.084C28.4767 19.7387 29.1674 19.566 29.9514 19.566ZM29.8254 19.818C29.4894 19.818 29.1907 19.9627 28.9294 20.252C28.668 20.5413 28.4627 20.9613 28.3134 21.512C28.1734 22.0533 28.1034 22.6973 28.1034 23.444C28.1034 24.6293 28.2714 25.5113 28.6074 26.09C28.9527 26.6593 29.3914 26.944 29.9234 26.944C30.2594 26.944 30.5534 26.7993 30.8054 26.51C31.0667 26.2113 31.272 25.7913 31.4214 25.25C31.5707 24.6993 31.6454 24.0507 31.6454 23.304C31.6454 22.1187 31.4727 21.2413 31.1274 20.672C30.7914 20.1027 30.3574 19.818 29.8254 19.818Z" fill="black"/>
</g>
<defs>
<filter id="filter0_d" x="0" y="0" width="55" height="55" filterUnits="userSpaceOnUse" color-interpolation-filters="sRGB">
<feFlood flood-opacity="0" result="BackgroundImageFix"/>
<feColorMatrix in="SourceAlpha" type="matrix" values="0 0 0 0 0 0 0 0 0 0 0 0 0 0 0 0 0 0 127 0" result="hardAlpha"/>
<feOffset dy="4"/>
<feGaussianBlur stdDeviation="2"/>
<feComposite in2="hardAlpha" operator="out"/>
<feColorMatrix type="matrix" values="0 0 0 0 0 0 0 0 0 0 0 0 0 0 0 0 0 0 0.25 0"/>
<feBlend mode="normal" in2="BackgroundImageFix" result="effect1_dropShadow"/>
<feBlend mode="normal" in="SourceGraphic" in2="effect1_dropShadow" result="shape"/>
</filter>
</defs>
</svg>
