<svg width="55" height="55" viewBox="0 0 55 55" fill="none" xmlns="http://www.w3.org/2000/svg">
<g filter="url(#filter0_d)">
<circle cx="27.5" cy="23.5" r="23.5" fill="#292929"/>
<circle cx="27.5" cy="23.5" r="21.5" fill="#292929" stroke="#FFCA0D" stroke-width="4" stroke-dasharray="10 10"/>
<circle cx="27.5" cy="23.5" r="18.3" fill="white" stroke="#292929"/>
<path d="M19.948 25.642C19.948 26.0433 20.0227 26.3233 20.172 26.482C20.3213 26.6313 20.5827 26.706 20.956 26.706V27C19.948 26.9627 19.304 26.944 19.024 26.944C18.716 26.944 18.044 26.958 17.008 26.986L16.616 27V26.706C17.0547 26.706 17.3813 26.622 17.596 26.454C17.82 26.286 17.932 25.9873 17.932 25.558V22.142C17.932 21.694 17.89 21.3673 17.806 21.162C17.7313 20.9473 17.6007 20.8073 17.414 20.742C17.2273 20.6673 16.9427 20.63 16.56 20.63V20.322C17.372 20.3033 18.0393 20.2427 18.562 20.14C19.0847 20.028 19.5467 19.8507 19.948 19.608V25.642ZM25.9514 19.566C26.6887 19.566 27.3467 19.72 27.9254 20.028C28.504 20.336 28.952 20.77 29.2694 21.33C29.596 21.89 29.7594 22.534 29.7594 23.262C29.7594 24.0087 29.5914 24.6807 29.2554 25.278C28.9287 25.8753 28.462 26.3467 27.8554 26.692C27.258 27.028 26.572 27.196 25.7974 27.196C25.0694 27.196 24.416 27.042 23.8374 26.734C23.2587 26.426 22.806 25.992 22.4794 25.432C22.1527 24.872 21.9894 24.2233 21.9894 23.486C21.9894 22.7487 22.1527 22.0813 22.4794 21.484C22.8154 20.8867 23.282 20.42 23.8794 20.084C24.4767 19.7387 25.1674 19.566 25.9514 19.566ZM25.8254 19.818C25.4894 19.818 25.1907 19.9627 24.9294 20.252C24.668 20.5413 24.4627 20.9613 24.3134 21.512C24.1734 22.0533 24.1034 22.6973 24.1034 23.444C24.1034 24.6293 24.2714 25.5113 24.6074 26.09C24.9527 26.6593 25.3914 26.944 25.9234 26.944C26.2594 26.944 26.5534 26.7993 26.8054 26.51C27.0667 26.2113 27.272 25.7913 27.4214 25.25C27.5707 24.6993 27.6454 24.0507 27.6454 23.304C27.6454 22.1187 27.4727 21.2413 27.1274 20.672C26.7914 20.1027 26.3574 19.818 25.8254 19.818ZM34.9748 19.566C35.7121 19.566 36.3701 19.72 36.9488 20.028C37.5275 20.336 37.9755 20.77 38.2928 21.33C38.6195 21.89 38.7828 22.534 38.7828 23.262C38.7828 24.0087 38.6148 24.6807 38.2788 25.278C37.9521 25.8753 37.4855 26.3467 36.8788 26.692C36.2815 27.028 35.5955 27.196 34.8208 27.196C34.0928 27.196 33.4395 27.042 32.8608 26.734C32.2821 26.426 31.8295 25.992 31.5028 25.432C31.1761 24.872 31.0128 24.2233 31.0128 23.486C31.0128 22.7487 31.1761 22.0813 31.5028 21.484C31.8388 20.8867 32.3055 20.42 32.9028 20.084C33.5001 19.7387 34.1908 19.566 34.9748 19.566ZM34.8488 19.818C34.5128 19.818 34.2141 19.9627 33.9528 20.252C33.6915 20.5413 33.4861 20.9613 33.3368 21.512C33.1968 22.0533 33.1268 22.6973 33.1268 23.444C33.1268 24.6293 33.2948 25.5113 33.6308 26.09C33.9761 26.6593 34.4148 26.944 34.9468 26.944C35.2828 26.944 35.5768 26.7993 35.8288 26.51C36.0901 26.2113 36.2955 25.7913 36.4448 25.25C36.5941 24.6993 36.6688 24.0507 36.6688 23.304C36.6688 22.1187 36.4961 21.2413 36.1508 20.672C35.8148 20.1027 35.3808 19.818 34.8488 19.818Z" fill="black"/>
</g>
<defs>
<filter id="filter0_d" x="0" y="0" width="55" height="55" filterUnits="userSpaceOnUse" color-interpolation-filters="sRGB">
<feFlood flood-opacity="0" result="BackgroundImageFix"/>
<feColorMatrix in="SourceAlpha" type="matrix" values="0 0 0 0 0 0 0 0 0 0 0 0 0 0 0 0 0 0 127 0" result="hardAlpha"/>
<feOffset dy="4"/>
<feGaussianBlur stdDeviation="2"/>
<feComposite in2="hardAlpha" operator="out"/>
<feColorMatrix type="matrix" values="0 0 0 0 0 0 0 0 0 0 0 0 0 0 0 0 0 0 0.25 0"/>
<feBlend mode="normal" in2="BackgroundImageFix" result="effect1_dropShadow"/>
<feBlend mode="normal" in="SourceGraphic" in2="effect1_dropShadow" result="shape"/>
</filter>
</defs>
</svg>
