<svg width="55" height="55" viewBox="0 0 55 55" fill="none" xmlns="http://www.w3.org/2000/svg">
<g filter="url(#filter0_d)">
<circle cx="27.5" cy="23.5" r="23.5" fill="#A23411"/>
<circle cx="27.5" cy="23.5" r="21.5" fill="#A23411" stroke="white" stroke-width="4" stroke-dasharray="10 10"/>
<circle cx="27.5" cy="23.5" r="18.3" fill="white" stroke="#A23411"/>
<path d="M22.85 19.566C23.5687 19.566 24.138 19.7247 24.558 20.042C24.978 20.35 25.188 20.784 25.188 21.344C25.188 21.7267 25.076 22.0813 24.852 22.408C24.6373 22.7347 24.3807 23.024 24.082 23.276C23.7833 23.528 23.3727 23.8407 22.85 24.214C22.178 24.6807 21.7067 25.054 21.436 25.334H24.46C24.712 25.334 24.8987 25.3153 25.02 25.278C25.1507 25.2407 25.2393 25.18 25.286 25.096C25.3327 25.012 25.37 24.8813 25.398 24.704H25.692C25.692 25.8053 25.7107 26.594 25.748 27.07C25.5427 27.0233 24.8473 27 23.662 27H19.588V26.734C19.7093 26.6033 19.9473 26.3793 20.302 26.062C20.8433 25.5673 21.2913 25.1287 21.646 24.746C22.01 24.354 22.3227 23.906 22.584 23.402C22.8547 22.8887 22.99 22.3567 22.99 21.806C22.99 21.3113 22.878 20.952 22.654 20.728C22.4393 20.4947 22.1173 20.378 21.688 20.378C21.296 20.378 20.946 20.4713 20.638 20.658C20.3393 20.8353 20.064 21.1013 19.812 21.456L19.574 21.316C20.2647 20.1493 21.3567 19.566 22.85 19.566ZM30.9201 19.566C31.6575 19.566 32.3155 19.72 32.8941 20.028C33.4728 20.336 33.9208 20.77 34.2381 21.33C34.5648 21.89 34.7281 22.534 34.7281 23.262C34.7281 24.0087 34.5601 24.6807 34.2241 25.278C33.8975 25.8753 33.4308 26.3467 32.8241 26.692C32.2268 27.028 31.5408 27.196 30.7661 27.196C30.0381 27.196 29.3848 27.042 28.8061 26.734C28.2275 26.426 27.7748 25.992 27.4481 25.432C27.1215 24.872 26.9581 24.2233 26.9581 23.486C26.9581 22.7487 27.1215 22.0813 27.4481 21.484C27.7841 20.8867 28.2508 20.42 28.8481 20.084C29.4455 19.7387 30.1361 19.566 30.9201 19.566ZM30.7941 19.818C30.4581 19.818 30.1595 19.9627 29.8981 20.252C29.6368 20.5413 29.4315 20.9613 29.2821 21.512C29.1421 22.0533 29.0721 22.6973 29.0721 23.444C29.0721 24.6293 29.2401 25.5113 29.5761 26.09C29.9215 26.6593 30.3601 26.944 30.8921 26.944C31.2281 26.944 31.5221 26.7993 31.7741 26.51C32.0355 26.2113 32.2408 25.7913 32.3901 25.25C32.5395 24.6993 32.6141 24.0507 32.6141 23.304C32.6141 22.1187 32.4415 21.2413 32.0961 20.672C31.7601 20.1027 31.3261 19.818 30.7941 19.818Z" fill="black"/>
</g>
<defs>
<filter id="filter0_d" x="0" y="0" width="55" height="55" filterUnits="userSpaceOnUse" color-interpolation-filters="sRGB">
<feFlood flood-opacity="0" result="BackgroundImageFix"/>
<feColorMatrix in="SourceAlpha" type="matrix" values="0 0 0 0 0 0 0 0 0 0 0 0 0 0 0 0 0 0 127 0" result="hardAlpha"/>
<feOffset dy="4"/>
<feGaussianBlur stdDeviation="2"/>
<feComposite in2="hardAlpha" operator="out"/>
<feColorMatrix type="matrix" values="0 0 0 0 0 0 0 0 0 0 0 0 0 0 0 0 0 0 0.25 0"/>
<feBlend mode="normal" in2="BackgroundImageFix" result="effect1_dropShadow"/>
<feBlend mode="normal" in="SourceGraphic" in2="effect1_dropShadow" result="shape"/>
</filter>
</defs>
</svg>
