<svg width="55" height="55" viewBox="0 0 55 55" fill="none" xmlns="http://www.w3.org/2000/svg">
<g filter="url(#filter0_d)">
<circle cx="27.5" cy="23.5" r="23.5" fill="#0C5BB8"/>
<circle cx="27.5" cy="23.5" r="21.5" fill="#0C5BB8" stroke="white" stroke-width="4" stroke-dasharray="10 10"/>
<circle cx="27.5" cy="23.5" r="18.3" fill="white" stroke="#0C5BB8"/>
<path d="M25.39 19.23C25.39 20.322 25.4087 21.106 25.446 21.582C25.25 21.5353 24.6013 21.512 23.5 21.512H21.344L21.12 23.906C21.6613 23.5327 22.366 23.346 23.234 23.346C24.13 23.346 24.8067 23.5513 25.264 23.962C25.7307 24.3727 25.964 24.9047 25.964 25.558C25.964 26.2487 25.6933 26.86 25.152 27.392C24.6107 27.9333 23.9107 28.3487 23.052 28.638C22.2027 28.9273 21.3253 29.072 20.42 29.072V28.82C21.008 28.8107 21.568 28.68 22.1 28.428C22.632 28.1853 23.0613 27.8213 23.388 27.336C23.7147 26.86 23.878 26.2953 23.878 25.642C23.878 25.054 23.738 24.606 23.458 24.298C23.1873 23.9807 22.7907 23.822 22.268 23.822C22.016 23.822 21.792 23.8547 21.596 23.92C21.4 23.9853 21.204 24.088 21.008 24.228L20.812 24.102L21.26 19.72C21.4467 19.7573 21.6987 19.776 22.016 19.776H24.326C24.5967 19.776 24.7833 19.7387 24.886 19.664C24.998 19.58 25.068 19.4353 25.096 19.23H25.39ZM31.0178 19.566C31.7551 19.566 32.4131 19.72 32.9918 20.028C33.5704 20.336 34.0184 20.77 34.3358 21.33C34.6624 21.89 34.8258 22.534 34.8258 23.262C34.8258 24.0087 34.6578 24.6807 34.3218 25.278C33.9951 25.8753 33.5284 26.3467 32.9218 26.692C32.3244 27.028 31.6384 27.196 30.8638 27.196C30.1358 27.196 29.4824 27.042 28.9038 26.734C28.3251 26.426 27.8724 25.992 27.5458 25.432C27.2191 24.872 27.0558 24.2233 27.0558 23.486C27.0558 22.7487 27.2191 22.0813 27.5458 21.484C27.8818 20.8867 28.3484 20.42 28.9458 20.084C29.5431 19.7387 30.2338 19.566 31.0178 19.566ZM30.8918 19.818C30.5558 19.818 30.2571 19.9627 29.9958 20.252C29.7344 20.5413 29.5291 20.9613 29.3798 21.512C29.2398 22.0533 29.1698 22.6973 29.1698 23.444C29.1698 24.6293 29.3378 25.5113 29.6738 26.09C30.0191 26.6593 30.4578 26.944 30.9898 26.944C31.3258 26.944 31.6198 26.7993 31.8718 26.51C32.1331 26.2113 32.3384 25.7913 32.4878 25.25C32.6371 24.6993 32.7118 24.0507 32.7118 23.304C32.7118 22.1187 32.5391 21.2413 32.1938 20.672C31.8578 20.1027 31.4238 19.818 30.8918 19.818Z" fill="black"/>
</g>
<defs>
<filter id="filter0_d" x="0" y="0" width="55" height="55" filterUnits="userSpaceOnUse" color-interpolation-filters="sRGB">
<feFlood flood-opacity="0" result="BackgroundImageFix"/>
<feColorMatrix in="SourceAlpha" type="matrix" values="0 0 0 0 0 0 0 0 0 0 0 0 0 0 0 0 0 0 127 0" result="hardAlpha"/>
<feOffset dy="4"/>
<feGaussianBlur stdDeviation="2"/>
<feComposite in2="hardAlpha" operator="out"/>
<feColorMatrix type="matrix" values="0 0 0 0 0 0 0 0 0 0 0 0 0 0 0 0 0 0 0.25 0"/>
<feBlend mode="normal" in2="BackgroundImageFix" result="effect1_dropShadow"/>
<feBlend mode="normal" in="SourceGraphic" in2="effect1_dropShadow" result="shape"/>
</filter>
</defs>
</svg>
