<svg width="69" height="94" viewBox="0 0 69 94" fill="none" xmlns="http://www.w3.org/2000/svg">
<g filter="url(#filter0_d)">
<rect x="4.5" y="2.5" width="61" height="85.36" rx="2.5" fill="#A23411" stroke="white" stroke-width="5"/>
<rect x="5.92856" y="3.9287" width="58.1429" height="82.5026" fill="#B8350C"/>
<path fill-rule="evenodd" clip-rule="evenodd" d="M37.0482 73.7064C36.665 73.8396 36.2993 73.9909 35.95 74.1605C35.5997 74.3301 35.2832 74.5188 35.0007 74.7256C34.7183 74.5188 34.4018 74.3301 34.0515 74.1605C33.7011 73.9909 33.3354 73.8396 32.9533 73.7064C33.5916 73.2472 34.2726 72.8633 35.0007 72.5531C35.7278 72.8633 36.4099 73.2472 37.0482 73.7064ZM36.5325 78.4435C36.5347 78.6246 36.5106 78.8248 36.4581 79.0449C36.4055 79.2658 36.3256 79.466 36.2161 79.648C36.1088 79.8292 35.9522 79.9855 35.7497 80.1154C35.5471 80.2453 35.2964 80.3107 35.0007 80.3107C34.704 80.3107 34.4544 80.2453 34.2518 80.1154C34.0493 79.9855 33.8938 79.8292 33.7843 79.648C33.6759 79.466 33.5949 79.2658 33.5434 79.0449C33.4909 78.8248 33.4657 78.6246 33.4679 78.4435C33.4854 77.176 34.0077 76.1212 35.0007 75.2683C35.9938 76.1477 36.5161 77.2017 36.5325 78.4435ZM58.5348 73.4813C58.444 73.047 58.1834 72.6987 57.7553 72.4348C57.3282 72.1709 56.875 72.0658 56.391 72.1188C56.2519 72.1345 56.0899 72.1585 55.9016 72.1916C55.8446 72.2023 55.7976 72.2131 55.7592 72.2247C55.5052 72.2735 55.318 72.4456 55.318 72.6524C55.318 72.8964 55.5797 73.0933 55.9027 73.0933C56.2257 73.0933 56.4863 72.8964 56.4863 72.6524C56.4863 72.5068 56.3932 72.3786 56.2498 72.2975C56.8509 72.2644 57.2932 72.3678 57.5779 72.6127C57.902 72.889 58.0991 73.1926 58.167 73.5252C58.2732 74.0356 58.1002 74.508 57.6425 74.939C57.1837 75.3701 56.3439 75.6538 55.1297 75.7763C53.6285 75.9268 52.2763 75.7713 51.0982 75.3204C49.9201 74.8687 48.731 74.3508 47.5353 73.7651C46.3408 73.1794 45.0663 72.6474 43.7119 72.1643C42.3564 71.6811 40.749 71.4685 38.8614 71.5066C38.211 71.519 37.5607 71.6001 36.9092 71.749C36.2577 71.8971 35.6227 72.0873 35.0007 72.3206C34.3788 72.0882 33.7427 71.8971 33.0912 71.749C32.4408 71.6001 31.7905 71.519 31.139 71.5066C29.8689 71.4809 28.7313 71.5752 27.7174 71.7961C26.7013 72.017 25.7695 72.2975 24.9199 72.6425C24.0691 72.9874 23.2512 73.3614 22.4651 73.7651C21.6789 74.1696 20.8971 74.537 20.1209 74.8687C19.3435 75.2005 18.5245 75.4602 17.665 75.6464C16.8065 75.8325 15.8726 75.8764 14.8718 75.7763C13.6565 75.6538 12.8178 75.3709 12.359 74.939C11.9013 74.508 11.7283 74.0356 11.8345 73.5252C11.9024 73.1926 12.0995 72.889 12.4225 72.6127C12.7028 72.3728 13.1331 72.2685 13.7156 72.2958C13.57 72.3761 13.4758 72.506 13.4758 72.6524C13.4758 72.8964 13.7375 73.0933 14.0594 73.0933C14.3824 73.0933 14.6441 72.8964 14.6441 72.6524C14.6441 72.482 14.516 72.3339 14.3288 72.2602C14.2871 72.2346 14.2116 72.2114 14.0999 72.1916C13.9116 72.1585 13.7484 72.1345 13.6105 72.1188C13.1254 72.0658 12.6721 72.1709 12.2451 72.4348C11.8181 72.6987 11.5575 73.047 11.4655 73.4813C11.3418 74.0679 11.528 74.6023 12.0316 75.0788C12.5353 75.5545 13.4703 75.8697 14.8313 76.0071C16.4419 76.1684 17.9047 76.022 19.1902 75.5769C20.4767 75.1326 21.7282 74.6164 22.9403 74.0282C24.1523 73.4408 25.3918 72.9031 26.6608 72.4141C27.9298 71.9244 29.3948 71.7035 31.0788 71.7382C32.3861 71.7647 33.6003 71.9955 34.7412 72.4365C33.9792 72.7723 33.296 73.1678 32.6916 73.6261C32.2394 73.4913 31.762 73.387 31.2583 73.3126C30.7547 73.2389 30.2433 73.1943 29.72 73.1802C28.8134 73.1562 28.0163 73.2257 27.3232 73.3928C26.6279 73.5599 26.0498 73.7858 25.5845 74.0745C25.1191 74.3632 24.7534 74.6942 24.4863 75.0689C24.2202 75.4445 24.0691 75.8118 24.0341 76.1725C23.9925 76.611 24.1271 76.9949 24.4414 77.3225C24.7567 77.6492 24.9538 77.8147 25.0261 77.818C25.0983 77.8213 25.1356 77.8097 25.1378 77.7849C25.1421 77.7328 25.002 77.564 24.7184 77.2778C24.4348 76.9915 24.3155 76.6284 24.356 76.1899C24.4282 75.4156 24.9626 74.7719 25.9403 74.2466C26.9192 73.7221 28.2013 73.4896 29.8087 73.5326C30.8215 73.5591 31.6744 73.6774 32.3708 73.8933C31.6908 74.4534 31.1138 75.0888 30.6397 75.8027C30.1678 76.5167 29.8152 77.3489 29.5886 78.3003C29.6225 78.3524 29.6773 78.3541 29.7517 78.3045C30.0879 77.3299 30.5094 76.4927 31.0153 75.792C31.5222 75.0904 32.0773 74.4848 32.685 73.9752C33.0682 74.1084 33.4252 74.2606 33.7591 74.4302C34.092 74.6007 34.3996 74.7893 34.6821 74.9969C33.619 75.8474 33.0562 77.004 33.0299 78.4782C33.0266 78.7115 33.0496 78.963 33.1 79.236C33.1503 79.5074 33.2478 79.7729 33.3923 80.0327C33.5368 80.2925 33.7383 80.5076 33.9967 80.6771C34.2562 80.8459 34.5901 80.9311 35.0007 80.9311C35.4102 80.9311 35.7453 80.8459 36.0037 80.6771C36.2632 80.5076 36.4646 80.2925 36.6092 80.0327C36.7526 79.7729 36.8501 79.5074 36.9004 79.236C36.9519 78.963 36.9749 78.7115 36.9716 78.4782C36.9453 77.004 36.3825 75.8474 35.3194 74.9969C35.6019 74.7893 35.9095 74.6007 36.2424 74.4302C36.5741 74.2606 36.9333 74.1084 37.3165 73.9752C37.9242 74.4848 38.4804 75.0896 38.9862 75.792C39.491 76.4927 39.9136 77.3299 40.2487 78.3045C40.2881 78.3549 40.3428 78.3541 40.4129 78.3003C40.1863 77.3489 39.8337 76.5167 39.3607 75.8027C38.8877 75.0888 38.3096 74.4534 37.6296 73.8933C38.3271 73.6774 39.1789 73.5591 40.1928 73.5326C41.8002 73.4896 43.0823 73.7221 44.0601 74.2466C45.0378 74.7719 45.5732 75.4156 45.6455 76.1899C45.686 76.6284 45.5656 76.9915 45.2831 77.2778C44.9995 77.564 44.8583 77.7328 44.8637 77.7849C44.8659 77.8097 44.9032 77.8213 44.9754 77.818C45.0477 77.8147 45.2437 77.6492 45.559 77.3225C45.8743 76.9949 46.009 76.611 45.9674 76.1725C45.9324 75.8118 45.7813 75.4445 45.5141 75.0689C45.2481 74.6942 44.8813 74.3632 44.4159 74.0745C43.9528 73.7858 43.3714 73.5599 42.6783 73.3928C41.9841 73.2257 41.187 73.1562 40.2804 73.1802C39.7581 73.1943 39.2457 73.2389 38.7421 73.3126C38.2384 73.387 37.761 73.4913 37.3088 73.6261C36.7055 73.1678 36.0223 72.7723 35.2602 72.4365C36.4011 71.9955 37.6154 71.7639 38.9216 71.7382C40.6067 71.7035 42.0706 71.9244 43.3407 72.4141C44.6097 72.9031 45.8492 73.4408 47.0612 74.0282C48.2733 74.6164 49.5248 75.1326 50.8102 75.5769C52.0957 76.022 53.5585 76.1684 55.1702 76.0071C56.5301 75.8697 57.4651 75.5545 57.9688 75.0788C58.4724 74.6023 58.6575 74.0679 58.5348 73.4813Z" fill="#FFCA0D"/>
<path fill-rule="evenodd" clip-rule="evenodd" d="M32.9518 55.9406C33.335 55.8074 33.7007 55.656 34.05 55.4864C34.4003 55.3168 34.7168 55.1282 34.9993 54.9214C35.2817 55.1282 35.5982 55.3168 35.9485 55.4864C36.2989 55.656 36.6646 55.8074 37.0467 55.9406C36.4084 56.3997 35.7274 56.7836 34.9993 57.0938C34.2722 56.7836 33.5901 56.3997 32.9518 55.9406ZM33.4675 51.2035C33.4653 51.0223 33.4894 50.8221 33.5419 50.6021C33.5945 50.3812 33.6744 50.181 33.7839 49.999C33.8912 49.8178 34.0478 49.6614 34.2503 49.5315C34.4529 49.4017 34.7036 49.3363 34.9993 49.3363C35.296 49.3363 35.5456 49.4017 35.7482 49.5315C35.9507 49.6614 36.1062 49.8178 36.2157 49.999C36.3241 50.181 36.4051 50.3812 36.4566 50.6021C36.5091 50.8221 36.5343 51.0223 36.5321 51.2035C36.5146 52.4709 35.9923 53.5257 34.9993 54.3787C34.0062 53.4992 33.4839 52.4453 33.4675 51.2035ZM11.4652 56.1656C11.556 56.6 11.8166 56.9482 12.2447 57.2121C12.6718 57.4761 13.125 57.5811 13.609 57.5282C13.7481 57.5125 13.9101 57.4885 14.0984 57.4554C14.1554 57.4446 14.2024 57.4339 14.2408 57.4223C14.4948 57.3735 14.682 57.2014 14.682 56.9946C14.682 56.7505 14.4203 56.5536 14.0973 56.5536C13.7743 56.5536 13.5137 56.7505 13.5137 56.9946C13.5137 57.1402 13.6068 57.2684 13.7502 57.3495C13.1491 57.3826 12.7068 57.2792 12.4221 57.0343C12.098 56.758 11.9009 56.4543 11.833 56.1218C11.7268 55.6113 11.8998 55.1389 12.3575 54.7079C12.8163 54.2769 13.6561 53.9931 14.8703 53.8707C16.3715 53.7201 17.7237 53.8757 18.9018 54.3265C20.0799 54.7782 21.269 55.2961 22.4647 55.8819C23.6592 56.4676 24.9337 56.9995 26.2881 57.4827C27.6436 57.9658 29.251 58.1784 31.1386 58.1404C31.789 58.128 32.4393 58.0469 33.0908 57.898C33.7423 57.7499 34.3773 57.5596 34.9993 57.3263C35.6212 57.5588 36.2573 57.7499 36.9088 57.898C37.5592 58.0469 38.2095 58.128 38.861 58.1404C40.1311 58.166 41.2687 58.0717 42.2826 57.8508C43.2987 57.6299 44.2305 57.3495 45.0801 57.0045C45.9309 56.6595 46.7488 56.2856 47.5349 55.8819C48.3211 55.4773 49.1029 55.11 49.8791 54.7782C50.6565 54.4465 51.4755 54.1867 52.335 54.0006C53.1935 53.8144 54.1274 53.7706 55.1282 53.8707C56.3435 53.9931 57.1822 54.2761 57.641 54.7079C58.0987 55.1389 58.2717 55.6113 58.1655 56.1218C58.0976 56.4543 57.9005 56.758 57.5775 57.0343C57.2972 57.2742 56.8669 57.3784 56.2844 57.3511C56.43 57.2709 56.5242 57.141 56.5242 56.9946C56.5242 56.7505 56.2625 56.5536 55.9406 56.5536C55.6176 56.5536 55.3559 56.7505 55.3559 56.9946C55.3559 57.165 55.484 57.3131 55.6712 57.3867C55.7129 57.4124 55.7884 57.4355 55.9001 57.4554C56.0884 57.4885 56.2516 57.5125 56.3895 57.5282C56.8746 57.5811 57.3279 57.4761 57.7549 57.2121C58.1819 56.9482 58.4425 56.5999 58.5345 56.1656C58.6582 55.5791 58.472 55.0446 57.9684 54.5681C57.4647 54.0924 56.5297 53.7772 55.1687 53.6399C53.5581 53.4786 52.0953 53.625 50.8098 54.0701C49.5233 54.5143 48.2718 55.0306 47.0597 55.6188C45.8477 56.2062 44.6082 56.7439 43.3392 57.2328C42.0702 57.7226 40.6052 57.9435 38.9212 57.9087C37.6139 57.8823 36.3997 57.6514 35.2588 57.2105C36.0208 56.8746 36.704 56.4792 37.3084 56.0208C37.7606 56.1557 38.238 56.2599 38.7417 56.3344C39.2453 56.408 39.7567 56.4527 40.28 56.4668C41.1866 56.4907 41.9837 56.4213 42.6768 56.2541C43.3721 56.087 43.9502 55.8612 44.4155 55.5724C44.8809 55.2837 45.2466 54.9528 45.5137 54.578C45.7798 54.2024 45.9309 53.8351 45.9659 53.4744C46.0075 53.036 45.8729 52.6521 45.5586 52.3245C45.2433 51.9977 45.0462 51.8322 44.9739 51.8289C44.9017 51.8256 44.8644 51.8372 44.8622 51.862C44.8579 51.9141 44.998 52.0829 45.2816 52.3692C45.5652 52.6554 45.6845 53.0186 45.644 53.4571C45.5718 54.2314 45.0374 54.875 44.0597 55.4004C43.0808 55.9249 41.7987 56.1573 40.1913 56.1143C39.1785 56.0879 38.3256 55.9695 37.6292 55.7536C38.3092 55.1935 38.8862 54.5582 39.3603 53.8442C39.8322 53.1303 40.1848 52.298 40.4114 51.3466C40.3775 51.2945 40.3227 51.2928 40.2483 51.3425C39.9121 52.317 39.4906 53.1543 38.9847 53.855C38.4778 54.5565 37.9227 55.1621 37.315 55.6717C36.9318 55.5385 36.5748 55.3863 36.2409 55.2167C35.908 55.0463 35.6004 54.8577 35.3179 54.65C36.381 53.7996 36.9438 52.643 36.9701 51.1688C36.9734 50.9355 36.9504 50.684 36.9 50.411C36.8497 50.1396 36.7522 49.874 36.6077 49.6143C36.4632 49.3545 36.2617 49.1394 36.0033 48.9698C35.7438 48.801 35.4098 48.7158 34.9993 48.7158C34.5898 48.7158 34.2547 48.801 33.9963 48.9698C33.7368 49.1394 33.5354 49.3545 33.3908 49.6143C33.2474 49.874 33.1499 50.1396 33.0996 50.411C33.0481 50.684 33.0251 50.9355 33.0284 51.1688C33.0547 52.643 33.6175 53.7996 34.6806 54.65C34.3981 54.8577 34.0905 55.0463 33.7576 55.2167C33.4259 55.3863 33.0667 55.5385 32.6835 55.6717C32.0758 55.1621 31.5196 54.5574 31.0138 53.855C30.509 53.1543 30.0864 52.317 29.7513 51.3425C29.7119 51.292 29.6572 51.2928 29.5871 51.3466C29.8137 52.298 30.1663 53.1303 30.6393 53.8442C31.1123 54.5582 31.6904 55.1935 32.3704 55.7536C31.6729 55.9695 30.8211 56.0879 29.8072 56.1143C28.1998 56.1573 26.9177 55.9249 25.9399 55.4004C24.9622 54.875 24.4268 54.2314 24.3545 53.4571C24.314 53.0186 24.4344 52.6554 24.7169 52.3692C25.0005 52.0829 25.1417 51.9141 25.1363 51.862C25.1341 51.8372 25.0968 51.8256 25.0246 51.8289C24.9523 51.8322 24.7563 51.9977 24.441 52.3245C24.1257 52.6521 23.991 53.036 24.0326 53.4744C24.0676 53.8351 24.2187 54.2024 24.4859 54.578C24.7519 54.9528 25.1187 55.2837 25.5841 55.5724C26.0472 55.8612 26.6286 56.087 27.3217 56.2541C28.0159 56.4213 28.813 56.4907 29.7196 56.4668C30.2419 56.4527 30.7543 56.408 31.2579 56.3344C31.7616 56.2599 32.239 56.1557 32.6912 56.0208C33.2945 56.4792 33.9777 56.8746 34.7398 57.2105C33.5989 57.6514 32.3846 57.8831 31.0784 57.9087C29.3933 57.9435 27.9294 57.7226 26.6593 57.2328C25.3903 56.7439 24.1508 56.2062 22.9388 55.6188C21.7267 55.0306 20.4752 54.5143 19.1898 54.0701C17.9043 53.625 16.4415 53.4786 14.8298 53.6399C13.4699 53.7772 12.5349 54.0924 12.0312 54.5681C11.5276 55.0446 11.3425 55.5791 11.4652 56.1656Z" fill="#FFCA0D"/>
<path fill-rule="evenodd" clip-rule="evenodd" d="M37.0482 34.4194C36.665 34.5526 36.2993 34.704 35.95 34.8736C35.5997 35.0432 35.2832 35.2318 35.0007 35.4386C34.7183 35.2318 34.4018 35.0432 34.0515 34.8736C33.7011 34.704 33.3354 34.5526 32.9533 34.4194C33.5916 33.9603 34.2726 33.5764 35.0007 33.2662C35.7278 33.5764 36.4099 33.9603 37.0482 34.4194ZM36.5325 39.1565C36.5347 39.3377 36.5106 39.5379 36.4581 39.7579C36.4055 39.9788 36.3256 40.179 36.2161 40.361C36.1088 40.5422 35.9522 40.6986 35.7497 40.8285C35.5471 40.9583 35.2964 41.0237 35.0007 41.0237C34.704 41.0237 34.4544 40.9583 34.2518 40.8285C34.0493 40.6986 33.8938 40.5422 33.7843 40.361C33.6759 40.179 33.5949 39.9788 33.5434 39.7579C33.4909 39.5379 33.4657 39.3377 33.4679 39.1565C33.4854 37.8891 34.0077 36.8343 35.0007 35.9813C35.9938 36.8608 36.5161 37.9147 36.5325 39.1565ZM58.5348 34.1944C58.444 33.76 58.1834 33.4118 57.7553 33.1479C57.3282 32.8839 56.875 32.7789 56.391 32.8318C56.2519 32.8475 56.0899 32.8715 55.9016 32.9046C55.8446 32.9154 55.7976 32.9261 55.7592 32.9377C55.5052 32.9865 55.318 33.1586 55.318 33.3654C55.318 33.6095 55.5797 33.8064 55.9027 33.8064C56.2257 33.8064 56.4863 33.6095 56.4863 33.3654C56.4863 33.2198 56.3932 33.0916 56.2498 33.0105C56.8509 32.9774 57.2932 33.0808 57.5779 33.3257C57.902 33.602 58.0991 33.9057 58.167 34.2382C58.2732 34.7487 58.1002 35.2211 57.6425 35.6521C57.1837 36.0831 56.3439 36.3669 55.1297 36.4893C53.6285 36.6399 52.2763 36.4843 51.0982 36.0335C49.9201 35.5818 48.731 35.0639 47.5353 34.4781C46.3408 33.8924 45.0663 33.3605 43.7119 32.8773C42.3564 32.3942 40.749 32.1816 38.8614 32.2196C38.211 32.232 37.5607 32.3131 36.9092 32.462C36.2577 32.6101 35.6227 32.8004 35.0007 33.0337C34.3788 32.8012 33.7427 32.6101 33.0912 32.462C32.4408 32.3131 31.7905 32.232 31.139 32.2196C29.8689 32.194 28.7313 32.2883 27.7174 32.5092C26.7013 32.7301 25.7695 33.0105 24.9199 33.3555C24.0691 33.7005 23.2512 34.0744 22.4651 34.4781C21.6789 34.8827 20.8971 35.25 20.1209 35.5818C19.3435 35.9135 18.5245 36.1733 17.665 36.3594C16.8065 36.5456 15.8726 36.5894 14.8718 36.4893C13.6565 36.3669 12.8178 36.0839 12.359 35.6521C11.9013 35.2211 11.7283 34.7487 11.8345 34.2382C11.9024 33.9057 12.0995 33.602 12.4225 33.3257C12.7028 33.0858 13.1331 32.9816 13.7156 33.0089C13.57 33.0891 13.4758 33.219 13.4758 33.3654C13.4758 33.6095 13.7375 33.8064 14.0594 33.8064C14.3824 33.8064 14.6441 33.6095 14.6441 33.3654C14.6441 33.195 14.516 33.0469 14.3288 32.9733C14.2871 32.9476 14.2116 32.9245 14.0999 32.9046C13.9116 32.8715 13.7484 32.8475 13.6105 32.8318C13.1254 32.7789 12.6721 32.8839 12.2451 33.1479C11.8181 33.4118 11.5575 33.76 11.4655 34.1944C11.3418 34.7809 11.528 35.3154 12.0316 35.7919C12.5353 36.2676 13.4703 36.5828 14.8313 36.7201C16.4419 36.8814 17.9047 36.735 19.1902 36.2899C20.4767 35.8457 21.7282 35.3294 22.9403 34.7412C24.1523 34.1538 25.3918 33.6161 26.6608 33.1272C27.9298 32.6374 29.3948 32.4165 31.0788 32.4513C32.3861 32.4777 33.6003 32.7086 34.7412 33.1495C33.9792 33.4854 33.296 33.8808 32.6916 34.3392C32.2394 34.2043 31.762 34.1001 31.2583 34.0256C30.7547 33.952 30.2433 33.9073 29.72 33.8932C28.8134 33.8693 28.0163 33.9387 27.3232 34.1059C26.6279 34.273 26.0498 34.4988 25.5845 34.7875C25.1191 35.0763 24.7534 35.4072 24.4863 35.782C24.2202 36.1575 24.0691 36.5249 24.0341 36.8856C23.9925 37.324 24.1271 37.7079 24.4414 38.0355C24.7567 38.3623 24.9538 38.5277 25.0261 38.5311C25.0983 38.5344 25.1356 38.5228 25.1378 38.498C25.1421 38.4458 25.002 38.2771 24.7184 37.9908C24.4348 37.7046 24.3155 37.3414 24.356 36.9029C24.4282 36.1286 24.9626 35.485 25.9403 34.9596C26.9192 34.4351 28.2013 34.2027 29.8087 34.2457C30.8215 34.2721 31.6744 34.3904 32.3708 34.6064C31.6908 35.1665 31.1138 35.8018 30.6397 36.5158C30.1678 37.2297 29.8152 38.062 29.5886 39.0134C29.6225 39.0655 29.6773 39.0671 29.7517 39.0175C30.0879 38.043 30.5094 37.2057 31.0153 36.505C31.5222 35.8035 32.0773 35.1979 32.685 34.6883C33.0682 34.8215 33.4252 34.9737 33.7591 35.1433C34.092 35.3137 34.3996 35.5023 34.6821 35.71C33.619 36.5604 33.0562 37.717 33.0299 39.1912C33.0266 39.4245 33.0496 39.676 33.1 39.949C33.1503 40.2204 33.2478 40.486 33.3923 40.7457C33.5368 41.0055 33.7383 41.2206 33.9967 41.3902C34.2562 41.559 34.5901 41.6442 35.0007 41.6442C35.4102 41.6442 35.7453 41.559 36.0037 41.3902C36.2632 41.2206 36.4646 41.0055 36.6092 40.7457C36.7526 40.486 36.8501 40.2204 36.9004 39.949C36.9519 39.676 36.9749 39.4245 36.9716 39.1912C36.9453 37.717 36.3825 36.5604 35.3194 35.71C35.6019 35.5023 35.9095 35.3137 36.2424 35.1433C36.5741 34.9737 36.9333 34.8215 37.3165 34.6883C37.9242 35.1979 38.4804 35.8026 38.9862 36.505C39.491 37.2057 39.9136 38.043 40.2487 39.0175C40.2881 39.068 40.3428 39.0671 40.4129 39.0134C40.1863 38.062 39.8337 37.2297 39.3607 36.5158C38.8877 35.8018 38.3096 35.1665 37.6296 34.6064C38.3271 34.3904 39.1789 34.2721 40.1928 34.2457C41.8002 34.2027 43.0823 34.4351 44.0601 34.9596C45.0378 35.485 45.5732 36.1286 45.6455 36.9029C45.686 37.3414 45.5656 37.7046 45.2831 37.9908C44.9995 38.2771 44.8583 38.4458 44.8637 38.498C44.8659 38.5228 44.9032 38.5344 44.9754 38.5311C45.0477 38.5277 45.2437 38.3623 45.559 38.0355C45.8743 37.7079 46.009 37.324 45.9674 36.8856C45.9324 36.5249 45.7813 36.1575 45.5141 35.782C45.2481 35.4072 44.8813 35.0763 44.4159 34.7875C43.9528 34.4988 43.3714 34.273 42.6783 34.1059C41.9841 33.9387 41.187 33.8693 40.2804 33.8932C39.7581 33.9073 39.2457 33.952 38.7421 34.0256C38.2384 34.1001 37.761 34.2043 37.3088 34.3392C36.7055 33.8808 36.0223 33.4854 35.2602 33.1495C36.4011 32.7086 37.6154 32.4769 38.9216 32.4513C40.6067 32.4165 42.0706 32.6374 43.3407 33.1272C44.6097 33.6161 45.8492 34.1538 47.0612 34.7412C48.2733 35.3294 49.5248 35.8457 50.8102 36.2899C52.0957 36.735 53.5585 36.8814 55.1702 36.7201C56.5301 36.5828 57.4651 36.2676 57.9688 35.7919C58.4724 35.3154 58.6575 34.7809 58.5348 34.1944Z" fill="#FFCA0D"/>
<path fill-rule="evenodd" clip-rule="evenodd" d="M32.9518 16.6536C33.335 16.5204 33.7007 16.3691 34.05 16.1995C34.4003 16.0299 34.7168 15.8412 34.9993 15.6344C35.2817 15.8412 35.5982 16.0299 35.9485 16.1995C36.2989 16.3691 36.6646 16.5204 37.0467 16.6536C36.4084 17.1128 35.7274 17.4967 34.9993 17.8069C34.2722 17.4967 33.5901 17.1128 32.9518 16.6536ZM33.4675 11.9165C33.4653 11.7354 33.4894 11.5352 33.5419 11.3151C33.5945 11.0942 33.6744 10.894 33.7839 10.712C33.8912 10.5308 34.0478 10.3745 34.2503 10.2446C34.4529 10.1147 34.7036 10.0493 34.9993 10.0493C35.296 10.0493 35.5456 10.1147 35.7482 10.2446C35.9507 10.3745 36.1062 10.5308 36.2157 10.712C36.3241 10.894 36.4051 11.0942 36.4566 11.3151C36.5091 11.5352 36.5343 11.7354 36.5321 11.9165C36.5146 13.184 35.9923 14.2388 34.9993 15.0917C34.0062 14.2123 33.4839 13.1583 33.4675 11.9165ZM11.4652 16.8787C11.556 17.313 11.8166 17.6613 12.2447 17.9252C12.6718 18.1891 13.125 18.2942 13.609 18.2412C13.7481 18.2255 13.9101 18.2015 14.0984 18.1684C14.1554 18.1577 14.2024 18.1469 14.2408 18.1353C14.4948 18.0865 14.682 17.9144 14.682 17.7076C14.682 17.4636 14.4203 17.2667 14.0973 17.2667C13.7743 17.2667 13.5137 17.4636 13.5137 17.7076C13.5137 17.8532 13.6068 17.9815 13.7502 18.0625C13.1491 18.0956 12.7068 17.9922 12.4221 17.7473C12.098 17.471 11.9009 17.1674 11.833 16.8348C11.7268 16.3244 11.8998 15.852 12.3575 15.421C12.8163 14.99 13.6561 14.7062 14.8703 14.5837C16.3715 14.4332 17.7237 14.5887 18.9018 15.0396C20.0799 15.4913 21.269 16.0092 22.4647 16.5949C23.6592 17.1806 24.9337 17.7126 26.2881 18.1957C27.6436 18.6789 29.251 18.8915 31.1386 18.8534C31.789 18.841 32.4393 18.7599 33.0908 18.611C33.7423 18.4629 34.3773 18.2727 34.9993 18.0394C35.6212 18.2718 36.2573 18.4629 36.9088 18.611C37.5592 18.7599 38.2095 18.841 38.861 18.8534C40.1311 18.8791 41.2687 18.7848 42.2826 18.5639C43.2987 18.343 44.2305 18.0625 45.0801 17.7175C45.9309 17.3726 46.7488 16.9986 47.5349 16.5949C48.3211 16.1904 49.1029 15.823 49.8791 15.4913C50.6565 15.1595 51.4755 14.8998 52.335 14.7136C53.1935 14.5275 54.1274 14.4836 55.1282 14.5837C56.3435 14.7062 57.1822 14.9891 57.641 15.421C58.0987 15.852 58.2717 16.3244 58.1655 16.8348C58.0976 17.1674 57.9005 17.471 57.5775 17.7473C57.2972 17.9872 56.8669 18.0915 56.2844 18.0642C56.43 17.9839 56.5242 17.854 56.5242 17.7076C56.5242 17.4636 56.2625 17.2667 55.9406 17.2667C55.6176 17.2667 55.3559 17.4636 55.3559 17.7076C55.3559 17.878 55.484 18.0261 55.6712 18.0998C55.7129 18.1254 55.7884 18.1486 55.9001 18.1684C56.0884 18.2015 56.2516 18.2255 56.3895 18.2412C56.8746 18.2942 57.3279 18.1891 57.7549 17.9252C58.1819 17.6613 58.4425 17.313 58.5345 16.8787C58.6582 16.2921 58.472 15.7577 57.9684 15.2812C57.4647 14.8055 56.5297 14.4903 55.1687 14.3529C53.5581 14.1916 52.0953 14.338 50.8098 14.7831C49.5233 15.2274 48.2718 15.7436 47.0597 16.3318C45.8477 16.9192 44.6082 17.4569 43.3392 17.9459C42.0702 18.4356 40.6052 18.6565 38.9212 18.6218C37.6139 18.5953 36.3997 18.3645 35.2588 17.9235C36.0208 17.5877 36.704 17.1922 37.3084 16.7339C37.7606 16.8687 38.238 16.973 38.7417 17.0474C39.2453 17.1211 39.7567 17.1657 40.28 17.1798C41.1866 17.2038 41.9837 17.1343 42.6768 16.9672C43.3721 16.8001 43.9502 16.5742 44.4155 16.2855C44.8809 15.9968 45.2466 15.6658 45.5137 15.2911C45.7798 14.9155 45.9309 14.5482 45.9659 14.1875C46.0075 13.749 45.8729 13.3651 45.5586 13.0375C45.2433 12.7108 45.0462 12.5453 44.9739 12.542C44.9017 12.5387 44.8644 12.5503 44.8622 12.5751C44.8579 12.6272 44.998 12.796 45.2816 13.0822C45.5652 13.3685 45.6845 13.7316 45.644 14.1701C45.5718 14.9444 45.0374 15.5881 44.0597 16.1134C43.0808 16.6379 41.7987 16.8704 40.1913 16.8274C39.1785 16.8009 38.3256 16.6826 37.6292 16.4667C38.3092 15.9066 38.8862 15.2712 39.3603 14.5573C39.8322 13.8433 40.1848 13.0111 40.4114 12.0597C40.3775 12.0076 40.3227 12.0059 40.2483 12.0555C39.9121 13.0301 39.4906 13.8673 38.9847 14.568C38.4778 15.2696 37.9227 15.8752 37.315 16.3848C36.9318 16.2516 36.5748 16.0994 36.2409 15.9298C35.908 15.7593 35.6004 15.5707 35.3179 15.3631C36.381 14.5126 36.9438 13.356 36.9701 11.8818C36.9734 11.6485 36.9504 11.397 36.9 11.124C36.8497 10.8526 36.7522 10.5871 36.6077 10.3273C36.4632 10.0675 36.2617 9.85245 36.0033 9.68285C35.7438 9.51408 35.4098 9.42887 34.9993 9.42887C34.5898 9.42887 34.2547 9.51408 33.9963 9.68285C33.7368 9.85245 33.5354 10.0675 33.3908 10.3273C33.2474 10.5871 33.1499 10.8526 33.0996 11.124C33.0481 11.397 33.0251 11.6485 33.0284 11.8818C33.0547 13.356 33.6175 14.5126 34.6806 15.3631C34.3981 15.5707 34.0905 15.7593 33.7576 15.9298C33.4259 16.0994 33.0667 16.2516 32.6835 16.3848C32.0758 15.8752 31.5196 15.2704 31.0138 14.568C30.509 13.8673 30.0864 13.0301 29.7513 12.0555C29.7119 12.0051 29.6572 12.0059 29.5871 12.0597C29.8137 13.0111 30.1663 13.8433 30.6393 14.5573C31.1123 15.2712 31.6904 15.9066 32.3704 16.4667C31.6729 16.6826 30.8211 16.8009 29.8072 16.8274C28.1998 16.8704 26.9177 16.6379 25.9399 16.1134C24.9622 15.5881 24.4268 14.9444 24.3545 14.1701C24.314 13.7316 24.4344 13.3685 24.7169 13.0822C25.0005 12.796 25.1417 12.6272 25.1363 12.5751C25.1341 12.5503 25.0968 12.5387 25.0246 12.542C24.9523 12.5453 24.7563 12.7108 24.441 13.0375C24.1257 13.3651 23.991 13.749 24.0326 14.1875C24.0676 14.5482 24.2187 14.9155 24.4859 15.2911C24.7519 15.6659 25.1187 15.9968 25.5841 16.2855C26.0472 16.5742 26.6286 16.8001 27.3217 16.9672C28.0159 17.1343 28.813 17.2038 29.7196 17.1798C30.2419 17.1657 30.7543 17.1211 31.2579 17.0474C31.7616 16.973 32.239 16.8687 32.6912 16.7339C33.2945 17.1922 33.9777 17.5877 34.7398 17.9235C33.5989 18.3645 32.3846 18.5961 31.0784 18.6218C29.3933 18.6565 27.9294 18.4356 26.6593 17.9459C25.3903 17.4569 24.1508 16.9192 22.9388 16.3318C21.7267 15.7436 20.4752 15.2274 19.1898 14.7831C17.9043 14.338 16.4415 14.1916 14.8298 14.3529C13.4699 14.4903 12.5349 14.8055 12.0312 15.2812C11.5276 15.7577 11.3425 16.2921 11.4652 16.8787Z" fill="#FFCA0D"/>
</g>
<defs>
<filter id="filter0_d" x="0.5" y="0" width="68" height="93.36" filterUnits="userSpaceOnUse" color-interpolation-filters="sRGB">
<feFlood flood-opacity="0" result="BackgroundImageFix"/>
<feColorMatrix in="SourceAlpha" type="matrix" values="0 0 0 0 0 0 0 0 0 0 0 0 0 0 0 0 0 0 127 0" result="hardAlpha"/>
<feOffset dx="-0.5" dy="2"/>
<feGaussianBlur stdDeviation="0.5"/>
<feComposite in2="hardAlpha" operator="out"/>
<feColorMatrix type="matrix" values="0 0 0 0 0 0 0 0 0 0 0 0 0 0 0 0 0 0 0.25 0"/>
<feBlend mode="normal" in2="BackgroundImageFix" result="effect1_dropShadow"/>
<feBlend mode="normal" in="SourceGraphic" in2="effect1_dropShadow" result="shape"/>
</filter>
</defs>
</svg>
