<svg width="70" height="96" viewBox="0 0 70 96" fill="none" xmlns="http://www.w3.org/2000/svg">
<g filter="url(#filter0_d)">
<rect x="2" width="66" height="90.3571" rx="5" fill="white"/>
<path d="M43.25 55.3929C42.0433 55.3939 40.8511 55.1297 39.7578 54.6189C38.6645 54.1081 37.6969 53.3632 36.9234 52.437C37.9742 54.8206 39.2215 57.1126 40.6524 59.2893C41.1969 60.1143 40.6053 61.2858 39.62 61.2858H30.38C29.3923 61.2858 28.8007 60.1143 29.3476 59.2893C30.7785 57.1126 32.0258 54.8206 33.0766 52.437C32.1767 53.5125 31.0175 54.3408 29.7086 54.8438C28.3996 55.3468 26.9841 55.5078 25.5956 55.3117C24.2071 55.1156 22.8915 54.5688 21.7731 53.7229C20.6546 52.8771 19.7702 51.7602 19.2034 50.4776C18.6366 49.1949 18.4061 47.789 18.5336 46.3926C18.6611 44.9961 19.1424 43.6552 19.9322 42.4965C20.7219 41.3377 21.794 40.3994 23.0471 39.7701C24.3002 39.1409 25.6931 38.8414 27.0941 38.9C26.7269 37.6686 26.6523 36.3684 26.8764 35.1031C27.1006 33.8378 27.6171 32.6424 28.385 31.612C29.1529 30.5817 30.1508 29.745 31.2993 29.1686C32.4478 28.5922 33.715 28.292 35 28.292C36.285 28.292 37.5522 28.5922 38.7007 29.1686C39.8491 29.745 40.8471 30.5817 41.615 31.612C42.3828 32.6424 42.8994 33.8378 43.1235 35.1031C43.3477 36.3684 43.2731 37.6686 42.9058 38.9C44.0026 38.8545 45.0973 39.0284 46.126 39.4114C47.1547 39.7944 48.0966 40.3789 48.8966 41.1305C49.6965 41.8821 50.3384 42.7858 50.7847 43.7887C51.231 44.7915 51.4726 45.8734 51.4955 46.9708C51.5184 48.0682 51.3221 49.1592 50.9181 50.1798C50.514 51.2004 49.9103 52.1301 49.1424 52.9144C48.3745 53.6988 47.4578 54.322 46.446 54.7476C45.4342 55.1732 44.3477 55.3925 43.25 55.3929Z" fill="black"/>
<path d="M20.54 19.3086C20.74 19.6152 20.9467 19.8619 21.16 20.0486C21.3733 20.2352 21.6467 20.3952 21.98 20.5286V20.9286C21.0467 20.8886 20.0067 20.8686 18.86 20.8686C17.98 20.8686 17.1333 20.8886 16.32 20.9286V20.5286C16.6933 20.5019 16.96 20.4619 17.12 20.4086C17.2933 20.3552 17.38 20.2619 17.38 20.1286C17.38 20.0219 17.3067 19.8552 17.16 19.6286L14.26 14.9286C13.9933 14.5019 13.7667 14.2152 13.58 14.0686C13.4067 13.9219 13.1667 13.8352 12.86 13.8086V18.8086C12.86 19.3152 12.8933 19.6819 12.96 19.9086C13.04 20.1352 13.18 20.2886 13.38 20.3686C13.58 20.4486 13.9067 20.5019 14.36 20.5286V20.9286C13.64 20.8886 12.6333 20.8686 11.34 20.8686C9.91333 20.8686 8.86 20.8886 8.18 20.9286V20.5286C8.62 20.5019 8.94 20.4486 9.14 20.3686C9.35333 20.2886 9.49333 20.1352 9.56 19.9086C9.64 19.6819 9.68 19.3152 9.68 18.8086V8.88858C9.68 8.38191 9.64 8.01525 9.56 7.78858C9.49333 7.56191 9.35333 7.40858 9.14 7.32858C8.94 7.24858 8.62 7.19525 8.18 7.16858V6.76858C8.86 6.80858 9.91333 6.82858 11.34 6.82858C12.6333 6.82858 13.64 6.80858 14.36 6.76858V7.16858C13.9067 7.19525 13.58 7.24858 13.38 7.32858C13.18 7.40858 13.04 7.56191 12.96 7.78858C12.8933 8.01525 12.86 8.38191 12.86 8.88858V13.3886C13.3933 13.3619 13.88 13.2019 14.32 12.9086C14.76 12.6152 15.26 12.1486 15.82 11.5086L17 10.0886C17.6133 9.38191 17.92 8.76191 17.92 8.22858C17.92 7.90858 17.7867 7.65525 17.52 7.46858C17.2667 7.28191 16.9067 7.17525 16.44 7.14858V6.76858C17.4133 6.80858 18.4 6.82858 19.4 6.82858C20.1733 6.82858 20.8 6.80858 21.28 6.76858V7.14858C20.2133 7.40191 19.2467 8.04191 18.38 9.06858L15.88 12.0486L20.54 19.3086Z" fill="black"/>
<path d="M49.46 70.2628C49.26 69.9562 49.0533 69.7095 48.84 69.5228C48.6267 69.3362 48.3533 69.1762 48.02 69.0428L48.02 68.6428C48.9533 68.6828 49.9933 68.7028 51.14 68.7028C52.02 68.7028 52.8667 68.6828 53.68 68.6428L53.68 69.0428C53.3067 69.0695 53.04 69.1095 52.88 69.1628C52.7067 69.2162 52.62 69.3095 52.62 69.4428C52.62 69.5495 52.6933 69.7162 52.84 69.9428L55.74 74.6428C56.0067 75.0695 56.2333 75.3562 56.42 75.5028C56.5933 75.6495 56.8333 75.7362 57.14 75.7628L57.14 70.7628C57.14 70.2562 57.1067 69.8895 57.04 69.6628C56.96 69.4362 56.82 69.2828 56.62 69.2028C56.42 69.1228 56.0933 69.0695 55.64 69.0428L55.64 68.6428C56.36 68.6828 57.3667 68.7028 58.66 68.7028C60.0867 68.7028 61.14 68.6828 61.82 68.6428L61.82 69.0428C61.38 69.0695 61.06 69.1228 60.86 69.2028C60.6467 69.2828 60.5067 69.4362 60.44 69.6628C60.36 69.8895 60.32 70.2562 60.32 70.7628L60.32 80.6828C60.32 81.1895 60.36 81.5562 60.44 81.7828C60.5067 82.0095 60.6467 82.1628 60.86 82.2428C61.06 82.3228 61.38 82.3762 61.82 82.4028L61.82 82.8028C61.14 82.7628 60.0867 82.7428 58.66 82.7428C57.3667 82.7428 56.36 82.7628 55.64 82.8028L55.64 82.4028C56.0933 82.3762 56.42 82.3228 56.62 82.2428C56.82 82.1628 56.96 82.0095 57.04 81.7828C57.1067 81.5562 57.14 81.1895 57.14 80.6828L57.14 76.1828C56.6067 76.2095 56.12 76.3695 55.68 76.6628C55.24 76.9562 54.74 77.4228 54.18 78.0628L53 79.4828C52.3867 80.1895 52.08 80.8095 52.08 81.3428C52.08 81.6628 52.2133 81.9162 52.48 82.1028C52.7333 82.2895 53.0933 82.3962 53.56 82.4228L53.56 82.8028C52.5867 82.7628 51.6 82.7428 50.6 82.7428C49.8267 82.7428 49.2 82.7628 48.72 82.8028L48.72 82.4228C49.7867 82.1695 50.7533 81.5295 51.62 80.5028L54.12 77.5228L49.46 70.2628Z" fill="black"/>
</g>
<defs>
<filter id="filter0_d" x="0" y="0" width="70" height="95.3571" filterUnits="userSpaceOnUse" color-interpolation-filters="sRGB">
<feFlood flood-opacity="0" result="BackgroundImageFix"/>
<feColorMatrix in="SourceAlpha" type="matrix" values="0 0 0 0 0 0 0 0 0 0 0 0 0 0 0 0 0 0 127 0" result="hardAlpha"/>
<feOffset dy="3"/>
<feGaussianBlur stdDeviation="1"/>
<feComposite in2="hardAlpha" operator="out"/>
<feColorMatrix type="matrix" values="0 0 0 0 0 0 0 0 0 0 0 0 0 0 0 0 0 0 0.25 0"/>
<feBlend mode="normal" in2="BackgroundImageFix" result="effect1_dropShadow"/>
<feBlend mode="normal" in="SourceGraphic" in2="effect1_dropShadow" result="shape"/>
</filter>
</defs>
</svg>
