<svg width="81" height="95" viewBox="0 0 81 95" fill="none" xmlns="http://www.w3.org/2000/svg">
<g filter="url(#filter0_d)">
<g filter="url(#filter1_d)">
<rect x="4.5" y="3.5" width="61" height="85.36" rx="2.5" fill="#A23411" stroke="white" stroke-width="5"/>
<rect x="5.92859" y="4.9287" width="58.1429" height="82.5026" fill="#B8350C"/>
<path fill-rule="evenodd" clip-rule="evenodd" d="M37.0483 74.7064C36.665 74.8396 36.2993 74.9909 35.9501 75.1605C35.5997 75.3301 35.2833 75.5188 35.0008 75.7256C34.7183 75.5188 34.4019 75.3301 34.0515 75.1605C33.7011 74.9909 33.3354 74.8396 32.9533 74.7064C33.5916 74.2472 34.2727 73.8633 35.0008 73.5531C35.7278 73.8633 36.4099 74.2472 37.0483 74.7064ZM36.5326 79.4435C36.5347 79.6246 36.5107 79.8248 36.4581 80.0449C36.4056 80.2658 36.3256 80.466 36.2161 80.648C36.1088 80.8292 35.9523 80.9855 35.7497 81.1154C35.5471 81.2453 35.2964 81.3107 35.0008 81.3107C34.7041 81.3107 34.4544 81.2453 34.2519 81.1154C34.0493 80.9855 33.8938 80.8292 33.7843 80.648C33.6759 80.466 33.5949 80.2658 33.5434 80.0449C33.4909 79.8248 33.4657 79.6246 33.4679 79.4435C33.4854 78.176 34.0077 77.1212 35.0008 76.2683C35.9939 77.1477 36.5161 78.2017 36.5326 79.4435ZM58.5349 74.4813C58.444 74.047 58.1834 73.6987 57.7553 73.4348C57.3283 73.1709 56.875 73.0658 56.391 73.1188C56.252 73.1345 56.0899 73.1585 55.9016 73.1916C55.8447 73.2023 55.7976 73.2131 55.7593 73.2247C55.5052 73.2735 55.318 73.4456 55.318 73.6524C55.318 73.8964 55.5797 74.0933 55.9027 74.0933C56.2257 74.0933 56.4863 73.8964 56.4863 73.6524C56.4863 73.5068 56.3932 73.3786 56.2498 73.2975C56.8509 73.2644 57.2932 73.3678 57.5779 73.6127C57.902 73.889 58.0991 74.1926 58.167 74.5252C58.2732 75.0356 58.1002 75.508 57.6425 75.939C57.1837 76.3701 56.3439 76.6538 55.1297 76.7763C53.6286 76.9268 52.2763 76.7713 51.0982 76.3204C49.9201 75.8687 48.731 75.3508 47.5354 74.7651C46.3408 74.1794 45.0663 73.6474 43.7119 73.1643C42.3564 72.6811 40.7491 72.4685 38.8614 72.5066C38.2111 72.519 37.5607 72.6001 36.9092 72.749C36.2577 72.8971 35.6227 73.0873 35.0008 73.3206C34.3789 73.0882 33.7427 72.8971 33.0912 72.749C32.4409 72.6001 31.7905 72.519 31.139 72.5066C29.8689 72.4809 28.7313 72.5752 27.7174 72.7961C26.7013 73.017 25.7695 73.2975 24.9199 73.6425C24.0691 73.9874 23.2512 74.3614 22.4651 74.7651C21.6789 75.1696 20.8972 75.537 20.1209 75.8687C19.3435 76.2005 18.5245 76.4602 17.665 76.6464C16.8066 76.8325 15.8726 76.8764 14.8719 76.7763C13.6565 76.6538 12.8178 76.3709 12.359 75.939C11.9014 75.508 11.7284 75.0356 11.8346 74.5252C11.9025 74.1926 12.0995 73.889 12.4225 73.6127C12.7028 73.3728 13.1331 73.2685 13.7156 73.2958C13.57 73.3761 13.4758 73.506 13.4758 73.6524C13.4758 73.8964 13.7375 74.0933 14.0594 74.0933C14.3824 74.0933 14.6441 73.8964 14.6441 73.6524C14.6441 73.482 14.516 73.3339 14.3288 73.2602C14.2872 73.2346 14.2116 73.2114 14.0999 73.1916C13.9116 73.1585 13.7485 73.1345 13.6105 73.1188C13.1255 73.0658 12.6722 73.1709 12.2452 73.4348C11.8181 73.6987 11.5576 74.047 11.4656 74.4813C11.3419 75.0679 11.528 75.6023 12.0317 76.0788C12.5353 76.5545 13.4704 76.8697 14.8313 77.0071C16.442 77.1684 17.9048 77.022 19.1902 76.5769C20.4767 76.1326 21.7282 75.6164 22.9403 75.0282C24.1524 74.4408 25.3918 73.9031 26.6608 73.4141C27.9298 72.9244 29.3948 72.7035 31.0788 72.7382C32.3861 72.7647 33.6004 72.9955 34.7413 73.4365C33.9792 73.7723 33.296 74.1678 32.6916 74.6261C32.2394 74.4913 31.762 74.387 31.2584 74.3126C30.7547 74.2389 30.2434 74.1943 29.72 74.1802C28.8134 74.1562 28.0163 74.2257 27.3232 74.3928C26.628 74.5599 26.0498 74.7858 25.5845 75.0745C25.1192 75.3632 24.7535 75.6942 24.4863 76.0689C24.2202 76.4445 24.0691 76.8118 24.0341 77.1725C23.9925 77.611 24.1272 77.9949 24.4414 78.3225C24.7568 78.6492 24.9538 78.8147 25.0261 78.818C25.0984 78.8213 25.1356 78.8097 25.1378 78.7849C25.1422 78.7328 25.002 78.564 24.7184 78.2778C24.4348 77.9915 24.3155 77.6284 24.356 77.1899C24.4283 76.4156 24.9626 75.7719 25.9404 75.2466C26.9192 74.7221 28.2014 74.4896 29.8087 74.5326C30.8215 74.5591 31.6744 74.6774 32.3708 74.8933C31.6908 75.4534 31.1138 76.0888 30.6397 76.8027C30.1678 77.5167 29.8153 78.3489 29.5886 79.3003C29.6226 79.3524 29.6773 79.3541 29.7518 79.3045C30.0879 78.3299 30.5094 77.4927 31.0153 76.792C31.5222 76.0904 32.0774 75.4848 32.685 74.9752C33.0682 75.1084 33.4252 75.2606 33.7591 75.4302C34.092 75.6007 34.3997 75.7893 34.6822 75.9969C33.619 76.8474 33.0562 78.004 33.0299 79.4782C33.0266 79.7115 33.0496 79.963 33.1 80.236C33.1504 80.5074 33.2478 80.7729 33.3923 81.0327C33.5369 81.2925 33.7383 81.5076 33.9967 81.6771C34.2562 81.8459 34.5902 81.9311 35.0008 81.9311C35.4103 81.9311 35.7453 81.8459 36.0037 81.6771C36.2632 81.5076 36.4647 81.2925 36.6092 81.0327C36.7526 80.7729 36.8501 80.5074 36.9005 80.236C36.9519 79.963 36.9749 79.7115 36.9716 79.4782C36.9453 78.004 36.3826 76.8474 35.3194 75.9969C35.6019 75.7893 35.9096 75.6007 36.2424 75.4302C36.5742 75.2606 36.9333 75.1084 37.3165 74.9752C37.9242 75.4848 38.4804 76.0896 38.9863 76.792C39.491 77.4927 39.9137 78.3299 40.2487 79.3045C40.2881 79.3549 40.3429 79.3541 40.4129 79.3003C40.1863 78.3489 39.8337 77.5167 39.3607 76.8027C38.8877 76.0888 38.3096 75.4534 37.6297 74.8933C38.3271 74.6774 39.179 74.5591 40.1929 74.5326C41.8002 74.4896 43.0823 74.7221 44.0601 75.2466C45.0379 75.7719 45.5733 76.4156 45.6455 77.1899C45.6861 77.6284 45.5656 77.9915 45.2831 78.2778C44.9995 78.564 44.8583 78.7328 44.8638 78.7849C44.866 78.8097 44.9032 78.8213 44.9754 78.818C45.0477 78.8147 45.2437 78.6492 45.559 78.3225C45.8744 77.9949 46.009 77.611 45.9674 77.1725C45.9324 76.8118 45.7813 76.4445 45.5141 76.0689C45.2481 75.6942 44.8813 75.3632 44.4159 75.0745C43.9528 74.7858 43.3714 74.5599 42.6783 74.3928C41.9841 74.2257 41.187 74.1562 40.2805 74.1802C39.7582 74.1943 39.2458 74.2389 38.7421 74.3126C38.2384 74.387 37.7611 74.4913 37.3089 74.6261C36.7056 74.1678 36.0223 73.7723 35.2603 73.4365C36.4012 72.9955 37.6154 72.7639 38.9217 72.7382C40.6067 72.7035 42.0706 72.9244 43.3407 73.4141C44.6097 73.9031 45.8492 74.4408 47.0613 75.0282C48.2733 75.6164 49.5248 76.1326 50.8103 76.5769C52.0957 77.022 53.5585 77.1684 55.1702 77.0071C56.5301 76.8697 57.4651 76.5545 57.9688 76.0788C58.4725 75.6023 58.6575 75.0679 58.5349 74.4813Z" fill="#FFCA0D"/>
<path fill-rule="evenodd" clip-rule="evenodd" d="M32.9517 56.9406C33.335 56.8074 33.7007 56.656 34.0499 56.4864C34.4003 56.3168 34.7167 56.1282 34.9992 55.9214C35.2817 56.1282 35.5981 56.3168 35.9485 56.4864C36.2989 56.656 36.6646 56.8074 37.0467 56.9406C36.4084 57.3997 35.7273 57.7836 34.9992 58.0938C34.2722 57.7836 33.5901 57.3997 32.9517 56.9406ZM33.4674 52.2035C33.4652 52.0223 33.4893 51.8221 33.5419 51.6021C33.5944 51.3812 33.6744 51.181 33.7839 50.999C33.8912 50.8178 34.0477 50.6614 34.2503 50.5315C34.4529 50.4017 34.7036 50.3363 34.9992 50.3363C35.2959 50.3363 35.5456 50.4017 35.7481 50.5315C35.9507 50.6614 36.1062 50.8178 36.2157 50.999C36.3241 51.181 36.4051 51.3812 36.4566 51.6021C36.5091 51.8221 36.5343 52.0223 36.5321 52.2035C36.5146 53.4709 35.9923 54.5257 34.9992 55.3787C34.0061 54.4992 33.4839 53.4453 33.4674 52.2035ZM11.4651 57.1656C11.556 57.6 11.8166 57.9482 12.2447 58.2122C12.6717 58.4761 13.125 58.5811 13.609 58.5282C13.748 58.5125 13.9101 58.4885 14.0984 58.4554C14.1553 58.4446 14.2024 58.4339 14.2407 58.4223C14.4948 58.3735 14.682 58.2014 14.682 57.9946C14.682 57.7505 14.4203 57.5536 14.0973 57.5536C13.7743 57.5536 13.5137 57.7505 13.5137 57.9946C13.5137 58.1402 13.6068 58.2684 13.7502 58.3495C13.1491 58.3826 12.7068 58.2792 12.4221 58.0343C12.098 57.758 11.9009 57.4544 11.833 57.1218C11.7268 56.6113 11.8998 56.139 12.3575 55.7079C12.8163 55.2769 13.6561 54.9931 14.8703 54.8707C16.3714 54.7201 17.7237 54.8757 18.9018 55.3265C20.0799 55.7782 21.269 56.2961 22.4646 56.8819C23.6592 57.4676 24.9337 57.9995 26.2881 58.4827C27.6436 58.9658 29.2509 59.1784 31.1386 59.1404C31.7889 59.128 32.4393 59.0469 33.0908 58.898C33.7423 58.7499 34.3773 58.5596 34.9992 58.3263C35.6211 58.5588 36.2573 58.7499 36.9088 58.898C37.5591 59.0469 38.2095 59.128 38.861 59.1404C40.1311 59.166 41.2687 59.0717 42.2826 58.8508C43.2987 58.6299 44.2305 58.3495 45.0801 58.0045C45.9309 57.6595 46.7488 57.2856 47.5349 56.8819C48.3211 56.4773 49.1028 56.11 49.8791 55.7782C50.6565 55.4465 51.4755 55.1867 52.335 55.0006C53.1934 54.8144 54.1274 54.7706 55.1281 54.8707C56.3435 54.9931 57.1822 55.2761 57.641 55.7079C58.0986 56.1389 58.2716 56.6113 58.1654 57.1218C58.0975 57.4543 57.9005 57.758 57.5775 58.0343C57.2972 58.2742 56.8669 58.3784 56.2844 58.3511C56.43 58.2709 56.5242 58.141 56.5242 57.9946C56.5242 57.7505 56.2625 57.5536 55.9406 57.5536C55.6176 57.5536 55.3559 57.7505 55.3559 57.9946C55.3559 58.165 55.484 58.3131 55.6712 58.3867C55.7128 58.4124 55.7884 58.4355 55.9001 58.4554C56.0884 58.4885 56.2515 58.5125 56.3895 58.5282C56.8745 58.5811 57.3278 58.4761 57.7548 58.2121C58.1819 57.9482 58.4424 57.6 58.5344 57.1656C58.6581 56.5791 58.472 56.0446 57.9683 55.5681C57.4647 55.0924 56.5296 54.7772 55.1687 54.6399C53.558 54.4786 52.0952 54.625 50.8098 55.0701C49.5233 55.5143 48.2718 56.0306 47.0597 56.6188C45.8476 57.2062 44.6082 57.7439 43.3392 58.2328C42.0702 58.7226 40.6052 58.9435 38.9212 58.9087C37.6139 58.8823 36.3996 58.6514 35.2587 58.2105C36.0208 57.8746 36.704 57.4792 37.3084 57.0208C37.7606 57.1557 38.238 57.2599 38.7416 57.3344C39.2453 57.408 39.7566 57.4527 40.28 57.4668C41.1866 57.4907 41.9837 57.4213 42.6768 57.2541C43.372 57.087 43.9502 56.8612 44.4155 56.5725C44.8808 56.2837 45.2465 55.9528 45.5137 55.578C45.7798 55.2024 45.9309 54.8351 45.9659 54.4744C46.0075 54.036 45.8728 53.6521 45.5586 53.3245C45.2432 52.9977 45.0462 52.8322 44.9739 52.8289C44.9016 52.8256 44.8644 52.8372 44.8622 52.862C44.8578 52.9142 44.998 53.0829 45.2816 53.3692C45.5652 53.6554 45.6845 54.0186 45.644 54.4571C45.5717 55.2314 45.0374 55.875 44.0596 56.4004C43.0808 56.9249 41.7986 57.1573 40.1913 57.1143C39.1785 57.0879 38.3256 56.9696 37.6292 56.7536C38.3092 56.1935 38.8862 55.5582 39.3603 54.8442C39.8322 54.1303 40.1847 53.298 40.4114 52.3466C40.3774 52.2945 40.3227 52.2929 40.2482 52.3425C39.9121 53.317 39.4906 54.1543 38.9847 54.855C38.4778 55.5565 37.9226 56.1621 37.315 56.6717C36.9318 56.5385 36.5748 56.3863 36.2409 56.2167C35.908 56.0463 35.6003 55.8577 35.3178 55.65C36.381 54.7996 36.9438 53.643 36.9701 52.1688C36.9734 51.9355 36.9504 51.684 36.9 51.411C36.8496 51.1396 36.7522 50.874 36.6077 50.6143C36.4631 50.3545 36.2617 50.1394 36.0033 49.9698C35.7438 49.801 35.4098 49.7158 34.9992 49.7158C34.5897 49.7158 34.2547 49.801 33.9963 49.9698C33.7368 50.1394 33.5353 50.3545 33.3908 50.6143C33.2474 50.874 33.1499 51.1396 33.0995 51.411C33.0481 51.684 33.0251 51.9355 33.0284 52.1688C33.0547 53.643 33.6174 54.7996 34.6806 55.65C34.3981 55.8577 34.0904 56.0463 33.7576 56.2167C33.4258 56.3863 33.0667 56.5385 32.6835 56.6717C32.0758 56.1621 31.5196 55.5574 31.0137 54.855C30.509 54.1543 30.0863 53.317 29.7513 52.3425C29.7119 52.292 29.6571 52.2929 29.5871 52.3466C29.8137 53.298 30.1663 54.1303 30.6393 54.8442C31.1123 55.5582 31.6904 56.1936 32.3703 56.7536C31.6729 56.9696 30.821 57.0879 29.8071 57.1143C28.1998 57.1574 26.9177 56.9249 25.9399 56.4004C24.9621 55.875 24.4267 55.2314 24.3545 54.4571C24.3139 54.0186 24.4344 53.6554 24.7169 53.3692C25.0005 53.0829 25.1417 52.9142 25.1362 52.862C25.134 52.8372 25.0968 52.8256 25.0246 52.8289C24.9523 52.8322 24.7563 52.9977 24.441 53.3245C24.1256 53.6521 23.991 54.036 24.0326 54.4744C24.0676 54.8351 24.2187 55.2025 24.4859 55.578C24.7519 55.9528 25.1187 56.2837 25.5841 56.5725C26.0472 56.8612 26.6286 57.087 27.3217 57.2541C28.0159 57.4213 28.813 57.4908 29.7195 57.4668C30.2418 57.4527 30.7542 57.408 31.2579 57.3344C31.7616 57.2599 32.2389 57.1557 32.6911 57.0208C33.2944 57.4792 33.9777 57.8746 34.7397 58.2105C33.5988 58.6514 32.3846 58.8831 31.0783 58.9087C29.3933 58.9435 27.9294 58.7226 26.6593 58.2328C25.3903 57.7439 24.1508 57.2062 22.9387 56.6188C21.7267 56.0306 20.4752 55.5143 19.1897 55.0701C17.9043 54.625 16.4415 54.4786 14.8298 54.6399C13.4699 54.7772 12.5349 55.0924 12.0312 55.5681C11.5275 56.0446 11.3425 56.5791 11.4651 57.1656Z" fill="#FFCA0D"/>
<path fill-rule="evenodd" clip-rule="evenodd" d="M37.0483 35.4194C36.665 35.5526 36.2993 35.704 35.9501 35.8736C35.5997 36.0432 35.2833 36.2318 35.0008 36.4386C34.7183 36.2318 34.4019 36.0432 34.0515 35.8736C33.7011 35.704 33.3354 35.5526 32.9533 35.4194C33.5916 34.9603 34.2727 34.5764 35.0008 34.2662C35.7278 34.5764 36.4099 34.9603 37.0483 35.4194ZM36.5326 40.1565C36.5347 40.3377 36.5107 40.5379 36.4581 40.7579C36.4056 40.9788 36.3256 41.179 36.2161 41.361C36.1088 41.5422 35.9523 41.6986 35.7497 41.8285C35.5471 41.9583 35.2964 42.0237 35.0008 42.0237C34.7041 42.0237 34.4544 41.9583 34.2519 41.8285C34.0493 41.6986 33.8938 41.5422 33.7843 41.361C33.6759 41.179 33.5949 40.9788 33.5434 40.7579C33.4909 40.5379 33.4657 40.3377 33.4679 40.1565C33.4854 38.8891 34.0077 37.8343 35.0008 36.9813C35.9939 37.8608 36.5161 38.9147 36.5326 40.1565ZM58.5349 35.1944C58.444 34.76 58.1834 34.4118 57.7553 34.1479C57.3283 33.8839 56.875 33.7789 56.391 33.8318C56.252 33.8475 56.0899 33.8715 55.9016 33.9046C55.8447 33.9154 55.7976 33.9261 55.7593 33.9377C55.5052 33.9865 55.318 34.1586 55.318 34.3654C55.318 34.6095 55.5797 34.8064 55.9027 34.8064C56.2257 34.8064 56.4863 34.6095 56.4863 34.3654C56.4863 34.2198 56.3932 34.0916 56.2498 34.0105C56.8509 33.9774 57.2932 34.0808 57.5779 34.3257C57.902 34.602 58.0991 34.9057 58.167 35.2382C58.2732 35.7487 58.1002 36.2211 57.6425 36.6521C57.1837 37.0831 56.3439 37.3669 55.1297 37.4893C53.6286 37.6399 52.2763 37.4843 51.0982 37.0335C49.9201 36.5818 48.731 36.0639 47.5354 35.4781C46.3408 34.8924 45.0663 34.3605 43.7119 33.8773C42.3564 33.3942 40.7491 33.1816 38.8614 33.2196C38.2111 33.232 37.5607 33.3131 36.9092 33.462C36.2577 33.6101 35.6227 33.8004 35.0008 34.0337C34.3789 33.8012 33.7427 33.6101 33.0912 33.462C32.4409 33.3131 31.7905 33.232 31.139 33.2196C29.8689 33.194 28.7313 33.2883 27.7174 33.5092C26.7013 33.7301 25.7695 34.0105 24.9199 34.3555C24.0691 34.7005 23.2512 35.0744 22.4651 35.4781C21.6789 35.8827 20.8972 36.25 20.1209 36.5818C19.3435 36.9135 18.5245 37.1733 17.665 37.3594C16.8066 37.5456 15.8726 37.5894 14.8719 37.4893C13.6565 37.3669 12.8178 37.0839 12.359 36.6521C11.9014 36.2211 11.7284 35.7487 11.8346 35.2382C11.9025 34.9057 12.0995 34.602 12.4225 34.3257C12.7028 34.0858 13.1331 33.9816 13.7156 34.0089C13.57 34.0891 13.4758 34.219 13.4758 34.3654C13.4758 34.6095 13.7375 34.8064 14.0594 34.8064C14.3824 34.8064 14.6441 34.6095 14.6441 34.3654C14.6441 34.195 14.516 34.0469 14.3288 33.9733C14.2872 33.9476 14.2116 33.9245 14.0999 33.9046C13.9116 33.8715 13.7485 33.8475 13.6105 33.8318C13.1255 33.7789 12.6722 33.8839 12.2452 34.1479C11.8181 34.4118 11.5576 34.76 11.4656 35.1944C11.3419 35.7809 11.528 36.3154 12.0317 36.7919C12.5353 37.2676 13.4704 37.5828 14.8313 37.7201C16.442 37.8814 17.9048 37.735 19.1902 37.2899C20.4767 36.8457 21.7282 36.3294 22.9403 35.7412C24.1524 35.1538 25.3918 34.6161 26.6608 34.1272C27.9298 33.6374 29.3948 33.4165 31.0788 33.4513C32.3861 33.4777 33.6004 33.7086 34.7413 34.1495C33.9792 34.4854 33.296 34.8808 32.6916 35.3392C32.2394 35.2043 31.762 35.1001 31.2584 35.0256C30.7547 34.952 30.2434 34.9073 29.72 34.8932C28.8134 34.8693 28.0163 34.9387 27.3232 35.1059C26.628 35.273 26.0498 35.4988 25.5845 35.7875C25.1192 36.0763 24.7535 36.4072 24.4863 36.782C24.2202 37.1576 24.0691 37.5249 24.0341 37.8856C23.9925 38.324 24.1272 38.7079 24.4414 39.0355C24.7568 39.3623 24.9538 39.5278 25.0261 39.5311C25.0984 39.5344 25.1356 39.5228 25.1378 39.498C25.1422 39.4458 25.002 39.2771 24.7184 38.9908C24.4348 38.7046 24.3155 38.3414 24.356 37.9029C24.4283 37.1286 24.9626 36.485 25.9404 35.9596C26.9192 35.4351 28.2014 35.2027 29.8087 35.2457C30.8215 35.2721 31.6744 35.3904 32.3708 35.6064C31.6908 36.1665 31.1138 36.8018 30.6397 37.5158C30.1678 38.2297 29.8153 39.062 29.5886 40.0134C29.6226 40.0655 29.6773 40.0671 29.7518 40.0175C30.0879 39.043 30.5094 38.2057 31.0153 37.505C31.5222 36.8035 32.0774 36.1979 32.685 35.6883C33.0682 35.8215 33.4252 35.9737 33.7591 36.1433C34.092 36.3137 34.3997 36.5023 34.6822 36.71C33.619 37.5604 33.0562 38.717 33.0299 40.1912C33.0266 40.4245 33.0496 40.676 33.1 40.949C33.1504 41.2204 33.2478 41.486 33.3923 41.7457C33.5369 42.0055 33.7383 42.2206 33.9967 42.3902C34.2562 42.559 34.5902 42.6442 35.0008 42.6442C35.4103 42.6442 35.7453 42.559 36.0037 42.3902C36.2632 42.2206 36.4647 42.0055 36.6092 41.7457C36.7526 41.486 36.8501 41.2204 36.9005 40.949C36.9519 40.676 36.9749 40.4245 36.9716 40.1912C36.9453 38.717 36.3826 37.5604 35.3194 36.71C35.6019 36.5023 35.9096 36.3137 36.2424 36.1433C36.5742 35.9737 36.9333 35.8215 37.3165 35.6883C37.9242 36.1979 38.4804 36.8026 38.9863 37.505C39.491 38.2057 39.9137 39.043 40.2487 40.0175C40.2881 40.068 40.3429 40.0671 40.4129 40.0134C40.1863 39.062 39.8337 38.2297 39.3607 37.5158C38.8877 36.8018 38.3096 36.1665 37.6297 35.6064C38.3271 35.3904 39.179 35.2721 40.1929 35.2457C41.8002 35.2027 43.0823 35.4351 44.0601 35.9596C45.0379 36.485 45.5733 37.1286 45.6455 37.9029C45.6861 38.3414 45.5656 38.7046 45.2831 38.9908C44.9995 39.2771 44.8583 39.4458 44.8638 39.498C44.866 39.5228 44.9032 39.5344 44.9754 39.5311C45.0477 39.5278 45.2437 39.3623 45.559 39.0355C45.8744 38.7079 46.009 38.324 45.9674 37.8856C45.9324 37.5249 45.7813 37.1576 45.5141 36.782C45.2481 36.4072 44.8813 36.0763 44.4159 35.7875C43.9528 35.4988 43.3714 35.273 42.6783 35.1059C41.9841 34.9387 41.187 34.8693 40.2805 34.8932C39.7582 34.9073 39.2458 34.952 38.7421 35.0256C38.2384 35.1001 37.7611 35.2043 37.3089 35.3392C36.7056 34.8808 36.0223 34.4854 35.2603 34.1495C36.4012 33.7086 37.6154 33.4769 38.9217 33.4513C40.6067 33.4165 42.0706 33.6374 43.3407 34.1272C44.6097 34.6161 45.8492 35.1538 47.0613 35.7412C48.2733 36.3294 49.5248 36.8457 50.8103 37.2899C52.0957 37.735 53.5585 37.8814 55.1702 37.7201C56.5301 37.5828 57.4651 37.2676 57.9688 36.7919C58.4725 36.3154 58.6575 35.7809 58.5349 35.1944Z" fill="#FFCA0D"/>
<path fill-rule="evenodd" clip-rule="evenodd" d="M32.9517 17.6536C33.335 17.5204 33.7007 17.369 34.0499 17.1995C34.4003 17.0299 34.7167 16.8412 34.9992 16.6344C35.2817 16.8412 35.5981 17.0299 35.9485 17.1995C36.2989 17.369 36.6646 17.5204 37.0467 17.6536C36.4084 18.1128 35.7273 18.4967 34.9992 18.8069C34.2722 18.4967 33.5901 18.1128 32.9517 17.6536ZM33.4674 12.9165C33.4652 12.7354 33.4893 12.5352 33.5419 12.3151C33.5944 12.0942 33.6744 11.894 33.7839 11.712C33.8912 11.5308 34.0477 11.3745 34.2503 11.2446C34.4529 11.1147 34.7036 11.0493 34.9992 11.0493C35.2959 11.0493 35.5456 11.1147 35.7481 11.2446C35.9507 11.3745 36.1062 11.5308 36.2157 11.712C36.3241 11.894 36.4051 12.0942 36.4566 12.3151C36.5091 12.5352 36.5343 12.7354 36.5321 12.9165C36.5146 14.184 35.9923 15.2388 34.9992 16.0917C34.0061 15.2123 33.4839 14.1583 33.4674 12.9165ZM11.4651 17.8787C11.556 18.313 11.8166 18.6613 12.2447 18.9252C12.6717 19.1891 13.125 19.2942 13.609 19.2412C13.748 19.2255 13.9101 19.2015 14.0984 19.1684C14.1553 19.1577 14.2024 19.1469 14.2407 19.1353C14.4948 19.0865 14.682 18.9144 14.682 18.7076C14.682 18.4636 14.4203 18.2667 14.0973 18.2667C13.7743 18.2667 13.5137 18.4636 13.5137 18.7076C13.5137 18.8532 13.6068 18.9814 13.7502 19.0625C13.1491 19.0956 12.7068 18.9922 12.4221 18.7473C12.098 18.471 11.9009 18.1674 11.833 17.8348C11.7268 17.3244 11.8998 16.852 12.3575 16.421C12.8163 15.9899 13.6561 15.7062 14.8703 15.5837C16.3714 15.4332 17.7237 15.5887 18.9018 16.0396C20.0799 16.4913 21.269 17.0092 22.4646 17.5949C23.6592 18.1806 24.9337 18.7126 26.2881 19.1957C27.6436 19.6789 29.2509 19.8915 31.1386 19.8534C31.7889 19.841 32.4393 19.7599 33.0908 19.611C33.7423 19.4629 34.3773 19.2727 34.9992 19.0394C35.6211 19.2718 36.2573 19.4629 36.9088 19.611C37.5591 19.7599 38.2095 19.841 38.861 19.8534C40.1311 19.8791 41.2687 19.7847 42.2826 19.5639C43.2987 19.343 44.2305 19.0625 45.0801 18.7175C45.9309 18.3726 46.7488 17.9986 47.5349 17.5949C48.3211 17.1904 49.1028 16.823 49.8791 16.4913C50.6565 16.1595 51.4755 15.8998 52.335 15.7136C53.1934 15.5275 54.1274 15.4836 55.1281 15.5837C56.3435 15.7062 57.1822 15.9891 57.641 16.421C58.0986 16.852 58.2716 17.3244 58.1654 17.8348C58.0975 18.1674 57.9005 18.471 57.5775 18.7473C57.2972 18.9872 56.8669 19.0915 56.2844 19.0642C56.43 18.9839 56.5242 18.854 56.5242 18.7076C56.5242 18.4636 56.2625 18.2667 55.9406 18.2667C55.6176 18.2667 55.3559 18.4636 55.3559 18.7076C55.3559 18.878 55.484 19.0261 55.6712 19.0997C55.7128 19.1254 55.7884 19.1486 55.9001 19.1684C56.0884 19.2015 56.2515 19.2255 56.3895 19.2412C56.8745 19.2942 57.3278 19.1891 57.7548 18.9252C58.1819 18.6613 58.4424 18.313 58.5344 17.8787C58.6581 17.2921 58.472 16.7577 57.9683 16.2812C57.4647 15.8055 56.5296 15.4903 55.1687 15.3529C53.558 15.1916 52.0952 15.338 50.8098 15.7831C49.5233 16.2274 48.2718 16.7436 47.0597 17.3318C45.8476 17.9192 44.6082 18.4569 43.3392 18.9459C42.0702 19.4356 40.6052 19.6565 38.9212 19.6218C37.6139 19.5953 36.3996 19.3645 35.2587 18.9235C36.0208 18.5877 36.704 18.1922 37.3084 17.7339C37.7606 17.8687 38.238 17.973 38.7416 18.0474C39.2453 18.1211 39.7566 18.1657 40.28 18.1798C41.1866 18.2038 41.9837 18.1343 42.6768 17.9672C43.372 17.8001 43.9502 17.5742 44.4155 17.2855C44.8808 16.9968 45.2465 16.6658 45.5137 16.2911C45.7798 15.9155 45.9309 15.5482 45.9659 15.1875C46.0075 14.749 45.8728 14.3651 45.5586 14.0375C45.2432 13.7107 45.0462 13.5453 44.9739 13.542C44.9016 13.5387 44.8644 13.5503 44.8622 13.5751C44.8578 13.6272 44.998 13.796 45.2816 14.0822C45.5652 14.3684 45.6845 14.7316 45.644 15.1701C45.5717 15.9444 45.0374 16.5881 44.0596 17.1134C43.0808 17.6379 41.7986 17.8704 40.1913 17.8274C39.1785 17.8009 38.3256 17.6826 37.6292 17.4667C38.3092 16.9066 38.8862 16.2712 39.3603 15.5573C39.8322 14.8433 40.1847 14.0111 40.4114 13.0597C40.3774 13.0075 40.3227 13.0059 40.2482 13.0555C39.9121 14.0301 39.4906 14.8673 38.9847 15.568C38.4778 16.2696 37.9226 16.8752 37.315 17.3848C36.9318 17.2516 36.5748 17.0993 36.2409 16.9298C35.908 16.7593 35.6003 16.5707 35.3178 16.3631C36.381 15.5126 36.9438 14.356 36.9701 12.8818C36.9734 12.6485 36.9504 12.397 36.9 12.124C36.8496 11.8526 36.7522 11.5871 36.6077 11.3273C36.4631 11.0675 36.2617 10.8524 36.0033 10.6828C35.7438 10.5141 35.4098 10.4289 34.9992 10.4289C34.5897 10.4289 34.2547 10.5141 33.9963 10.6828C33.7368 10.8524 33.5353 11.0675 33.3908 11.3273C33.2474 11.5871 33.1499 11.8526 33.0995 12.124C33.0481 12.397 33.0251 12.6485 33.0284 12.8818C33.0547 14.356 33.6174 15.5126 34.6806 16.3631C34.3981 16.5707 34.0904 16.7593 33.7576 16.9298C33.4258 17.0993 33.0667 17.2516 32.6835 17.3848C32.0758 16.8752 31.5196 16.2704 31.0137 15.568C30.509 14.8673 30.0863 14.0301 29.7513 13.0555C29.7119 13.0051 29.6571 13.0059 29.5871 13.0597C29.8137 14.0111 30.1663 14.8433 30.6393 15.5573C31.1123 16.2712 31.6904 16.9066 32.3703 17.4667C31.6729 17.6826 30.821 17.8009 29.8071 17.8274C28.1998 17.8704 26.9177 17.6379 25.9399 17.1134C24.9621 16.5881 24.4267 15.9444 24.3545 15.1701C24.3139 14.7316 24.4344 14.3684 24.7169 14.0822C25.0005 13.796 25.1417 13.6272 25.1362 13.5751C25.134 13.5503 25.0968 13.5387 25.0246 13.542C24.9523 13.5453 24.7563 13.7107 24.441 14.0375C24.1256 14.3651 23.991 14.749 24.0326 15.1875C24.0676 15.5482 24.2187 15.9155 24.4859 16.2911C24.7519 16.6658 25.1187 16.9968 25.5841 17.2855C26.0472 17.5742 26.6286 17.8001 27.3217 17.9672C28.0159 18.1343 28.813 18.2038 29.7195 18.1798C30.2418 18.1657 30.7542 18.1211 31.2579 18.0474C31.7616 17.973 32.2389 17.8687 32.6911 17.7339C33.2944 18.1922 33.9777 18.5877 34.7397 18.9235C33.5988 19.3645 32.3846 19.5961 31.0783 19.6218C29.3933 19.6565 27.9294 19.4356 26.6593 18.9459C25.3903 18.4569 24.1508 17.9192 22.9387 17.3318C21.7267 16.7436 20.4752 16.2274 19.1897 15.7831C17.9043 15.338 16.4415 15.1916 14.8298 15.3529C13.4699 15.4903 12.5349 15.8055 12.0312 16.2812C11.5275 16.7577 11.3425 17.2921 11.4651 17.8787Z" fill="#FFCA0D"/>
</g>
<g filter="url(#filter2_d)">
<rect x="8.5" y="3.5" width="61" height="85.36" rx="2.5" fill="#A23411" stroke="white" stroke-width="5"/>
<rect x="9.92859" y="4.9287" width="58.1429" height="82.5026" fill="#B8350C"/>
<path fill-rule="evenodd" clip-rule="evenodd" d="M41.0483 74.7064C40.665 74.8396 40.2993 74.9909 39.9501 75.1605C39.5997 75.3301 39.2833 75.5188 39.0008 75.7256C38.7183 75.5188 38.4019 75.3301 38.0515 75.1605C37.7011 74.9909 37.3354 74.8396 36.9533 74.7064C37.5916 74.2472 38.2727 73.8633 39.0008 73.5531C39.7278 73.8633 40.4099 74.2472 41.0483 74.7064ZM40.5326 79.4435C40.5347 79.6246 40.5107 79.8248 40.4581 80.0449C40.4056 80.2658 40.3256 80.466 40.2161 80.648C40.1088 80.8292 39.9523 80.9855 39.7497 81.1154C39.5471 81.2453 39.2964 81.3107 39.0008 81.3107C38.7041 81.3107 38.4544 81.2453 38.2519 81.1154C38.0493 80.9855 37.8938 80.8292 37.7843 80.648C37.6759 80.466 37.5949 80.2658 37.5434 80.0449C37.4909 79.8248 37.4657 79.6246 37.4679 79.4435C37.4854 78.176 38.0077 77.1212 39.0008 76.2683C39.9939 77.1477 40.5161 78.2017 40.5326 79.4435ZM62.5349 74.4813C62.444 74.047 62.1834 73.6987 61.7553 73.4348C61.3283 73.1709 60.875 73.0658 60.391 73.1188C60.252 73.1345 60.0899 73.1585 59.9016 73.1916C59.8447 73.2023 59.7976 73.2131 59.7593 73.2247C59.5052 73.2735 59.318 73.4456 59.318 73.6524C59.318 73.8964 59.5797 74.0933 59.9027 74.0933C60.2257 74.0933 60.4863 73.8964 60.4863 73.6524C60.4863 73.5068 60.3932 73.3786 60.2498 73.2975C60.8509 73.2644 61.2932 73.3678 61.5779 73.6127C61.902 73.889 62.0991 74.1926 62.167 74.5252C62.2732 75.0356 62.1002 75.508 61.6425 75.939C61.1837 76.3701 60.3439 76.6538 59.1297 76.7763C57.6286 76.9268 56.2763 76.7713 55.0982 76.3204C53.9201 75.8687 52.731 75.3508 51.5354 74.7651C50.3408 74.1794 49.0663 73.6474 47.7119 73.1643C46.3564 72.6811 44.7491 72.4685 42.8614 72.5066C42.2111 72.519 41.5607 72.6001 40.9092 72.749C40.2577 72.8971 39.6227 73.0873 39.0008 73.3206C38.3789 73.0882 37.7427 72.8971 37.0912 72.749C36.4409 72.6001 35.7905 72.519 35.139 72.5066C33.8689 72.4809 32.7313 72.5752 31.7174 72.7961C30.7013 73.017 29.7695 73.2975 28.9199 73.6425C28.0691 73.9874 27.2512 74.3614 26.4651 74.7651C25.6789 75.1696 24.8972 75.537 24.1209 75.8687C23.3435 76.2005 22.5245 76.4602 21.665 76.6464C20.8066 76.8325 19.8726 76.8764 18.8719 76.7763C17.6565 76.6538 16.8178 76.3709 16.359 75.939C15.9014 75.508 15.7284 75.0356 15.8346 74.5252C15.9025 74.1926 16.0995 73.889 16.4225 73.6127C16.7028 73.3728 17.1331 73.2685 17.7156 73.2958C17.57 73.3761 17.4758 73.506 17.4758 73.6524C17.4758 73.8964 17.7375 74.0933 18.0594 74.0933C18.3824 74.0933 18.6441 73.8964 18.6441 73.6524C18.6441 73.482 18.516 73.3339 18.3288 73.2602C18.2872 73.2346 18.2116 73.2114 18.0999 73.1916C17.9116 73.1585 17.7485 73.1345 17.6105 73.1188C17.1255 73.0658 16.6722 73.1709 16.2452 73.4348C15.8181 73.6987 15.5576 74.047 15.4656 74.4813C15.3419 75.0679 15.528 75.6023 16.0317 76.0788C16.5353 76.5545 17.4704 76.8697 18.8313 77.0071C20.442 77.1684 21.9048 77.022 23.1902 76.5769C24.4767 76.1326 25.7282 75.6164 26.9403 75.0282C28.1524 74.4408 29.3918 73.9031 30.6608 73.4141C31.9298 72.9244 33.3948 72.7035 35.0788 72.7382C36.3861 72.7647 37.6004 72.9955 38.7413 73.4365C37.9792 73.7723 37.296 74.1678 36.6916 74.6261C36.2394 74.4913 35.762 74.387 35.2584 74.3126C34.7547 74.2389 34.2434 74.1943 33.72 74.1802C32.8134 74.1562 32.0163 74.2257 31.3232 74.3928C30.628 74.5599 30.0498 74.7858 29.5845 75.0745C29.1192 75.3632 28.7535 75.6942 28.4863 76.0689C28.2202 76.4445 28.0691 76.8118 28.0341 77.1725C27.9925 77.611 28.1272 77.9949 28.4414 78.3225C28.7568 78.6492 28.9538 78.8147 29.0261 78.818C29.0984 78.8213 29.1356 78.8097 29.1378 78.7849C29.1422 78.7328 29.002 78.564 28.7184 78.2778C28.4348 77.9915 28.3155 77.6284 28.356 77.1899C28.4283 76.4156 28.9626 75.7719 29.9404 75.2466C30.9192 74.7221 32.2014 74.4896 33.8087 74.5326C34.8215 74.5591 35.6744 74.6774 36.3708 74.8933C35.6908 75.4534 35.1138 76.0888 34.6397 76.8027C34.1678 77.5167 33.8153 78.3489 33.5886 79.3003C33.6226 79.3524 33.6773 79.3541 33.7518 79.3045C34.0879 78.3299 34.5094 77.4927 35.0153 76.792C35.5222 76.0904 36.0774 75.4848 36.685 74.9752C37.0682 75.1084 37.4252 75.2606 37.7591 75.4302C38.092 75.6007 38.3997 75.7893 38.6822 75.9969C37.619 76.8474 37.0562 78.004 37.0299 79.4782C37.0266 79.7115 37.0496 79.963 37.1 80.236C37.1504 80.5074 37.2478 80.7729 37.3923 81.0327C37.5369 81.2925 37.7383 81.5076 37.9967 81.6771C38.2562 81.8459 38.5902 81.9311 39.0008 81.9311C39.4103 81.9311 39.7453 81.8459 40.0037 81.6771C40.2632 81.5076 40.4647 81.2925 40.6092 81.0327C40.7526 80.7729 40.8501 80.5074 40.9005 80.236C40.9519 79.963 40.9749 79.7115 40.9716 79.4782C40.9453 78.004 40.3826 76.8474 39.3194 75.9969C39.6019 75.7893 39.9096 75.6007 40.2424 75.4302C40.5742 75.2606 40.9333 75.1084 41.3165 74.9752C41.9242 75.4848 42.4804 76.0896 42.9863 76.792C43.491 77.4927 43.9137 78.3299 44.2487 79.3045C44.2881 79.3549 44.3429 79.3541 44.4129 79.3003C44.1863 78.3489 43.8337 77.5167 43.3607 76.8027C42.8877 76.0888 42.3096 75.4534 41.6297 74.8933C42.3271 74.6774 43.179 74.5591 44.1929 74.5326C45.8002 74.4896 47.0823 74.7221 48.0601 75.2466C49.0379 75.7719 49.5733 76.4156 49.6455 77.1899C49.6861 77.6284 49.5656 77.9915 49.2831 78.2778C48.9995 78.564 48.8583 78.7328 48.8638 78.7849C48.866 78.8097 48.9032 78.8213 48.9754 78.818C49.0477 78.8147 49.2437 78.6492 49.559 78.3225C49.8744 77.9949 50.009 77.611 49.9674 77.1725C49.9324 76.8118 49.7813 76.4445 49.5141 76.0689C49.2481 75.6942 48.8813 75.3632 48.4159 75.0745C47.9528 74.7858 47.3714 74.5599 46.6783 74.3928C45.9841 74.2257 45.187 74.1562 44.2805 74.1802C43.7582 74.1943 43.2458 74.2389 42.7421 74.3126C42.2384 74.387 41.7611 74.4913 41.3089 74.6261C40.7056 74.1678 40.0223 73.7723 39.2603 73.4365C40.4012 72.9955 41.6154 72.7639 42.9217 72.7382C44.6067 72.7035 46.0706 72.9244 47.3407 73.4141C48.6097 73.9031 49.8492 74.4408 51.0613 75.0282C52.2733 75.6164 53.5248 76.1326 54.8103 76.5769C56.0957 77.022 57.5585 77.1684 59.1702 77.0071C60.5301 76.8697 61.4651 76.5545 61.9688 76.0788C62.4725 75.6023 62.6575 75.0679 62.5349 74.4813Z" fill="#FFCA0D"/>
<path fill-rule="evenodd" clip-rule="evenodd" d="M36.9517 56.9406C37.335 56.8074 37.7007 56.656 38.0499 56.4864C38.4003 56.3168 38.7167 56.1282 38.9992 55.9214C39.2817 56.1282 39.5981 56.3168 39.9485 56.4864C40.2989 56.656 40.6646 56.8074 41.0467 56.9406C40.4084 57.3997 39.7273 57.7836 38.9992 58.0938C38.2722 57.7836 37.5901 57.3997 36.9517 56.9406ZM37.4674 52.2035C37.4652 52.0223 37.4893 51.8221 37.5419 51.6021C37.5944 51.3812 37.6744 51.181 37.7839 50.999C37.8912 50.8178 38.0477 50.6614 38.2503 50.5315C38.4529 50.4017 38.7036 50.3363 38.9992 50.3363C39.2959 50.3363 39.5456 50.4017 39.7481 50.5315C39.9507 50.6614 40.1062 50.8178 40.2157 50.999C40.3241 51.181 40.4051 51.3812 40.4566 51.6021C40.5091 51.8221 40.5343 52.0223 40.5321 52.2035C40.5146 53.4709 39.9923 54.5257 38.9992 55.3787C38.0061 54.4992 37.4839 53.4453 37.4674 52.2035ZM15.4651 57.1656C15.556 57.6 15.8166 57.9482 16.2447 58.2122C16.6717 58.4761 17.125 58.5811 17.609 58.5282C17.748 58.5125 17.9101 58.4885 18.0984 58.4554C18.1553 58.4446 18.2024 58.4339 18.2407 58.4223C18.4948 58.3735 18.682 58.2014 18.682 57.9946C18.682 57.7505 18.4203 57.5536 18.0973 57.5536C17.7743 57.5536 17.5137 57.7505 17.5137 57.9946C17.5137 58.1402 17.6068 58.2684 17.7502 58.3495C17.1491 58.3826 16.7068 58.2792 16.4221 58.0343C16.098 57.758 15.9009 57.4544 15.833 57.1218C15.7268 56.6113 15.8998 56.139 16.3575 55.7079C16.8163 55.2769 17.6561 54.9931 18.8703 54.8707C20.3714 54.7201 21.7237 54.8757 22.9018 55.3265C24.0799 55.7782 25.269 56.2961 26.4646 56.8819C27.6592 57.4676 28.9337 57.9995 30.2881 58.4827C31.6436 58.9658 33.2509 59.1784 35.1386 59.1404C35.7889 59.128 36.4393 59.0469 37.0908 58.898C37.7423 58.7499 38.3773 58.5596 38.9992 58.3263C39.6211 58.5588 40.2573 58.7499 40.9088 58.898C41.5591 59.0469 42.2095 59.128 42.861 59.1404C44.1311 59.166 45.2687 59.0717 46.2826 58.8508C47.2987 58.6299 48.2305 58.3495 49.0801 58.0045C49.9309 57.6595 50.7488 57.2856 51.5349 56.8819C52.3211 56.4773 53.1028 56.11 53.8791 55.7782C54.6565 55.4465 55.4755 55.1867 56.335 55.0006C57.1934 54.8144 58.1274 54.7706 59.1281 54.8707C60.3435 54.9931 61.1822 55.2761 61.641 55.7079C62.0986 56.1389 62.2716 56.6113 62.1654 57.1218C62.0975 57.4543 61.9005 57.758 61.5775 58.0343C61.2972 58.2742 60.8669 58.3784 60.2844 58.3511C60.43 58.2709 60.5242 58.141 60.5242 57.9946C60.5242 57.7505 60.2625 57.5536 59.9406 57.5536C59.6176 57.5536 59.3559 57.7505 59.3559 57.9946C59.3559 58.165 59.484 58.3131 59.6712 58.3867C59.7128 58.4124 59.7884 58.4355 59.9001 58.4554C60.0884 58.4885 60.2515 58.5125 60.3895 58.5282C60.8745 58.5811 61.3278 58.4761 61.7548 58.2121C62.1819 57.9482 62.4424 57.6 62.5344 57.1656C62.6581 56.5791 62.472 56.0446 61.9683 55.5681C61.4647 55.0924 60.5296 54.7772 59.1687 54.6399C57.558 54.4786 56.0952 54.625 54.8098 55.0701C53.5233 55.5143 52.2718 56.0306 51.0597 56.6188C49.8476 57.2062 48.6082 57.7439 47.3392 58.2328C46.0702 58.7226 44.6052 58.9435 42.9212 58.9087C41.6139 58.8823 40.3996 58.6514 39.2587 58.2105C40.0208 57.8746 40.704 57.4792 41.3084 57.0208C41.7606 57.1557 42.238 57.2599 42.7416 57.3344C43.2453 57.408 43.7566 57.4527 44.28 57.4668C45.1866 57.4907 45.9837 57.4213 46.6768 57.2541C47.372 57.087 47.9502 56.8612 48.4155 56.5725C48.8808 56.2837 49.2465 55.9528 49.5137 55.578C49.7798 55.2024 49.9309 54.8351 49.9659 54.4744C50.0075 54.036 49.8728 53.6521 49.5586 53.3245C49.2432 52.9977 49.0462 52.8322 48.9739 52.8289C48.9016 52.8256 48.8644 52.8372 48.8622 52.862C48.8578 52.9142 48.998 53.0829 49.2816 53.3692C49.5652 53.6554 49.6845 54.0186 49.644 54.4571C49.5717 55.2314 49.0374 55.875 48.0596 56.4004C47.0808 56.9249 45.7986 57.1573 44.1913 57.1143C43.1785 57.0879 42.3256 56.9696 41.6292 56.7536C42.3092 56.1935 42.8862 55.5582 43.3603 54.8442C43.8322 54.1303 44.1847 53.298 44.4114 52.3466C44.3774 52.2945 44.3227 52.2929 44.2482 52.3425C43.9121 53.317 43.4906 54.1543 42.9847 54.855C42.4778 55.5565 41.9226 56.1621 41.315 56.6717C40.9318 56.5385 40.5748 56.3863 40.2409 56.2167C39.908 56.0463 39.6003 55.8577 39.3178 55.65C40.381 54.7996 40.9438 53.643 40.9701 52.1688C40.9734 51.9355 40.9504 51.684 40.9 51.411C40.8496 51.1396 40.7522 50.874 40.6077 50.6143C40.4631 50.3545 40.2617 50.1394 40.0033 49.9698C39.7438 49.801 39.4098 49.7158 38.9992 49.7158C38.5897 49.7158 38.2547 49.801 37.9963 49.9698C37.7368 50.1394 37.5353 50.3545 37.3908 50.6143C37.2474 50.874 37.1499 51.1396 37.0995 51.411C37.0481 51.684 37.0251 51.9355 37.0284 52.1688C37.0547 53.643 37.6174 54.7996 38.6806 55.65C38.3981 55.8577 38.0904 56.0463 37.7576 56.2167C37.4258 56.3863 37.0667 56.5385 36.6835 56.6717C36.0758 56.1621 35.5196 55.5574 35.0137 54.855C34.509 54.1543 34.0863 53.317 33.7513 52.3425C33.7119 52.292 33.6571 52.2929 33.5871 52.3466C33.8137 53.298 34.1663 54.1303 34.6393 54.8442C35.1123 55.5582 35.6904 56.1936 36.3703 56.7536C35.6729 56.9696 34.821 57.0879 33.8071 57.1143C32.1998 57.1574 30.9177 56.9249 29.9399 56.4004C28.9621 55.875 28.4267 55.2314 28.3545 54.4571C28.3139 54.0186 28.4344 53.6554 28.7169 53.3692C29.0005 53.0829 29.1417 52.9142 29.1362 52.862C29.134 52.8372 29.0968 52.8256 29.0246 52.8289C28.9523 52.8322 28.7563 52.9977 28.441 53.3245C28.1256 53.6521 27.991 54.036 28.0326 54.4744C28.0676 54.8351 28.2187 55.2025 28.4859 55.578C28.7519 55.9528 29.1187 56.2837 29.5841 56.5725C30.0472 56.8612 30.6286 57.087 31.3217 57.2541C32.0159 57.4213 32.813 57.4908 33.7195 57.4668C34.2418 57.4527 34.7542 57.408 35.2579 57.3344C35.7616 57.2599 36.2389 57.1557 36.6911 57.0208C37.2944 57.4792 37.9777 57.8746 38.7397 58.2105C37.5988 58.6514 36.3846 58.8831 35.0783 58.9087C33.3933 58.9435 31.9294 58.7226 30.6593 58.2328C29.3903 57.7439 28.1508 57.2062 26.9387 56.6188C25.7267 56.0306 24.4752 55.5143 23.1897 55.0701C21.9043 54.625 20.4415 54.4786 18.8298 54.6399C17.4699 54.7772 16.5349 55.0924 16.0312 55.5681C15.5275 56.0446 15.3425 56.5791 15.4651 57.1656Z" fill="#FFCA0D"/>
<path fill-rule="evenodd" clip-rule="evenodd" d="M41.0483 35.4194C40.665 35.5526 40.2993 35.704 39.9501 35.8736C39.5997 36.0432 39.2833 36.2318 39.0008 36.4386C38.7183 36.2318 38.4019 36.0432 38.0515 35.8736C37.7011 35.704 37.3354 35.5526 36.9533 35.4194C37.5916 34.9603 38.2727 34.5764 39.0008 34.2662C39.7278 34.5764 40.4099 34.9603 41.0483 35.4194ZM40.5326 40.1565C40.5347 40.3377 40.5107 40.5379 40.4581 40.7579C40.4056 40.9788 40.3256 41.179 40.2161 41.361C40.1088 41.5422 39.9523 41.6986 39.7497 41.8285C39.5471 41.9583 39.2964 42.0237 39.0008 42.0237C38.7041 42.0237 38.4544 41.9583 38.2519 41.8285C38.0493 41.6986 37.8938 41.5422 37.7843 41.361C37.6759 41.179 37.5949 40.9788 37.5434 40.7579C37.4909 40.5379 37.4657 40.3377 37.4679 40.1565C37.4854 38.8891 38.0077 37.8343 39.0008 36.9813C39.9939 37.8608 40.5161 38.9147 40.5326 40.1565ZM62.5349 35.1944C62.444 34.76 62.1834 34.4118 61.7553 34.1479C61.3283 33.8839 60.875 33.7789 60.391 33.8318C60.252 33.8475 60.0899 33.8715 59.9016 33.9046C59.8447 33.9154 59.7976 33.9261 59.7593 33.9377C59.5052 33.9865 59.318 34.1586 59.318 34.3654C59.318 34.6095 59.5797 34.8064 59.9027 34.8064C60.2257 34.8064 60.4863 34.6095 60.4863 34.3654C60.4863 34.2198 60.3932 34.0916 60.2498 34.0105C60.8509 33.9774 61.2932 34.0808 61.5779 34.3257C61.902 34.602 62.0991 34.9057 62.167 35.2382C62.2732 35.7487 62.1002 36.2211 61.6425 36.6521C61.1837 37.0831 60.3439 37.3669 59.1297 37.4893C57.6286 37.6399 56.2763 37.4843 55.0982 37.0335C53.9201 36.5818 52.731 36.0639 51.5354 35.4781C50.3408 34.8924 49.0663 34.3605 47.7119 33.8773C46.3564 33.3942 44.7491 33.1816 42.8614 33.2196C42.2111 33.232 41.5607 33.3131 40.9092 33.462C40.2577 33.6101 39.6227 33.8004 39.0008 34.0337C38.3789 33.8012 37.7427 33.6101 37.0912 33.462C36.4409 33.3131 35.7905 33.232 35.139 33.2196C33.8689 33.194 32.7313 33.2883 31.7174 33.5092C30.7013 33.7301 29.7695 34.0105 28.9199 34.3555C28.0691 34.7005 27.2512 35.0744 26.4651 35.4781C25.6789 35.8827 24.8972 36.25 24.1209 36.5818C23.3435 36.9135 22.5245 37.1733 21.665 37.3594C20.8066 37.5456 19.8726 37.5894 18.8719 37.4893C17.6565 37.3669 16.8178 37.0839 16.359 36.6521C15.9014 36.2211 15.7284 35.7487 15.8346 35.2382C15.9025 34.9057 16.0995 34.602 16.4225 34.3257C16.7028 34.0858 17.1331 33.9816 17.7156 34.0089C17.57 34.0891 17.4758 34.219 17.4758 34.3654C17.4758 34.6095 17.7375 34.8064 18.0594 34.8064C18.3824 34.8064 18.6441 34.6095 18.6441 34.3654C18.6441 34.195 18.516 34.0469 18.3288 33.9733C18.2872 33.9476 18.2116 33.9245 18.0999 33.9046C17.9116 33.8715 17.7485 33.8475 17.6105 33.8318C17.1255 33.7789 16.6722 33.8839 16.2452 34.1479C15.8181 34.4118 15.5576 34.76 15.4656 35.1944C15.3419 35.7809 15.528 36.3154 16.0317 36.7919C16.5353 37.2676 17.4704 37.5828 18.8313 37.7201C20.442 37.8814 21.9048 37.735 23.1902 37.2899C24.4767 36.8457 25.7282 36.3294 26.9403 35.7412C28.1524 35.1538 29.3918 34.6161 30.6608 34.1272C31.9298 33.6374 33.3948 33.4165 35.0788 33.4513C36.3861 33.4777 37.6004 33.7086 38.7413 34.1495C37.9792 34.4854 37.296 34.8808 36.6916 35.3392C36.2394 35.2043 35.762 35.1001 35.2584 35.0256C34.7547 34.952 34.2434 34.9073 33.72 34.8932C32.8134 34.8693 32.0163 34.9387 31.3232 35.1059C30.628 35.273 30.0498 35.4988 29.5845 35.7875C29.1192 36.0763 28.7535 36.4072 28.4863 36.782C28.2202 37.1576 28.0691 37.5249 28.0341 37.8856C27.9925 38.324 28.1272 38.7079 28.4414 39.0355C28.7568 39.3623 28.9538 39.5278 29.0261 39.5311C29.0984 39.5344 29.1356 39.5228 29.1378 39.498C29.1422 39.4458 29.002 39.2771 28.7184 38.9908C28.4348 38.7046 28.3155 38.3414 28.356 37.9029C28.4283 37.1286 28.9626 36.485 29.9404 35.9596C30.9192 35.4351 32.2014 35.2027 33.8087 35.2457C34.8215 35.2721 35.6744 35.3904 36.3708 35.6064C35.6908 36.1665 35.1138 36.8018 34.6397 37.5158C34.1678 38.2297 33.8153 39.062 33.5886 40.0134C33.6226 40.0655 33.6773 40.0671 33.7518 40.0175C34.0879 39.043 34.5094 38.2057 35.0153 37.505C35.5222 36.8035 36.0774 36.1979 36.685 35.6883C37.0682 35.8215 37.4252 35.9737 37.7591 36.1433C38.092 36.3137 38.3997 36.5023 38.6822 36.71C37.619 37.5604 37.0562 38.717 37.0299 40.1912C37.0266 40.4245 37.0496 40.676 37.1 40.949C37.1504 41.2204 37.2478 41.486 37.3923 41.7457C37.5369 42.0055 37.7383 42.2206 37.9967 42.3902C38.2562 42.559 38.5902 42.6442 39.0008 42.6442C39.4103 42.6442 39.7453 42.559 40.0037 42.3902C40.2632 42.2206 40.4647 42.0055 40.6092 41.7457C40.7526 41.486 40.8501 41.2204 40.9005 40.949C40.9519 40.676 40.9749 40.4245 40.9716 40.1912C40.9453 38.717 40.3826 37.5604 39.3194 36.71C39.6019 36.5023 39.9096 36.3137 40.2424 36.1433C40.5742 35.9737 40.9333 35.8215 41.3165 35.6883C41.9242 36.1979 42.4804 36.8026 42.9863 37.505C43.491 38.2057 43.9137 39.043 44.2487 40.0175C44.2881 40.068 44.3429 40.0671 44.4129 40.0134C44.1863 39.062 43.8337 38.2297 43.3607 37.5158C42.8877 36.8018 42.3096 36.1665 41.6297 35.6064C42.3271 35.3904 43.179 35.2721 44.1929 35.2457C45.8002 35.2027 47.0823 35.4351 48.0601 35.9596C49.0379 36.485 49.5733 37.1286 49.6455 37.9029C49.6861 38.3414 49.5656 38.7046 49.2831 38.9908C48.9995 39.2771 48.8583 39.4458 48.8638 39.498C48.866 39.5228 48.9032 39.5344 48.9754 39.5311C49.0477 39.5278 49.2437 39.3623 49.559 39.0355C49.8744 38.7079 50.009 38.324 49.9674 37.8856C49.9324 37.5249 49.7813 37.1576 49.5141 36.782C49.2481 36.4072 48.8813 36.0763 48.4159 35.7875C47.9528 35.4988 47.3714 35.273 46.6783 35.1059C45.9841 34.9387 45.187 34.8693 44.2805 34.8932C43.7582 34.9073 43.2458 34.952 42.7421 35.0256C42.2384 35.1001 41.7611 35.2043 41.3089 35.3392C40.7056 34.8808 40.0223 34.4854 39.2603 34.1495C40.4012 33.7086 41.6154 33.4769 42.9217 33.4513C44.6067 33.4165 46.0706 33.6374 47.3407 34.1272C48.6097 34.6161 49.8492 35.1538 51.0613 35.7412C52.2733 36.3294 53.5248 36.8457 54.8103 37.2899C56.0957 37.735 57.5585 37.8814 59.1702 37.7201C60.5301 37.5828 61.4651 37.2676 61.9688 36.7919C62.4725 36.3154 62.6575 35.7809 62.5349 35.1944Z" fill="#FFCA0D"/>
<path fill-rule="evenodd" clip-rule="evenodd" d="M36.9517 17.6536C37.335 17.5204 37.7007 17.369 38.0499 17.1995C38.4003 17.0299 38.7167 16.8412 38.9992 16.6344C39.2817 16.8412 39.5981 17.0299 39.9485 17.1995C40.2989 17.369 40.6646 17.5204 41.0467 17.6536C40.4084 18.1128 39.7273 18.4967 38.9992 18.8069C38.2722 18.4967 37.5901 18.1128 36.9517 17.6536ZM37.4674 12.9165C37.4652 12.7354 37.4893 12.5352 37.5419 12.3151C37.5944 12.0942 37.6744 11.894 37.7839 11.712C37.8912 11.5308 38.0477 11.3745 38.2503 11.2446C38.4529 11.1147 38.7036 11.0493 38.9992 11.0493C39.2959 11.0493 39.5456 11.1147 39.7481 11.2446C39.9507 11.3745 40.1062 11.5308 40.2157 11.712C40.3241 11.894 40.4051 12.0942 40.4566 12.3151C40.5091 12.5352 40.5343 12.7354 40.5321 12.9165C40.5146 14.184 39.9923 15.2388 38.9992 16.0917C38.0061 15.2123 37.4839 14.1583 37.4674 12.9165ZM15.4651 17.8787C15.556 18.313 15.8166 18.6613 16.2447 18.9252C16.6717 19.1891 17.125 19.2942 17.609 19.2412C17.748 19.2255 17.9101 19.2015 18.0984 19.1684C18.1553 19.1577 18.2024 19.1469 18.2407 19.1353C18.4948 19.0865 18.682 18.9144 18.682 18.7076C18.682 18.4636 18.4203 18.2667 18.0973 18.2667C17.7743 18.2667 17.5137 18.4636 17.5137 18.7076C17.5137 18.8532 17.6068 18.9814 17.7502 19.0625C17.1491 19.0956 16.7068 18.9922 16.4221 18.7473C16.098 18.471 15.9009 18.1674 15.833 17.8348C15.7268 17.3244 15.8998 16.852 16.3575 16.421C16.8163 15.9899 17.6561 15.7062 18.8703 15.5837C20.3714 15.4332 21.7237 15.5887 22.9018 16.0396C24.0799 16.4913 25.269 17.0092 26.4646 17.5949C27.6592 18.1806 28.9337 18.7126 30.2881 19.1957C31.6436 19.6789 33.2509 19.8915 35.1386 19.8534C35.7889 19.841 36.4393 19.7599 37.0908 19.611C37.7423 19.4629 38.3773 19.2727 38.9992 19.0394C39.6211 19.2718 40.2573 19.4629 40.9088 19.611C41.5591 19.7599 42.2095 19.841 42.861 19.8534C44.1311 19.8791 45.2687 19.7847 46.2826 19.5639C47.2987 19.343 48.2305 19.0625 49.0801 18.7175C49.9309 18.3726 50.7488 17.9986 51.5349 17.5949C52.3211 17.1904 53.1028 16.823 53.8791 16.4913C54.6565 16.1595 55.4755 15.8998 56.335 15.7136C57.1934 15.5275 58.1274 15.4836 59.1281 15.5837C60.3435 15.7062 61.1822 15.9891 61.641 16.421C62.0986 16.852 62.2716 17.3244 62.1654 17.8348C62.0975 18.1674 61.9005 18.471 61.5775 18.7473C61.2972 18.9872 60.8669 19.0915 60.2844 19.0642C60.43 18.9839 60.5242 18.854 60.5242 18.7076C60.5242 18.4636 60.2625 18.2667 59.9406 18.2667C59.6176 18.2667 59.3559 18.4636 59.3559 18.7076C59.3559 18.878 59.484 19.0261 59.6712 19.0997C59.7128 19.1254 59.7884 19.1486 59.9001 19.1684C60.0884 19.2015 60.2515 19.2255 60.3895 19.2412C60.8745 19.2942 61.3278 19.1891 61.7548 18.9252C62.1819 18.6613 62.4424 18.313 62.5344 17.8787C62.6581 17.2921 62.472 16.7577 61.9683 16.2812C61.4647 15.8055 60.5296 15.4903 59.1687 15.3529C57.558 15.1916 56.0952 15.338 54.8098 15.7831C53.5233 16.2274 52.2718 16.7436 51.0597 17.3318C49.8476 17.9192 48.6082 18.4569 47.3392 18.9459C46.0702 19.4356 44.6052 19.6565 42.9212 19.6218C41.6139 19.5953 40.3996 19.3645 39.2587 18.9235C40.0208 18.5877 40.704 18.1922 41.3084 17.7339C41.7606 17.8687 42.238 17.973 42.7416 18.0474C43.2453 18.1211 43.7566 18.1657 44.28 18.1798C45.1866 18.2038 45.9837 18.1343 46.6768 17.9672C47.372 17.8001 47.9502 17.5742 48.4155 17.2855C48.8808 16.9968 49.2465 16.6658 49.5137 16.2911C49.7798 15.9155 49.9309 15.5482 49.9659 15.1875C50.0075 14.749 49.8728 14.3651 49.5586 14.0375C49.2432 13.7107 49.0462 13.5453 48.9739 13.542C48.9016 13.5387 48.8644 13.5503 48.8622 13.5751C48.8578 13.6272 48.998 13.796 49.2816 14.0822C49.5652 14.3684 49.6845 14.7316 49.644 15.1701C49.5717 15.9444 49.0374 16.5881 48.0596 17.1134C47.0808 17.6379 45.7986 17.8704 44.1913 17.8274C43.1785 17.8009 42.3256 17.6826 41.6292 17.4667C42.3092 16.9066 42.8862 16.2712 43.3603 15.5573C43.8322 14.8433 44.1847 14.0111 44.4114 13.0597C44.3774 13.0075 44.3227 13.0059 44.2482 13.0555C43.9121 14.0301 43.4906 14.8673 42.9847 15.568C42.4778 16.2696 41.9226 16.8752 41.315 17.3848C40.9318 17.2516 40.5748 17.0993 40.2409 16.9298C39.908 16.7593 39.6003 16.5707 39.3178 16.3631C40.381 15.5126 40.9438 14.356 40.9701 12.8818C40.9734 12.6485 40.9504 12.397 40.9 12.124C40.8496 11.8526 40.7522 11.5871 40.6077 11.3273C40.4631 11.0675 40.2617 10.8524 40.0033 10.6828C39.7438 10.5141 39.4098 10.4289 38.9992 10.4289C38.5897 10.4289 38.2547 10.5141 37.9963 10.6828C37.7368 10.8524 37.5353 11.0675 37.3908 11.3273C37.2474 11.5871 37.1499 11.8526 37.0995 12.124C37.0481 12.397 37.0251 12.6485 37.0284 12.8818C37.0547 14.356 37.6174 15.5126 38.6806 16.3631C38.3981 16.5707 38.0904 16.7593 37.7576 16.9298C37.4258 17.0993 37.0667 17.2516 36.6835 17.3848C36.0758 16.8752 35.5196 16.2704 35.0137 15.568C34.509 14.8673 34.0863 14.0301 33.7513 13.0555C33.7119 13.0051 33.6571 13.0059 33.5871 13.0597C33.8137 14.0111 34.1663 14.8433 34.6393 15.5573C35.1123 16.2712 35.6904 16.9066 36.3703 17.4667C35.6729 17.6826 34.821 17.8009 33.8071 17.8274C32.1998 17.8704 30.9177 17.6379 29.9399 17.1134C28.9621 16.5881 28.4267 15.9444 28.3545 15.1701C28.3139 14.7316 28.4344 14.3684 28.7169 14.0822C29.0005 13.796 29.1417 13.6272 29.1362 13.5751C29.134 13.5503 29.0968 13.5387 29.0246 13.542C28.9523 13.5453 28.7563 13.7107 28.441 14.0375C28.1256 14.3651 27.991 14.749 28.0326 15.1875C28.0676 15.5482 28.2187 15.9155 28.4859 16.2911C28.7519 16.6658 29.1187 16.9968 29.5841 17.2855C30.0472 17.5742 30.6286 17.8001 31.3217 17.9672C32.0159 18.1343 32.813 18.2038 33.7195 18.1798C34.2418 18.1657 34.7542 18.1211 35.2579 18.0474C35.7616 17.973 36.2389 17.8687 36.6911 17.7339C37.2944 18.1922 37.9777 18.5877 38.7397 18.9235C37.5988 19.3645 36.3846 19.5961 35.0783 19.6218C33.3933 19.6565 31.9294 19.4356 30.6593 18.9459C29.3903 18.4569 28.1508 17.9192 26.9387 17.3318C25.7267 16.7436 24.4752 16.2274 23.1897 15.7831C21.9043 15.338 20.4415 15.1916 18.8298 15.3529C17.4699 15.4903 16.5349 15.8055 16.0312 16.2812C15.5275 16.7577 15.3425 17.2921 15.4651 17.8787Z" fill="#FFCA0D"/>
</g>
<g filter="url(#filter3_d)">
<rect x="12.5" y="3.5" width="61" height="85.36" rx="2.5" fill="#A23411" stroke="white" stroke-width="5"/>
<rect x="13.9286" y="4.9287" width="58.1429" height="82.5026" fill="#B8350C"/>
<path fill-rule="evenodd" clip-rule="evenodd" d="M45.0483 74.7064C44.665 74.8396 44.2993 74.9909 43.9501 75.1605C43.5997 75.3301 43.2833 75.5188 43.0008 75.7256C42.7183 75.5188 42.4019 75.3301 42.0515 75.1605C41.7011 74.9909 41.3354 74.8396 40.9533 74.7064C41.5916 74.2472 42.2727 73.8633 43.0008 73.5531C43.7278 73.8633 44.4099 74.2472 45.0483 74.7064ZM44.5326 79.4435C44.5347 79.6246 44.5107 79.8248 44.4581 80.0449C44.4056 80.2658 44.3256 80.466 44.2161 80.648C44.1088 80.8292 43.9523 80.9855 43.7497 81.1154C43.5471 81.2453 43.2964 81.3107 43.0008 81.3107C42.7041 81.3107 42.4544 81.2453 42.2519 81.1154C42.0493 80.9855 41.8938 80.8292 41.7843 80.648C41.6759 80.466 41.5949 80.2658 41.5434 80.0449C41.4909 79.8248 41.4657 79.6246 41.4679 79.4435C41.4854 78.176 42.0077 77.1212 43.0008 76.2683C43.9939 77.1477 44.5161 78.2017 44.5326 79.4435ZM66.5349 74.4813C66.444 74.047 66.1834 73.6987 65.7553 73.4348C65.3283 73.1709 64.875 73.0658 64.391 73.1188C64.252 73.1345 64.0899 73.1585 63.9016 73.1916C63.8447 73.2023 63.7976 73.2131 63.7593 73.2247C63.5052 73.2735 63.318 73.4456 63.318 73.6524C63.318 73.8964 63.5797 74.0933 63.9027 74.0933C64.2257 74.0933 64.4863 73.8964 64.4863 73.6524C64.4863 73.5068 64.3932 73.3786 64.2498 73.2975C64.8509 73.2644 65.2932 73.3678 65.5779 73.6127C65.902 73.889 66.0991 74.1926 66.167 74.5252C66.2732 75.0356 66.1002 75.508 65.6425 75.939C65.1837 76.3701 64.3439 76.6538 63.1297 76.7763C61.6286 76.9268 60.2763 76.7713 59.0982 76.3204C57.9201 75.8687 56.731 75.3508 55.5354 74.7651C54.3408 74.1794 53.0663 73.6474 51.7119 73.1643C50.3564 72.6811 48.7491 72.4685 46.8614 72.5066C46.2111 72.519 45.5607 72.6001 44.9092 72.749C44.2577 72.8971 43.6227 73.0873 43.0008 73.3206C42.3789 73.0882 41.7427 72.8971 41.0912 72.749C40.4409 72.6001 39.7905 72.519 39.139 72.5066C37.8689 72.4809 36.7313 72.5752 35.7174 72.7961C34.7013 73.017 33.7695 73.2975 32.9199 73.6425C32.0691 73.9874 31.2512 74.3614 30.4651 74.7651C29.6789 75.1696 28.8972 75.537 28.1209 75.8687C27.3435 76.2005 26.5245 76.4602 25.665 76.6464C24.8066 76.8325 23.8726 76.8764 22.8719 76.7763C21.6565 76.6538 20.8178 76.3709 20.359 75.939C19.9014 75.508 19.7284 75.0356 19.8346 74.5252C19.9025 74.1926 20.0995 73.889 20.4225 73.6127C20.7028 73.3728 21.1331 73.2685 21.7156 73.2958C21.57 73.3761 21.4758 73.506 21.4758 73.6524C21.4758 73.8964 21.7375 74.0933 22.0594 74.0933C22.3824 74.0933 22.6441 73.8964 22.6441 73.6524C22.6441 73.482 22.516 73.3339 22.3288 73.2602C22.2872 73.2346 22.2116 73.2114 22.0999 73.1916C21.9116 73.1585 21.7485 73.1345 21.6105 73.1188C21.1255 73.0658 20.6722 73.1709 20.2452 73.4348C19.8181 73.6987 19.5576 74.047 19.4656 74.4813C19.3419 75.0679 19.528 75.6023 20.0317 76.0788C20.5353 76.5545 21.4704 76.8697 22.8313 77.0071C24.442 77.1684 25.9048 77.022 27.1902 76.5769C28.4767 76.1326 29.7282 75.6164 30.9403 75.0282C32.1524 74.4408 33.3918 73.9031 34.6608 73.4141C35.9298 72.9244 37.3948 72.7035 39.0788 72.7382C40.3861 72.7647 41.6004 72.9955 42.7413 73.4365C41.9792 73.7723 41.296 74.1678 40.6916 74.6261C40.2394 74.4913 39.762 74.387 39.2584 74.3126C38.7547 74.2389 38.2434 74.1943 37.72 74.1802C36.8134 74.1562 36.0163 74.2257 35.3232 74.3928C34.628 74.5599 34.0498 74.7858 33.5845 75.0745C33.1192 75.3632 32.7535 75.6942 32.4863 76.0689C32.2202 76.4445 32.0691 76.8118 32.0341 77.1725C31.9925 77.611 32.1272 77.9949 32.4414 78.3225C32.7568 78.6492 32.9538 78.8147 33.0261 78.818C33.0984 78.8213 33.1356 78.8097 33.1378 78.7849C33.1422 78.7328 33.002 78.564 32.7184 78.2778C32.4348 77.9915 32.3155 77.6284 32.356 77.1899C32.4283 76.4156 32.9626 75.7719 33.9404 75.2466C34.9192 74.7221 36.2014 74.4896 37.8087 74.5326C38.8215 74.5591 39.6744 74.6774 40.3708 74.8933C39.6908 75.4534 39.1138 76.0888 38.6397 76.8027C38.1678 77.5167 37.8153 78.3489 37.5886 79.3003C37.6226 79.3524 37.6773 79.3541 37.7518 79.3045C38.0879 78.3299 38.5094 77.4927 39.0153 76.792C39.5222 76.0904 40.0774 75.4848 40.685 74.9752C41.0682 75.1084 41.4252 75.2606 41.7591 75.4302C42.092 75.6007 42.3997 75.7893 42.6822 75.9969C41.619 76.8474 41.0562 78.004 41.0299 79.4782C41.0266 79.7115 41.0496 79.963 41.1 80.236C41.1504 80.5074 41.2478 80.7729 41.3923 81.0327C41.5369 81.2925 41.7383 81.5076 41.9967 81.6771C42.2562 81.8459 42.5902 81.9311 43.0008 81.9311C43.4103 81.9311 43.7453 81.8459 44.0037 81.6771C44.2632 81.5076 44.4647 81.2925 44.6092 81.0327C44.7526 80.7729 44.8501 80.5074 44.9005 80.236C44.9519 79.963 44.9749 79.7115 44.9716 79.4782C44.9453 78.004 44.3826 76.8474 43.3194 75.9969C43.6019 75.7893 43.9096 75.6007 44.2424 75.4302C44.5742 75.2606 44.9333 75.1084 45.3165 74.9752C45.9242 75.4848 46.4804 76.0896 46.9863 76.792C47.491 77.4927 47.9137 78.3299 48.2487 79.3045C48.2881 79.3549 48.3429 79.3541 48.4129 79.3003C48.1863 78.3489 47.8337 77.5167 47.3607 76.8027C46.8877 76.0888 46.3096 75.4534 45.6297 74.8933C46.3271 74.6774 47.179 74.5591 48.1929 74.5326C49.8002 74.4896 51.0823 74.7221 52.0601 75.2466C53.0379 75.7719 53.5733 76.4156 53.6455 77.1899C53.6861 77.6284 53.5656 77.9915 53.2831 78.2778C52.9995 78.564 52.8583 78.7328 52.8638 78.7849C52.866 78.8097 52.9032 78.8213 52.9754 78.818C53.0477 78.8147 53.2437 78.6492 53.559 78.3225C53.8744 77.9949 54.009 77.611 53.9674 77.1725C53.9324 76.8118 53.7813 76.4445 53.5141 76.0689C53.2481 75.6942 52.8813 75.3632 52.4159 75.0745C51.9528 74.7858 51.3714 74.5599 50.6783 74.3928C49.9841 74.2257 49.187 74.1562 48.2805 74.1802C47.7582 74.1943 47.2458 74.2389 46.7421 74.3126C46.2384 74.387 45.7611 74.4913 45.3089 74.6261C44.7056 74.1678 44.0223 73.7723 43.2603 73.4365C44.4012 72.9955 45.6154 72.7639 46.9217 72.7382C48.6067 72.7035 50.0706 72.9244 51.3407 73.4141C52.6097 73.9031 53.8492 74.4408 55.0613 75.0282C56.2733 75.6164 57.5248 76.1326 58.8103 76.5769C60.0957 77.022 61.5585 77.1684 63.1702 77.0071C64.5301 76.8697 65.4651 76.5545 65.9688 76.0788C66.4725 75.6023 66.6575 75.0679 66.5349 74.4813Z" fill="#FFCA0D"/>
<path fill-rule="evenodd" clip-rule="evenodd" d="M40.9517 56.9406C41.335 56.8074 41.7007 56.656 42.0499 56.4864C42.4003 56.3168 42.7167 56.1282 42.9992 55.9214C43.2817 56.1282 43.5981 56.3168 43.9485 56.4864C44.2989 56.656 44.6646 56.8074 45.0467 56.9406C44.4084 57.3997 43.7273 57.7836 42.9992 58.0938C42.2722 57.7836 41.5901 57.3997 40.9517 56.9406ZM41.4674 52.2035C41.4652 52.0223 41.4893 51.8221 41.5419 51.6021C41.5944 51.3812 41.6744 51.181 41.7839 50.999C41.8912 50.8178 42.0477 50.6614 42.2503 50.5315C42.4529 50.4017 42.7036 50.3363 42.9992 50.3363C43.2959 50.3363 43.5456 50.4017 43.7481 50.5315C43.9507 50.6614 44.1062 50.8178 44.2157 50.999C44.3241 51.181 44.4051 51.3812 44.4566 51.6021C44.5091 51.8221 44.5343 52.0223 44.5321 52.2035C44.5146 53.4709 43.9923 54.5257 42.9992 55.3787C42.0061 54.4992 41.4839 53.4453 41.4674 52.2035ZM19.4651 57.1656C19.556 57.6 19.8166 57.9482 20.2447 58.2122C20.6717 58.4761 21.125 58.5811 21.609 58.5282C21.748 58.5125 21.9101 58.4885 22.0984 58.4554C22.1553 58.4446 22.2024 58.4339 22.2407 58.4223C22.4948 58.3735 22.682 58.2014 22.682 57.9946C22.682 57.7505 22.4203 57.5536 22.0973 57.5536C21.7743 57.5536 21.5137 57.7505 21.5137 57.9946C21.5137 58.1402 21.6068 58.2684 21.7502 58.3495C21.1491 58.3826 20.7068 58.2792 20.4221 58.0343C20.098 57.758 19.9009 57.4544 19.833 57.1218C19.7268 56.6113 19.8998 56.139 20.3575 55.7079C20.8163 55.2769 21.6561 54.9931 22.8703 54.8707C24.3714 54.7201 25.7237 54.8757 26.9018 55.3265C28.0799 55.7782 29.269 56.2961 30.4646 56.8819C31.6592 57.4676 32.9337 57.9995 34.2881 58.4827C35.6436 58.9658 37.2509 59.1784 39.1386 59.1404C39.7889 59.128 40.4393 59.0469 41.0908 58.898C41.7423 58.7499 42.3773 58.5596 42.9992 58.3263C43.6211 58.5588 44.2573 58.7499 44.9088 58.898C45.5591 59.0469 46.2095 59.128 46.861 59.1404C48.1311 59.166 49.2687 59.0717 50.2826 58.8508C51.2987 58.6299 52.2305 58.3495 53.0801 58.0045C53.9309 57.6595 54.7488 57.2856 55.5349 56.8819C56.3211 56.4773 57.1028 56.11 57.8791 55.7782C58.6565 55.4465 59.4755 55.1867 60.335 55.0006C61.1934 54.8144 62.1274 54.7706 63.1281 54.8707C64.3435 54.9931 65.1822 55.2761 65.641 55.7079C66.0986 56.1389 66.2716 56.6113 66.1654 57.1218C66.0975 57.4543 65.9005 57.758 65.5775 58.0343C65.2972 58.2742 64.8669 58.3784 64.2844 58.3511C64.43 58.2709 64.5242 58.141 64.5242 57.9946C64.5242 57.7505 64.2625 57.5536 63.9406 57.5536C63.6176 57.5536 63.3559 57.7505 63.3559 57.9946C63.3559 58.165 63.484 58.3131 63.6712 58.3867C63.7128 58.4124 63.7884 58.4355 63.9001 58.4554C64.0884 58.4885 64.2515 58.5125 64.3895 58.5282C64.8745 58.5811 65.3278 58.4761 65.7548 58.2121C66.1819 57.9482 66.4424 57.6 66.5344 57.1656C66.6581 56.5791 66.472 56.0446 65.9683 55.5681C65.4647 55.0924 64.5296 54.7772 63.1687 54.6399C61.558 54.4786 60.0952 54.625 58.8098 55.0701C57.5233 55.5143 56.2718 56.0306 55.0597 56.6188C53.8476 57.2062 52.6082 57.7439 51.3392 58.2328C50.0702 58.7226 48.6052 58.9435 46.9212 58.9087C45.6139 58.8823 44.3996 58.6514 43.2587 58.2105C44.0208 57.8746 44.704 57.4792 45.3084 57.0208C45.7606 57.1557 46.238 57.2599 46.7416 57.3344C47.2453 57.408 47.7566 57.4527 48.28 57.4668C49.1866 57.4907 49.9837 57.4213 50.6768 57.2541C51.372 57.087 51.9502 56.8612 52.4155 56.5725C52.8808 56.2837 53.2465 55.9528 53.5137 55.578C53.7798 55.2024 53.9309 54.8351 53.9659 54.4744C54.0075 54.036 53.8728 53.6521 53.5586 53.3245C53.2432 52.9977 53.0462 52.8322 52.9739 52.8289C52.9016 52.8256 52.8644 52.8372 52.8622 52.862C52.8578 52.9142 52.998 53.0829 53.2816 53.3692C53.5652 53.6554 53.6845 54.0186 53.644 54.4571C53.5717 55.2314 53.0374 55.875 52.0596 56.4004C51.0808 56.9249 49.7986 57.1573 48.1913 57.1143C47.1785 57.0879 46.3256 56.9696 45.6292 56.7536C46.3092 56.1935 46.8862 55.5582 47.3603 54.8442C47.8322 54.1303 48.1847 53.298 48.4114 52.3466C48.3774 52.2945 48.3227 52.2929 48.2482 52.3425C47.9121 53.317 47.4906 54.1543 46.9847 54.855C46.4778 55.5565 45.9226 56.1621 45.315 56.6717C44.9318 56.5385 44.5748 56.3863 44.2409 56.2167C43.908 56.0463 43.6003 55.8577 43.3178 55.65C44.381 54.7996 44.9438 53.643 44.9701 52.1688C44.9734 51.9355 44.9504 51.684 44.9 51.411C44.8496 51.1396 44.7522 50.874 44.6077 50.6143C44.4631 50.3545 44.2617 50.1394 44.0033 49.9698C43.7438 49.801 43.4098 49.7158 42.9992 49.7158C42.5897 49.7158 42.2547 49.801 41.9963 49.9698C41.7368 50.1394 41.5353 50.3545 41.3908 50.6143C41.2474 50.874 41.1499 51.1396 41.0995 51.411C41.0481 51.684 41.0251 51.9355 41.0284 52.1688C41.0547 53.643 41.6174 54.7996 42.6806 55.65C42.3981 55.8577 42.0904 56.0463 41.7576 56.2167C41.4258 56.3863 41.0667 56.5385 40.6835 56.6717C40.0758 56.1621 39.5196 55.5574 39.0137 54.855C38.509 54.1543 38.0863 53.317 37.7513 52.3425C37.7119 52.292 37.6571 52.2929 37.5871 52.3466C37.8137 53.298 38.1663 54.1303 38.6393 54.8442C39.1123 55.5582 39.6904 56.1936 40.3703 56.7536C39.6729 56.9696 38.821 57.0879 37.8071 57.1143C36.1998 57.1574 34.9177 56.9249 33.9399 56.4004C32.9621 55.875 32.4267 55.2314 32.3545 54.4571C32.3139 54.0186 32.4344 53.6554 32.7169 53.3692C33.0005 53.0829 33.1417 52.9142 33.1362 52.862C33.134 52.8372 33.0968 52.8256 33.0246 52.8289C32.9523 52.8322 32.7563 52.9977 32.441 53.3245C32.1256 53.6521 31.991 54.036 32.0326 54.4744C32.0676 54.8351 32.2187 55.2025 32.4859 55.578C32.7519 55.9528 33.1187 56.2837 33.5841 56.5725C34.0472 56.8612 34.6286 57.087 35.3217 57.2541C36.0159 57.4213 36.813 57.4908 37.7195 57.4668C38.2418 57.4527 38.7542 57.408 39.2579 57.3344C39.7616 57.2599 40.2389 57.1557 40.6911 57.0208C41.2944 57.4792 41.9777 57.8746 42.7397 58.2105C41.5988 58.6514 40.3846 58.8831 39.0783 58.9087C37.3933 58.9435 35.9294 58.7226 34.6593 58.2328C33.3903 57.7439 32.1508 57.2062 30.9387 56.6188C29.7267 56.0306 28.4752 55.5143 27.1897 55.0701C25.9043 54.625 24.4415 54.4786 22.8298 54.6399C21.4699 54.7772 20.5349 55.0924 20.0312 55.5681C19.5275 56.0446 19.3425 56.5791 19.4651 57.1656Z" fill="#FFCA0D"/>
<path fill-rule="evenodd" clip-rule="evenodd" d="M45.0483 35.4194C44.665 35.5526 44.2993 35.704 43.9501 35.8736C43.5997 36.0432 43.2833 36.2318 43.0008 36.4386C42.7183 36.2318 42.4019 36.0432 42.0515 35.8736C41.7011 35.704 41.3354 35.5526 40.9533 35.4194C41.5916 34.9603 42.2727 34.5764 43.0008 34.2662C43.7278 34.5764 44.4099 34.9603 45.0483 35.4194ZM44.5326 40.1565C44.5347 40.3377 44.5107 40.5379 44.4581 40.7579C44.4056 40.9788 44.3256 41.179 44.2161 41.361C44.1088 41.5422 43.9523 41.6986 43.7497 41.8285C43.5471 41.9583 43.2964 42.0237 43.0008 42.0237C42.7041 42.0237 42.4544 41.9583 42.2519 41.8285C42.0493 41.6986 41.8938 41.5422 41.7843 41.361C41.6759 41.179 41.5949 40.9788 41.5434 40.7579C41.4909 40.5379 41.4657 40.3377 41.4679 40.1565C41.4854 38.8891 42.0077 37.8343 43.0008 36.9813C43.9939 37.8608 44.5161 38.9147 44.5326 40.1565ZM66.5349 35.1944C66.444 34.76 66.1834 34.4118 65.7553 34.1479C65.3283 33.8839 64.875 33.7789 64.391 33.8318C64.252 33.8475 64.0899 33.8715 63.9016 33.9046C63.8447 33.9154 63.7976 33.9261 63.7593 33.9377C63.5052 33.9865 63.318 34.1586 63.318 34.3654C63.318 34.6095 63.5797 34.8064 63.9027 34.8064C64.2257 34.8064 64.4863 34.6095 64.4863 34.3654C64.4863 34.2198 64.3932 34.0916 64.2498 34.0105C64.8509 33.9774 65.2932 34.0808 65.5779 34.3257C65.902 34.602 66.0991 34.9057 66.167 35.2382C66.2732 35.7487 66.1002 36.2211 65.6425 36.6521C65.1837 37.0831 64.3439 37.3669 63.1297 37.4893C61.6286 37.6399 60.2763 37.4843 59.0982 37.0335C57.9201 36.5818 56.731 36.0639 55.5354 35.4781C54.3408 34.8924 53.0663 34.3605 51.7119 33.8773C50.3564 33.3942 48.7491 33.1816 46.8614 33.2196C46.2111 33.232 45.5607 33.3131 44.9092 33.462C44.2577 33.6101 43.6227 33.8004 43.0008 34.0337C42.3789 33.8012 41.7427 33.6101 41.0912 33.462C40.4409 33.3131 39.7905 33.232 39.139 33.2196C37.8689 33.194 36.7313 33.2883 35.7174 33.5092C34.7013 33.7301 33.7695 34.0105 32.9199 34.3555C32.0691 34.7005 31.2512 35.0744 30.4651 35.4781C29.6789 35.8827 28.8972 36.25 28.1209 36.5818C27.3435 36.9135 26.5245 37.1733 25.665 37.3594C24.8066 37.5456 23.8726 37.5894 22.8719 37.4893C21.6565 37.3669 20.8178 37.0839 20.359 36.6521C19.9014 36.2211 19.7284 35.7487 19.8346 35.2382C19.9025 34.9057 20.0995 34.602 20.4225 34.3257C20.7028 34.0858 21.1331 33.9816 21.7156 34.0089C21.57 34.0891 21.4758 34.219 21.4758 34.3654C21.4758 34.6095 21.7375 34.8064 22.0594 34.8064C22.3824 34.8064 22.6441 34.6095 22.6441 34.3654C22.6441 34.195 22.516 34.0469 22.3288 33.9733C22.2872 33.9476 22.2116 33.9245 22.0999 33.9046C21.9116 33.8715 21.7485 33.8475 21.6105 33.8318C21.1255 33.7789 20.6722 33.8839 20.2452 34.1479C19.8181 34.4118 19.5576 34.76 19.4656 35.1944C19.3419 35.7809 19.528 36.3154 20.0317 36.7919C20.5353 37.2676 21.4704 37.5828 22.8313 37.7201C24.442 37.8814 25.9048 37.735 27.1902 37.2899C28.4767 36.8457 29.7282 36.3294 30.9403 35.7412C32.1524 35.1538 33.3918 34.6161 34.6608 34.1272C35.9298 33.6374 37.3948 33.4165 39.0788 33.4513C40.3861 33.4777 41.6004 33.7086 42.7413 34.1495C41.9792 34.4854 41.296 34.8808 40.6916 35.3392C40.2394 35.2043 39.762 35.1001 39.2584 35.0256C38.7547 34.952 38.2434 34.9073 37.72 34.8932C36.8134 34.8693 36.0163 34.9387 35.3232 35.1059C34.628 35.273 34.0498 35.4988 33.5845 35.7875C33.1192 36.0763 32.7535 36.4072 32.4863 36.782C32.2202 37.1576 32.0691 37.5249 32.0341 37.8856C31.9925 38.324 32.1272 38.7079 32.4414 39.0355C32.7568 39.3623 32.9538 39.5278 33.0261 39.5311C33.0984 39.5344 33.1356 39.5228 33.1378 39.498C33.1422 39.4458 33.002 39.2771 32.7184 38.9908C32.4348 38.7046 32.3155 38.3414 32.356 37.9029C32.4283 37.1286 32.9626 36.485 33.9404 35.9596C34.9192 35.4351 36.2014 35.2027 37.8087 35.2457C38.8215 35.2721 39.6744 35.3904 40.3708 35.6064C39.6908 36.1665 39.1138 36.8018 38.6397 37.5158C38.1678 38.2297 37.8153 39.062 37.5886 40.0134C37.6226 40.0655 37.6773 40.0671 37.7518 40.0175C38.0879 39.043 38.5094 38.2057 39.0153 37.505C39.5222 36.8035 40.0774 36.1979 40.685 35.6883C41.0682 35.8215 41.4252 35.9737 41.7591 36.1433C42.092 36.3137 42.3997 36.5023 42.6822 36.71C41.619 37.5604 41.0562 38.717 41.0299 40.1912C41.0266 40.4245 41.0496 40.676 41.1 40.949C41.1504 41.2204 41.2478 41.486 41.3923 41.7457C41.5369 42.0055 41.7383 42.2206 41.9967 42.3902C42.2562 42.559 42.5902 42.6442 43.0008 42.6442C43.4103 42.6442 43.7453 42.559 44.0037 42.3902C44.2632 42.2206 44.4647 42.0055 44.6092 41.7457C44.7526 41.486 44.8501 41.2204 44.9005 40.949C44.9519 40.676 44.9749 40.4245 44.9716 40.1912C44.9453 38.717 44.3826 37.5604 43.3194 36.71C43.6019 36.5023 43.9096 36.3137 44.2424 36.1433C44.5742 35.9737 44.9333 35.8215 45.3165 35.6883C45.9242 36.1979 46.4804 36.8026 46.9863 37.505C47.491 38.2057 47.9137 39.043 48.2487 40.0175C48.2881 40.068 48.3429 40.0671 48.4129 40.0134C48.1863 39.062 47.8337 38.2297 47.3607 37.5158C46.8877 36.8018 46.3096 36.1665 45.6297 35.6064C46.3271 35.3904 47.179 35.2721 48.1929 35.2457C49.8002 35.2027 51.0823 35.4351 52.0601 35.9596C53.0379 36.485 53.5733 37.1286 53.6455 37.9029C53.6861 38.3414 53.5656 38.7046 53.2831 38.9908C52.9995 39.2771 52.8583 39.4458 52.8638 39.498C52.866 39.5228 52.9032 39.5344 52.9754 39.5311C53.0477 39.5278 53.2437 39.3623 53.559 39.0355C53.8744 38.7079 54.009 38.324 53.9674 37.8856C53.9324 37.5249 53.7813 37.1576 53.5141 36.782C53.2481 36.4072 52.8813 36.0763 52.4159 35.7875C51.9528 35.4988 51.3714 35.273 50.6783 35.1059C49.9841 34.9387 49.187 34.8693 48.2805 34.8932C47.7582 34.9073 47.2458 34.952 46.7421 35.0256C46.2384 35.1001 45.7611 35.2043 45.3089 35.3392C44.7056 34.8808 44.0223 34.4854 43.2603 34.1495C44.4012 33.7086 45.6154 33.4769 46.9217 33.4513C48.6067 33.4165 50.0706 33.6374 51.3407 34.1272C52.6097 34.6161 53.8492 35.1538 55.0613 35.7412C56.2733 36.3294 57.5248 36.8457 58.8103 37.2899C60.0957 37.735 61.5585 37.8814 63.1702 37.7201C64.5301 37.5828 65.4651 37.2676 65.9688 36.7919C66.4725 36.3154 66.6575 35.7809 66.5349 35.1944Z" fill="#FFCA0D"/>
<path fill-rule="evenodd" clip-rule="evenodd" d="M40.9517 17.6536C41.335 17.5204 41.7007 17.369 42.0499 17.1995C42.4003 17.0299 42.7167 16.8412 42.9992 16.6344C43.2817 16.8412 43.5981 17.0299 43.9485 17.1995C44.2989 17.369 44.6646 17.5204 45.0467 17.6536C44.4084 18.1128 43.7273 18.4967 42.9992 18.8069C42.2722 18.4967 41.5901 18.1128 40.9517 17.6536ZM41.4674 12.9165C41.4652 12.7354 41.4893 12.5352 41.5419 12.3151C41.5944 12.0942 41.6744 11.894 41.7839 11.712C41.8912 11.5308 42.0477 11.3745 42.2503 11.2446C42.4529 11.1147 42.7036 11.0493 42.9992 11.0493C43.2959 11.0493 43.5456 11.1147 43.7481 11.2446C43.9507 11.3745 44.1062 11.5308 44.2157 11.712C44.3241 11.894 44.4051 12.0942 44.4566 12.3151C44.5091 12.5352 44.5343 12.7354 44.5321 12.9165C44.5146 14.184 43.9923 15.2388 42.9992 16.0917C42.0061 15.2123 41.4839 14.1583 41.4674 12.9165ZM19.4651 17.8787C19.556 18.313 19.8166 18.6613 20.2447 18.9252C20.6717 19.1891 21.125 19.2942 21.609 19.2412C21.748 19.2255 21.9101 19.2015 22.0984 19.1684C22.1553 19.1577 22.2024 19.1469 22.2407 19.1353C22.4948 19.0865 22.682 18.9144 22.682 18.7076C22.682 18.4636 22.4203 18.2667 22.0973 18.2667C21.7743 18.2667 21.5137 18.4636 21.5137 18.7076C21.5137 18.8532 21.6068 18.9814 21.7502 19.0625C21.1491 19.0956 20.7068 18.9922 20.4221 18.7473C20.098 18.471 19.9009 18.1674 19.833 17.8348C19.7268 17.3244 19.8998 16.852 20.3575 16.421C20.8163 15.9899 21.6561 15.7062 22.8703 15.5837C24.3714 15.4332 25.7237 15.5887 26.9018 16.0396C28.0799 16.4913 29.269 17.0092 30.4646 17.5949C31.6592 18.1806 32.9337 18.7126 34.2881 19.1957C35.6436 19.6789 37.2509 19.8915 39.1386 19.8534C39.7889 19.841 40.4393 19.7599 41.0908 19.611C41.7423 19.4629 42.3773 19.2727 42.9992 19.0394C43.6211 19.2718 44.2573 19.4629 44.9088 19.611C45.5591 19.7599 46.2095 19.841 46.861 19.8534C48.1311 19.8791 49.2687 19.7847 50.2826 19.5639C51.2987 19.343 52.2305 19.0625 53.0801 18.7175C53.9309 18.3726 54.7488 17.9986 55.5349 17.5949C56.3211 17.1904 57.1028 16.823 57.8791 16.4913C58.6565 16.1595 59.4755 15.8998 60.335 15.7136C61.1934 15.5275 62.1274 15.4836 63.1281 15.5837C64.3435 15.7062 65.1822 15.9891 65.641 16.421C66.0986 16.852 66.2716 17.3244 66.1654 17.8348C66.0975 18.1674 65.9005 18.471 65.5775 18.7473C65.2972 18.9872 64.8669 19.0915 64.2844 19.0642C64.43 18.9839 64.5242 18.854 64.5242 18.7076C64.5242 18.4636 64.2625 18.2667 63.9406 18.2667C63.6176 18.2667 63.3559 18.4636 63.3559 18.7076C63.3559 18.878 63.484 19.0261 63.6712 19.0997C63.7128 19.1254 63.7884 19.1486 63.9001 19.1684C64.0884 19.2015 64.2515 19.2255 64.3895 19.2412C64.8745 19.2942 65.3278 19.1891 65.7548 18.9252C66.1819 18.6613 66.4424 18.313 66.5344 17.8787C66.6581 17.2921 66.472 16.7577 65.9683 16.2812C65.4647 15.8055 64.5296 15.4903 63.1687 15.3529C61.558 15.1916 60.0952 15.338 58.8098 15.7831C57.5233 16.2274 56.2718 16.7436 55.0597 17.3318C53.8476 17.9192 52.6082 18.4569 51.3392 18.9459C50.0702 19.4356 48.6052 19.6565 46.9212 19.6218C45.6139 19.5953 44.3996 19.3645 43.2587 18.9235C44.0208 18.5877 44.704 18.1922 45.3084 17.7339C45.7606 17.8687 46.238 17.973 46.7416 18.0474C47.2453 18.1211 47.7566 18.1657 48.28 18.1798C49.1866 18.2038 49.9837 18.1343 50.6768 17.9672C51.372 17.8001 51.9502 17.5742 52.4155 17.2855C52.8808 16.9968 53.2465 16.6658 53.5137 16.2911C53.7798 15.9155 53.9309 15.5482 53.9659 15.1875C54.0075 14.749 53.8728 14.3651 53.5586 14.0375C53.2432 13.7107 53.0462 13.5453 52.9739 13.542C52.9016 13.5387 52.8644 13.5503 52.8622 13.5751C52.8578 13.6272 52.998 13.796 53.2816 14.0822C53.5652 14.3684 53.6845 14.7316 53.644 15.1701C53.5717 15.9444 53.0374 16.5881 52.0596 17.1134C51.0808 17.6379 49.7986 17.8704 48.1913 17.8274C47.1785 17.8009 46.3256 17.6826 45.6292 17.4667C46.3092 16.9066 46.8862 16.2712 47.3603 15.5573C47.8322 14.8433 48.1847 14.0111 48.4114 13.0597C48.3774 13.0075 48.3227 13.0059 48.2482 13.0555C47.9121 14.0301 47.4906 14.8673 46.9847 15.568C46.4778 16.2696 45.9226 16.8752 45.315 17.3848C44.9318 17.2516 44.5748 17.0993 44.2409 16.9298C43.908 16.7593 43.6003 16.5707 43.3178 16.3631C44.381 15.5126 44.9438 14.356 44.9701 12.8818C44.9734 12.6485 44.9504 12.397 44.9 12.124C44.8496 11.8526 44.7522 11.5871 44.6077 11.3273C44.4631 11.0675 44.2617 10.8524 44.0033 10.6828C43.7438 10.5141 43.4098 10.4289 42.9992 10.4289C42.5897 10.4289 42.2547 10.5141 41.9963 10.6828C41.7368 10.8524 41.5353 11.0675 41.3908 11.3273C41.2474 11.5871 41.1499 11.8526 41.0995 12.124C41.0481 12.397 41.0251 12.6485 41.0284 12.8818C41.0547 14.356 41.6174 15.5126 42.6806 16.3631C42.3981 16.5707 42.0904 16.7593 41.7576 16.9298C41.4258 17.0993 41.0667 17.2516 40.6835 17.3848C40.0758 16.8752 39.5196 16.2704 39.0137 15.568C38.509 14.8673 38.0863 14.0301 37.7513 13.0555C37.7119 13.0051 37.6571 13.0059 37.5871 13.0597C37.8137 14.0111 38.1663 14.8433 38.6393 15.5573C39.1123 16.2712 39.6904 16.9066 40.3703 17.4667C39.6729 17.6826 38.821 17.8009 37.8071 17.8274C36.1998 17.8704 34.9177 17.6379 33.9399 17.1134C32.9621 16.5881 32.4267 15.9444 32.3545 15.1701C32.3139 14.7316 32.4344 14.3684 32.7169 14.0822C33.0005 13.796 33.1417 13.6272 33.1362 13.5751C33.134 13.5503 33.0968 13.5387 33.0246 13.542C32.9523 13.5453 32.7563 13.7107 32.441 14.0375C32.1256 14.3651 31.991 14.749 32.0326 15.1875C32.0676 15.5482 32.2187 15.9155 32.4859 16.2911C32.7519 16.6658 33.1187 16.9968 33.5841 17.2855C34.0472 17.5742 34.6286 17.8001 35.3217 17.9672C36.0159 18.1343 36.813 18.2038 37.7195 18.1798C38.2418 18.1657 38.7542 18.1211 39.2579 18.0474C39.7616 17.973 40.2389 17.8687 40.6911 17.7339C41.2944 18.1922 41.9777 18.5877 42.7397 18.9235C41.5988 19.3645 40.3846 19.5961 39.0783 19.6218C37.3933 19.6565 35.9294 19.4356 34.6593 18.9459C33.3903 18.4569 32.1508 17.9192 30.9387 17.3318C29.7267 16.7436 28.4752 16.2274 27.1897 15.7831C25.9043 15.338 24.4415 15.1916 22.8298 15.3529C21.4699 15.4903 20.5349 15.8055 20.0312 16.2812C19.5275 16.7577 19.3425 17.2921 19.4651 17.8787Z" fill="#FFCA0D"/>
</g>
<g filter="url(#filter4_d)">
<rect x="16.5" y="3.5" width="61" height="85.36" rx="2.5" fill="#A23411" stroke="white" stroke-width="5"/>
<rect x="17.9286" y="4.9287" width="58.1429" height="82.5026" fill="#B8350C"/>
<path fill-rule="evenodd" clip-rule="evenodd" d="M49.0483 74.7064C48.665 74.8396 48.2993 74.9909 47.9501 75.1605C47.5997 75.3301 47.2833 75.5188 47.0008 75.7256C46.7183 75.5188 46.4019 75.3301 46.0515 75.1605C45.7011 74.9909 45.3354 74.8396 44.9533 74.7064C45.5916 74.2472 46.2727 73.8633 47.0008 73.5531C47.7278 73.8633 48.4099 74.2472 49.0483 74.7064ZM48.5326 79.4435C48.5347 79.6246 48.5107 79.8248 48.4581 80.0449C48.4056 80.2658 48.3256 80.466 48.2161 80.648C48.1088 80.8292 47.9523 80.9855 47.7497 81.1154C47.5471 81.2453 47.2964 81.3107 47.0008 81.3107C46.7041 81.3107 46.4544 81.2453 46.2519 81.1154C46.0493 80.9855 45.8938 80.8292 45.7843 80.648C45.6759 80.466 45.5949 80.2658 45.5434 80.0449C45.4909 79.8248 45.4657 79.6246 45.4679 79.4435C45.4854 78.176 46.0077 77.1212 47.0008 76.2683C47.9939 77.1477 48.5161 78.2017 48.5326 79.4435ZM70.5349 74.4813C70.444 74.047 70.1834 73.6987 69.7553 73.4348C69.3283 73.1709 68.875 73.0658 68.391 73.1188C68.252 73.1345 68.0899 73.1585 67.9016 73.1916C67.8447 73.2023 67.7976 73.2131 67.7593 73.2247C67.5052 73.2735 67.318 73.4456 67.318 73.6524C67.318 73.8964 67.5797 74.0933 67.9027 74.0933C68.2257 74.0933 68.4863 73.8964 68.4863 73.6524C68.4863 73.5068 68.3932 73.3786 68.2498 73.2975C68.8509 73.2644 69.2932 73.3678 69.5779 73.6127C69.902 73.889 70.0991 74.1926 70.167 74.5252C70.2732 75.0356 70.1002 75.508 69.6425 75.939C69.1837 76.3701 68.3439 76.6538 67.1297 76.7763C65.6286 76.9268 64.2763 76.7713 63.0982 76.3204C61.9201 75.8687 60.731 75.3508 59.5354 74.7651C58.3408 74.1794 57.0663 73.6474 55.7119 73.1643C54.3564 72.6811 52.7491 72.4685 50.8614 72.5066C50.2111 72.519 49.5607 72.6001 48.9092 72.749C48.2577 72.8971 47.6227 73.0873 47.0008 73.3206C46.3789 73.0882 45.7427 72.8971 45.0912 72.749C44.4409 72.6001 43.7905 72.519 43.139 72.5066C41.8689 72.4809 40.7313 72.5752 39.7174 72.7961C38.7013 73.017 37.7695 73.2975 36.9199 73.6425C36.0691 73.9874 35.2512 74.3614 34.4651 74.7651C33.6789 75.1696 32.8972 75.537 32.1209 75.8687C31.3435 76.2005 30.5245 76.4602 29.665 76.6464C28.8066 76.8325 27.8726 76.8764 26.8719 76.7763C25.6565 76.6538 24.8178 76.3709 24.359 75.939C23.9014 75.508 23.7284 75.0356 23.8346 74.5252C23.9025 74.1926 24.0995 73.889 24.4225 73.6127C24.7028 73.3728 25.1331 73.2685 25.7156 73.2958C25.57 73.3761 25.4758 73.506 25.4758 73.6524C25.4758 73.8964 25.7375 74.0933 26.0594 74.0933C26.3824 74.0933 26.6441 73.8964 26.6441 73.6524C26.6441 73.482 26.516 73.3339 26.3288 73.2602C26.2872 73.2346 26.2116 73.2114 26.0999 73.1916C25.9116 73.1585 25.7485 73.1345 25.6105 73.1188C25.1255 73.0658 24.6722 73.1709 24.2452 73.4348C23.8181 73.6987 23.5576 74.047 23.4656 74.4813C23.3419 75.0679 23.528 75.6023 24.0317 76.0788C24.5353 76.5545 25.4704 76.8697 26.8313 77.0071C28.442 77.1684 29.9048 77.022 31.1902 76.5769C32.4767 76.1326 33.7282 75.6164 34.9403 75.0282C36.1524 74.4408 37.3918 73.9031 38.6608 73.4141C39.9298 72.9244 41.3948 72.7035 43.0788 72.7382C44.3861 72.7647 45.6004 72.9955 46.7413 73.4365C45.9792 73.7723 45.296 74.1678 44.6916 74.6261C44.2394 74.4913 43.762 74.387 43.2584 74.3126C42.7547 74.2389 42.2434 74.1943 41.72 74.1802C40.8134 74.1562 40.0163 74.2257 39.3232 74.3928C38.628 74.5599 38.0498 74.7858 37.5845 75.0745C37.1192 75.3632 36.7535 75.6942 36.4863 76.0689C36.2202 76.4445 36.0691 76.8118 36.0341 77.1725C35.9925 77.611 36.1272 77.9949 36.4414 78.3225C36.7568 78.6492 36.9538 78.8147 37.0261 78.818C37.0984 78.8213 37.1356 78.8097 37.1378 78.7849C37.1422 78.7328 37.002 78.564 36.7184 78.2778C36.4348 77.9915 36.3155 77.6284 36.356 77.1899C36.4283 76.4156 36.9626 75.7719 37.9404 75.2466C38.9192 74.7221 40.2014 74.4896 41.8087 74.5326C42.8215 74.5591 43.6744 74.6774 44.3708 74.8933C43.6908 75.4534 43.1138 76.0888 42.6397 76.8027C42.1678 77.5167 41.8153 78.3489 41.5886 79.3003C41.6226 79.3524 41.6773 79.3541 41.7518 79.3045C42.0879 78.3299 42.5094 77.4927 43.0153 76.792C43.5222 76.0904 44.0774 75.4848 44.685 74.9752C45.0682 75.1084 45.4252 75.2606 45.7591 75.4302C46.092 75.6007 46.3997 75.7893 46.6822 75.9969C45.619 76.8474 45.0562 78.004 45.0299 79.4782C45.0266 79.7115 45.0496 79.963 45.1 80.236C45.1504 80.5074 45.2478 80.7729 45.3923 81.0327C45.5369 81.2925 45.7383 81.5076 45.9967 81.6771C46.2562 81.8459 46.5902 81.9311 47.0008 81.9311C47.4103 81.9311 47.7453 81.8459 48.0037 81.6771C48.2632 81.5076 48.4647 81.2925 48.6092 81.0327C48.7526 80.7729 48.8501 80.5074 48.9005 80.236C48.9519 79.963 48.9749 79.7115 48.9716 79.4782C48.9453 78.004 48.3826 76.8474 47.3194 75.9969C47.6019 75.7893 47.9096 75.6007 48.2424 75.4302C48.5742 75.2606 48.9333 75.1084 49.3165 74.9752C49.9242 75.4848 50.4804 76.0896 50.9863 76.792C51.491 77.4927 51.9137 78.3299 52.2487 79.3045C52.2881 79.3549 52.3429 79.3541 52.4129 79.3003C52.1863 78.3489 51.8337 77.5167 51.3607 76.8027C50.8877 76.0888 50.3096 75.4534 49.6297 74.8933C50.3271 74.6774 51.179 74.5591 52.1929 74.5326C53.8002 74.4896 55.0823 74.7221 56.0601 75.2466C57.0379 75.7719 57.5733 76.4156 57.6455 77.1899C57.6861 77.6284 57.5656 77.9915 57.2831 78.2778C56.9995 78.564 56.8583 78.7328 56.8638 78.7849C56.866 78.8097 56.9032 78.8213 56.9754 78.818C57.0477 78.8147 57.2437 78.6492 57.559 78.3225C57.8744 77.9949 58.009 77.611 57.9674 77.1725C57.9324 76.8118 57.7813 76.4445 57.5141 76.0689C57.2481 75.6942 56.8813 75.3632 56.4159 75.0745C55.9528 74.7858 55.3714 74.5599 54.6783 74.3928C53.9841 74.2257 53.187 74.1562 52.2805 74.1802C51.7582 74.1943 51.2458 74.2389 50.7421 74.3126C50.2384 74.387 49.7611 74.4913 49.3089 74.6261C48.7056 74.1678 48.0223 73.7723 47.2603 73.4365C48.4012 72.9955 49.6154 72.7639 50.9217 72.7382C52.6067 72.7035 54.0706 72.9244 55.3407 73.4141C56.6097 73.9031 57.8492 74.4408 59.0613 75.0282C60.2733 75.6164 61.5248 76.1326 62.8103 76.5769C64.0957 77.022 65.5585 77.1684 67.1702 77.0071C68.5301 76.8697 69.4651 76.5545 69.9688 76.0788C70.4725 75.6023 70.6575 75.0679 70.5349 74.4813Z" fill="#FFCA0D"/>
<path fill-rule="evenodd" clip-rule="evenodd" d="M44.9517 56.9406C45.335 56.8074 45.7007 56.656 46.0499 56.4864C46.4003 56.3168 46.7167 56.1282 46.9992 55.9214C47.2817 56.1282 47.5981 56.3168 47.9485 56.4864C48.2989 56.656 48.6646 56.8074 49.0467 56.9406C48.4084 57.3997 47.7273 57.7836 46.9992 58.0938C46.2722 57.7836 45.5901 57.3997 44.9517 56.9406ZM45.4674 52.2035C45.4652 52.0223 45.4893 51.8221 45.5419 51.6021C45.5944 51.3812 45.6744 51.181 45.7839 50.999C45.8912 50.8178 46.0477 50.6614 46.2503 50.5315C46.4529 50.4017 46.7036 50.3363 46.9992 50.3363C47.2959 50.3363 47.5456 50.4017 47.7481 50.5315C47.9507 50.6614 48.1062 50.8178 48.2157 50.999C48.3241 51.181 48.4051 51.3812 48.4566 51.6021C48.5091 51.8221 48.5343 52.0223 48.5321 52.2035C48.5146 53.4709 47.9923 54.5257 46.9992 55.3787C46.0061 54.4992 45.4839 53.4453 45.4674 52.2035ZM23.4651 57.1656C23.556 57.6 23.8166 57.9482 24.2447 58.2122C24.6717 58.4761 25.125 58.5811 25.609 58.5282C25.748 58.5125 25.9101 58.4885 26.0984 58.4554C26.1553 58.4446 26.2024 58.4339 26.2407 58.4223C26.4948 58.3735 26.682 58.2014 26.682 57.9946C26.682 57.7505 26.4203 57.5536 26.0973 57.5536C25.7743 57.5536 25.5137 57.7505 25.5137 57.9946C25.5137 58.1402 25.6068 58.2684 25.7502 58.3495C25.1491 58.3826 24.7068 58.2792 24.4221 58.0343C24.098 57.758 23.9009 57.4544 23.833 57.1218C23.7268 56.6113 23.8998 56.139 24.3575 55.7079C24.8163 55.2769 25.6561 54.9931 26.8703 54.8707C28.3714 54.7201 29.7237 54.8757 30.9018 55.3265C32.0799 55.7782 33.269 56.2961 34.4646 56.8819C35.6592 57.4676 36.9337 57.9995 38.2881 58.4827C39.6436 58.9658 41.2509 59.1784 43.1386 59.1404C43.7889 59.128 44.4393 59.0469 45.0908 58.898C45.7423 58.7499 46.3773 58.5596 46.9992 58.3263C47.6211 58.5588 48.2573 58.7499 48.9088 58.898C49.5591 59.0469 50.2095 59.128 50.861 59.1404C52.1311 59.166 53.2687 59.0717 54.2826 58.8508C55.2987 58.6299 56.2305 58.3495 57.0801 58.0045C57.9309 57.6595 58.7488 57.2856 59.5349 56.8819C60.3211 56.4773 61.1028 56.11 61.8791 55.7782C62.6565 55.4465 63.4755 55.1867 64.335 55.0006C65.1934 54.8144 66.1274 54.7706 67.1281 54.8707C68.3435 54.9931 69.1822 55.2761 69.641 55.7079C70.0986 56.1389 70.2716 56.6113 70.1654 57.1218C70.0975 57.4543 69.9005 57.758 69.5775 58.0343C69.2972 58.2742 68.8669 58.3784 68.2844 58.3511C68.43 58.2709 68.5242 58.141 68.5242 57.9946C68.5242 57.7505 68.2625 57.5536 67.9406 57.5536C67.6176 57.5536 67.3559 57.7505 67.3559 57.9946C67.3559 58.165 67.484 58.3131 67.6712 58.3867C67.7128 58.4124 67.7884 58.4355 67.9001 58.4554C68.0884 58.4885 68.2515 58.5125 68.3895 58.5282C68.8745 58.5811 69.3278 58.4761 69.7548 58.2121C70.1819 57.9482 70.4424 57.6 70.5344 57.1656C70.6581 56.5791 70.472 56.0446 69.9683 55.5681C69.4647 55.0924 68.5296 54.7772 67.1687 54.6399C65.558 54.4786 64.0952 54.625 62.8098 55.0701C61.5233 55.5143 60.2718 56.0306 59.0597 56.6188C57.8476 57.2062 56.6082 57.7439 55.3392 58.2328C54.0702 58.7226 52.6052 58.9435 50.9212 58.9087C49.6139 58.8823 48.3996 58.6514 47.2587 58.2105C48.0208 57.8746 48.704 57.4792 49.3084 57.0208C49.7606 57.1557 50.238 57.2599 50.7416 57.3344C51.2453 57.408 51.7566 57.4527 52.28 57.4668C53.1866 57.4907 53.9837 57.4213 54.6768 57.2541C55.372 57.087 55.9502 56.8612 56.4155 56.5725C56.8808 56.2837 57.2465 55.9528 57.5137 55.578C57.7798 55.2024 57.9309 54.8351 57.9659 54.4744C58.0075 54.036 57.8728 53.6521 57.5586 53.3245C57.2432 52.9977 57.0462 52.8322 56.9739 52.8289C56.9016 52.8256 56.8644 52.8372 56.8622 52.862C56.8578 52.9142 56.998 53.0829 57.2816 53.3692C57.5652 53.6554 57.6845 54.0186 57.644 54.4571C57.5717 55.2314 57.0374 55.875 56.0596 56.4004C55.0808 56.9249 53.7986 57.1573 52.1913 57.1143C51.1785 57.0879 50.3256 56.9696 49.6292 56.7536C50.3092 56.1935 50.8862 55.5582 51.3603 54.8442C51.8322 54.1303 52.1847 53.298 52.4114 52.3466C52.3774 52.2945 52.3227 52.2929 52.2482 52.3425C51.9121 53.317 51.4906 54.1543 50.9847 54.855C50.4778 55.5565 49.9226 56.1621 49.315 56.6717C48.9318 56.5385 48.5748 56.3863 48.2409 56.2167C47.908 56.0463 47.6003 55.8577 47.3178 55.65C48.381 54.7996 48.9438 53.643 48.9701 52.1688C48.9734 51.9355 48.9504 51.684 48.9 51.411C48.8496 51.1396 48.7522 50.874 48.6077 50.6143C48.4631 50.3545 48.2617 50.1394 48.0033 49.9698C47.7438 49.801 47.4098 49.7158 46.9992 49.7158C46.5897 49.7158 46.2547 49.801 45.9963 49.9698C45.7368 50.1394 45.5353 50.3545 45.3908 50.6143C45.2474 50.874 45.1499 51.1396 45.0995 51.411C45.0481 51.684 45.0251 51.9355 45.0284 52.1688C45.0547 53.643 45.6174 54.7996 46.6806 55.65C46.3981 55.8577 46.0904 56.0463 45.7576 56.2167C45.4258 56.3863 45.0667 56.5385 44.6835 56.6717C44.0758 56.1621 43.5196 55.5574 43.0137 54.855C42.509 54.1543 42.0863 53.317 41.7513 52.3425C41.7119 52.292 41.6571 52.2929 41.5871 52.3466C41.8137 53.298 42.1663 54.1303 42.6393 54.8442C43.1123 55.5582 43.6904 56.1936 44.3703 56.7536C43.6729 56.9696 42.821 57.0879 41.8071 57.1143C40.1998 57.1574 38.9177 56.9249 37.9399 56.4004C36.9621 55.875 36.4267 55.2314 36.3545 54.4571C36.3139 54.0186 36.4344 53.6554 36.7169 53.3692C37.0005 53.0829 37.1417 52.9142 37.1362 52.862C37.134 52.8372 37.0968 52.8256 37.0246 52.8289C36.9523 52.8322 36.7563 52.9977 36.441 53.3245C36.1256 53.6521 35.991 54.036 36.0326 54.4744C36.0676 54.8351 36.2187 55.2025 36.4859 55.578C36.7519 55.9528 37.1187 56.2837 37.5841 56.5725C38.0472 56.8612 38.6286 57.087 39.3217 57.2541C40.0159 57.4213 40.813 57.4908 41.7195 57.4668C42.2418 57.4527 42.7542 57.408 43.2579 57.3344C43.7616 57.2599 44.2389 57.1557 44.6911 57.0208C45.2944 57.4792 45.9777 57.8746 46.7397 58.2105C45.5988 58.6514 44.3846 58.8831 43.0783 58.9087C41.3933 58.9435 39.9294 58.7226 38.6593 58.2328C37.3903 57.7439 36.1508 57.2062 34.9387 56.6188C33.7267 56.0306 32.4752 55.5143 31.1897 55.0701C29.9043 54.625 28.4415 54.4786 26.8298 54.6399C25.4699 54.7772 24.5349 55.0924 24.0312 55.5681C23.5275 56.0446 23.3425 56.5791 23.4651 57.1656Z" fill="#FFCA0D"/>
<path fill-rule="evenodd" clip-rule="evenodd" d="M49.0483 35.4194C48.665 35.5526 48.2993 35.704 47.9501 35.8736C47.5997 36.0432 47.2833 36.2318 47.0008 36.4386C46.7183 36.2318 46.4019 36.0432 46.0515 35.8736C45.7011 35.704 45.3354 35.5526 44.9533 35.4194C45.5916 34.9603 46.2727 34.5764 47.0008 34.2662C47.7278 34.5764 48.4099 34.9603 49.0483 35.4194ZM48.5326 40.1565C48.5347 40.3377 48.5107 40.5379 48.4581 40.7579C48.4056 40.9788 48.3256 41.179 48.2161 41.361C48.1088 41.5422 47.9523 41.6986 47.7497 41.8285C47.5471 41.9583 47.2964 42.0237 47.0008 42.0237C46.7041 42.0237 46.4544 41.9583 46.2519 41.8285C46.0493 41.6986 45.8938 41.5422 45.7843 41.361C45.6759 41.179 45.5949 40.9788 45.5434 40.7579C45.4909 40.5379 45.4657 40.3377 45.4679 40.1565C45.4854 38.8891 46.0077 37.8343 47.0008 36.9813C47.9939 37.8608 48.5161 38.9147 48.5326 40.1565ZM70.5349 35.1944C70.444 34.76 70.1834 34.4118 69.7553 34.1479C69.3283 33.8839 68.875 33.7789 68.391 33.8318C68.252 33.8475 68.0899 33.8715 67.9016 33.9046C67.8447 33.9154 67.7976 33.9261 67.7593 33.9377C67.5052 33.9865 67.318 34.1586 67.318 34.3654C67.318 34.6095 67.5797 34.8064 67.9027 34.8064C68.2257 34.8064 68.4863 34.6095 68.4863 34.3654C68.4863 34.2198 68.3932 34.0916 68.2498 34.0105C68.8509 33.9774 69.2932 34.0808 69.5779 34.3257C69.902 34.602 70.0991 34.9057 70.167 35.2382C70.2732 35.7487 70.1002 36.2211 69.6425 36.6521C69.1837 37.0831 68.3439 37.3669 67.1297 37.4893C65.6286 37.6399 64.2763 37.4843 63.0982 37.0335C61.9201 36.5818 60.731 36.0639 59.5354 35.4781C58.3408 34.8924 57.0663 34.3605 55.7119 33.8773C54.3564 33.3942 52.7491 33.1816 50.8614 33.2196C50.2111 33.232 49.5607 33.3131 48.9092 33.462C48.2577 33.6101 47.6227 33.8004 47.0008 34.0337C46.3789 33.8012 45.7427 33.6101 45.0912 33.462C44.4409 33.3131 43.7905 33.232 43.139 33.2196C41.8689 33.194 40.7313 33.2883 39.7174 33.5092C38.7013 33.7301 37.7695 34.0105 36.9199 34.3555C36.0691 34.7005 35.2512 35.0744 34.4651 35.4781C33.6789 35.8827 32.8972 36.25 32.1209 36.5818C31.3435 36.9135 30.5245 37.1733 29.665 37.3594C28.8066 37.5456 27.8726 37.5894 26.8719 37.4893C25.6565 37.3669 24.8178 37.0839 24.359 36.6521C23.9014 36.2211 23.7284 35.7487 23.8346 35.2382C23.9025 34.9057 24.0995 34.602 24.4225 34.3257C24.7028 34.0858 25.1331 33.9816 25.7156 34.0089C25.57 34.0891 25.4758 34.219 25.4758 34.3654C25.4758 34.6095 25.7375 34.8064 26.0594 34.8064C26.3824 34.8064 26.6441 34.6095 26.6441 34.3654C26.6441 34.195 26.516 34.0469 26.3288 33.9733C26.2872 33.9476 26.2116 33.9245 26.0999 33.9046C25.9116 33.8715 25.7485 33.8475 25.6105 33.8318C25.1255 33.7789 24.6722 33.8839 24.2452 34.1479C23.8181 34.4118 23.5576 34.76 23.4656 35.1944C23.3419 35.7809 23.528 36.3154 24.0317 36.7919C24.5353 37.2676 25.4704 37.5828 26.8313 37.7201C28.442 37.8814 29.9048 37.735 31.1902 37.2899C32.4767 36.8457 33.7282 36.3294 34.9403 35.7412C36.1524 35.1538 37.3918 34.6161 38.6608 34.1272C39.9298 33.6374 41.3948 33.4165 43.0788 33.4513C44.3861 33.4777 45.6004 33.7086 46.7413 34.1495C45.9792 34.4854 45.296 34.8808 44.6916 35.3392C44.2394 35.2043 43.762 35.1001 43.2584 35.0256C42.7547 34.952 42.2434 34.9073 41.72 34.8932C40.8134 34.8693 40.0163 34.9387 39.3232 35.1059C38.628 35.273 38.0498 35.4988 37.5845 35.7875C37.1192 36.0763 36.7535 36.4072 36.4863 36.782C36.2202 37.1576 36.0691 37.5249 36.0341 37.8856C35.9925 38.324 36.1272 38.7079 36.4414 39.0355C36.7568 39.3623 36.9538 39.5278 37.0261 39.5311C37.0984 39.5344 37.1356 39.5228 37.1378 39.498C37.1422 39.4458 37.002 39.2771 36.7184 38.9908C36.4348 38.7046 36.3155 38.3414 36.356 37.9029C36.4283 37.1286 36.9626 36.485 37.9404 35.9596C38.9192 35.4351 40.2014 35.2027 41.8087 35.2457C42.8215 35.2721 43.6744 35.3904 44.3708 35.6064C43.6908 36.1665 43.1138 36.8018 42.6397 37.5158C42.1678 38.2297 41.8153 39.062 41.5886 40.0134C41.6226 40.0655 41.6773 40.0671 41.7518 40.0175C42.0879 39.043 42.5094 38.2057 43.0153 37.505C43.5222 36.8035 44.0774 36.1979 44.685 35.6883C45.0682 35.8215 45.4252 35.9737 45.7591 36.1433C46.092 36.3137 46.3997 36.5023 46.6822 36.71C45.619 37.5604 45.0562 38.717 45.0299 40.1912C45.0266 40.4245 45.0496 40.676 45.1 40.949C45.1504 41.2204 45.2478 41.486 45.3923 41.7457C45.5369 42.0055 45.7383 42.2206 45.9967 42.3902C46.2562 42.559 46.5902 42.6442 47.0008 42.6442C47.4103 42.6442 47.7453 42.559 48.0037 42.3902C48.2632 42.2206 48.4647 42.0055 48.6092 41.7457C48.7526 41.486 48.8501 41.2204 48.9005 40.949C48.9519 40.676 48.9749 40.4245 48.9716 40.1912C48.9453 38.717 48.3826 37.5604 47.3194 36.71C47.6019 36.5023 47.9096 36.3137 48.2424 36.1433C48.5742 35.9737 48.9333 35.8215 49.3165 35.6883C49.9242 36.1979 50.4804 36.8026 50.9863 37.505C51.491 38.2057 51.9137 39.043 52.2487 40.0175C52.2881 40.068 52.3429 40.0671 52.4129 40.0134C52.1863 39.062 51.8337 38.2297 51.3607 37.5158C50.8877 36.8018 50.3096 36.1665 49.6297 35.6064C50.3271 35.3904 51.179 35.2721 52.1929 35.2457C53.8002 35.2027 55.0823 35.4351 56.0601 35.9596C57.0379 36.485 57.5733 37.1286 57.6455 37.9029C57.6861 38.3414 57.5656 38.7046 57.2831 38.9908C56.9995 39.2771 56.8583 39.4458 56.8638 39.498C56.866 39.5228 56.9032 39.5344 56.9754 39.5311C57.0477 39.5278 57.2437 39.3623 57.559 39.0355C57.8744 38.7079 58.009 38.324 57.9674 37.8856C57.9324 37.5249 57.7813 37.1576 57.5141 36.782C57.2481 36.4072 56.8813 36.0763 56.4159 35.7875C55.9528 35.4988 55.3714 35.273 54.6783 35.1059C53.9841 34.9387 53.187 34.8693 52.2805 34.8932C51.7582 34.9073 51.2458 34.952 50.7421 35.0256C50.2384 35.1001 49.7611 35.2043 49.3089 35.3392C48.7056 34.8808 48.0223 34.4854 47.2603 34.1495C48.4012 33.7086 49.6154 33.4769 50.9217 33.4513C52.6067 33.4165 54.0706 33.6374 55.3407 34.1272C56.6097 34.6161 57.8492 35.1538 59.0613 35.7412C60.2733 36.3294 61.5248 36.8457 62.8103 37.2899C64.0957 37.735 65.5585 37.8814 67.1702 37.7201C68.5301 37.5828 69.4651 37.2676 69.9688 36.7919C70.4725 36.3154 70.6575 35.7809 70.5349 35.1944Z" fill="#FFCA0D"/>
<path fill-rule="evenodd" clip-rule="evenodd" d="M44.9517 17.6536C45.335 17.5204 45.7007 17.369 46.0499 17.1995C46.4003 17.0299 46.7167 16.8412 46.9992 16.6344C47.2817 16.8412 47.5981 17.0299 47.9485 17.1995C48.2989 17.369 48.6646 17.5204 49.0467 17.6536C48.4084 18.1128 47.7273 18.4967 46.9992 18.8069C46.2722 18.4967 45.5901 18.1128 44.9517 17.6536ZM45.4674 12.9165C45.4652 12.7354 45.4893 12.5352 45.5419 12.3151C45.5944 12.0942 45.6744 11.894 45.7839 11.712C45.8912 11.5308 46.0477 11.3745 46.2503 11.2446C46.4529 11.1147 46.7036 11.0493 46.9992 11.0493C47.2959 11.0493 47.5456 11.1147 47.7481 11.2446C47.9507 11.3745 48.1062 11.5308 48.2157 11.712C48.3241 11.894 48.4051 12.0942 48.4566 12.3151C48.5091 12.5352 48.5343 12.7354 48.5321 12.9165C48.5146 14.184 47.9923 15.2388 46.9992 16.0917C46.0061 15.2123 45.4839 14.1583 45.4674 12.9165ZM23.4651 17.8787C23.556 18.313 23.8166 18.6613 24.2447 18.9252C24.6717 19.1891 25.125 19.2942 25.609 19.2412C25.748 19.2255 25.9101 19.2015 26.0984 19.1684C26.1553 19.1577 26.2024 19.1469 26.2407 19.1353C26.4948 19.0865 26.682 18.9144 26.682 18.7076C26.682 18.4636 26.4203 18.2667 26.0973 18.2667C25.7743 18.2667 25.5137 18.4636 25.5137 18.7076C25.5137 18.8532 25.6068 18.9814 25.7502 19.0625C25.1491 19.0956 24.7068 18.9922 24.4221 18.7473C24.098 18.471 23.9009 18.1674 23.833 17.8348C23.7268 17.3244 23.8998 16.852 24.3575 16.421C24.8163 15.9899 25.6561 15.7062 26.8703 15.5837C28.3714 15.4332 29.7237 15.5887 30.9018 16.0396C32.0799 16.4913 33.269 17.0092 34.4646 17.5949C35.6592 18.1806 36.9337 18.7126 38.2881 19.1957C39.6436 19.6789 41.2509 19.8915 43.1386 19.8534C43.7889 19.841 44.4393 19.7599 45.0908 19.611C45.7423 19.4629 46.3773 19.2727 46.9992 19.0394C47.6211 19.2718 48.2573 19.4629 48.9088 19.611C49.5591 19.7599 50.2095 19.841 50.861 19.8534C52.1311 19.8791 53.2687 19.7847 54.2826 19.5639C55.2987 19.343 56.2305 19.0625 57.0801 18.7175C57.9309 18.3726 58.7488 17.9986 59.5349 17.5949C60.3211 17.1904 61.1028 16.823 61.8791 16.4913C62.6565 16.1595 63.4755 15.8998 64.335 15.7136C65.1934 15.5275 66.1274 15.4836 67.1281 15.5837C68.3435 15.7062 69.1822 15.9891 69.641 16.421C70.0986 16.852 70.2716 17.3244 70.1654 17.8348C70.0975 18.1674 69.9005 18.471 69.5775 18.7473C69.2972 18.9872 68.8669 19.0915 68.2844 19.0642C68.43 18.9839 68.5242 18.854 68.5242 18.7076C68.5242 18.4636 68.2625 18.2667 67.9406 18.2667C67.6176 18.2667 67.3559 18.4636 67.3559 18.7076C67.3559 18.878 67.484 19.0261 67.6712 19.0997C67.7128 19.1254 67.7884 19.1486 67.9001 19.1684C68.0884 19.2015 68.2515 19.2255 68.3895 19.2412C68.8745 19.2942 69.3278 19.1891 69.7548 18.9252C70.1819 18.6613 70.4424 18.313 70.5344 17.8787C70.6581 17.2921 70.472 16.7577 69.9683 16.2812C69.4647 15.8055 68.5296 15.4903 67.1687 15.3529C65.558 15.1916 64.0952 15.338 62.8098 15.7831C61.5233 16.2274 60.2718 16.7436 59.0597 17.3318C57.8476 17.9192 56.6082 18.4569 55.3392 18.9459C54.0702 19.4356 52.6052 19.6565 50.9212 19.6218C49.6139 19.5953 48.3996 19.3645 47.2587 18.9235C48.0208 18.5877 48.704 18.1922 49.3084 17.7339C49.7606 17.8687 50.238 17.973 50.7416 18.0474C51.2453 18.1211 51.7566 18.1657 52.28 18.1798C53.1866 18.2038 53.9837 18.1343 54.6768 17.9672C55.372 17.8001 55.9502 17.5742 56.4155 17.2855C56.8808 16.9968 57.2465 16.6658 57.5137 16.2911C57.7798 15.9155 57.9309 15.5482 57.9659 15.1875C58.0075 14.749 57.8728 14.3651 57.5586 14.0375C57.2432 13.7107 57.0462 13.5453 56.9739 13.542C56.9016 13.5387 56.8644 13.5503 56.8622 13.5751C56.8578 13.6272 56.998 13.796 57.2816 14.0822C57.5652 14.3684 57.6845 14.7316 57.644 15.1701C57.5717 15.9444 57.0374 16.5881 56.0596 17.1134C55.0808 17.6379 53.7986 17.8704 52.1913 17.8274C51.1785 17.8009 50.3256 17.6826 49.6292 17.4667C50.3092 16.9066 50.8862 16.2712 51.3603 15.5573C51.8322 14.8433 52.1847 14.0111 52.4114 13.0597C52.3774 13.0075 52.3227 13.0059 52.2482 13.0555C51.9121 14.0301 51.4906 14.8673 50.9847 15.568C50.4778 16.2696 49.9226 16.8752 49.315 17.3848C48.9318 17.2516 48.5748 17.0993 48.2409 16.9298C47.908 16.7593 47.6003 16.5707 47.3178 16.3631C48.381 15.5126 48.9438 14.356 48.9701 12.8818C48.9734 12.6485 48.9504 12.397 48.9 12.124C48.8496 11.8526 48.7522 11.5871 48.6077 11.3273C48.4631 11.0675 48.2617 10.8524 48.0033 10.6828C47.7438 10.5141 47.4098 10.4289 46.9992 10.4289C46.5897 10.4289 46.2547 10.5141 45.9963 10.6828C45.7368 10.8524 45.5353 11.0675 45.3908 11.3273C45.2474 11.5871 45.1499 11.8526 45.0995 12.124C45.0481 12.397 45.0251 12.6485 45.0284 12.8818C45.0547 14.356 45.6174 15.5126 46.6806 16.3631C46.3981 16.5707 46.0904 16.7593 45.7576 16.9298C45.4258 17.0993 45.0667 17.2516 44.6835 17.3848C44.0758 16.8752 43.5196 16.2704 43.0137 15.568C42.509 14.8673 42.0863 14.0301 41.7513 13.0555C41.7119 13.0051 41.6571 13.0059 41.5871 13.0597C41.8137 14.0111 42.1663 14.8433 42.6393 15.5573C43.1123 16.2712 43.6904 16.9066 44.3703 17.4667C43.6729 17.6826 42.821 17.8009 41.8071 17.8274C40.1998 17.8704 38.9177 17.6379 37.9399 17.1134C36.9621 16.5881 36.4267 15.9444 36.3545 15.1701C36.3139 14.7316 36.4344 14.3684 36.7169 14.0822C37.0005 13.796 37.1417 13.6272 37.1362 13.5751C37.134 13.5503 37.0968 13.5387 37.0246 13.542C36.9523 13.5453 36.7563 13.7107 36.441 14.0375C36.1256 14.3651 35.991 14.749 36.0326 15.1875C36.0676 15.5482 36.2187 15.9155 36.4859 16.2911C36.7519 16.6658 37.1187 16.9968 37.5841 17.2855C38.0472 17.5742 38.6286 17.8001 39.3217 17.9672C40.0159 18.1343 40.813 18.2038 41.7195 18.1798C42.2418 18.1657 42.7542 18.1211 43.2579 18.0474C43.7616 17.973 44.2389 17.8687 44.6911 17.7339C45.2944 18.1922 45.9777 18.5877 46.7397 18.9235C45.5988 19.3645 44.3846 19.5961 43.0783 19.6218C41.3933 19.6565 39.9294 19.4356 38.6593 18.9459C37.3903 18.4569 36.1508 17.9192 34.9387 17.3318C33.7267 16.7436 32.4752 16.2274 31.1897 15.7831C29.9043 15.338 28.4415 15.1916 26.8298 15.3529C25.4699 15.4903 24.5349 15.8055 24.0312 16.2812C23.5275 16.7577 23.3425 17.2921 23.4651 17.8787Z" fill="#FFCA0D"/>
</g>
</g>
<defs>
<filter id="filter0_d" x="0.5" y="1" width="80" height="93.36" filterUnits="userSpaceOnUse" color-interpolation-filters="sRGB">
<feFlood flood-opacity="0" result="BackgroundImageFix"/>
<feColorMatrix in="SourceAlpha" type="matrix" values="0 0 0 0 0 0 0 0 0 0 0 0 0 0 0 0 0 0 127 0" result="hardAlpha"/>
<feOffset dx="-0.5" dy="2"/>
<feGaussianBlur stdDeviation="0.5"/>
<feComposite in2="hardAlpha" operator="out"/>
<feColorMatrix type="matrix" values="0 0 0 0 0 0 0 0 0 0 0 0 0 0 0 0 0 0 0.25 0"/>
<feBlend mode="normal" in2="BackgroundImageFix" result="effect1_dropShadow"/>
<feBlend mode="normal" in="SourceGraphic" in2="effect1_dropShadow" result="shape"/>
</filter>
<filter id="filter1_d" x="1" y="1" width="68" height="93.36" filterUnits="userSpaceOnUse" color-interpolation-filters="sRGB">
<feFlood flood-opacity="0" result="BackgroundImageFix"/>
<feColorMatrix in="SourceAlpha" type="matrix" values="0 0 0 0 0 0 0 0 0 0 0 0 0 0 0 0 0 0 127 0" result="hardAlpha"/>
<feOffset dy="2"/>
<feGaussianBlur stdDeviation="0.5"/>
<feComposite in2="hardAlpha" operator="out"/>
<feColorMatrix type="matrix" values="0 0 0 0 0 0 0 0 0 0 0 0 0 0 0 0 0 0 0.25 0"/>
<feBlend mode="normal" in2="BackgroundImageFix" result="effect1_dropShadow"/>
<feBlend mode="normal" in="SourceGraphic" in2="effect1_dropShadow" result="shape"/>
</filter>
<filter id="filter2_d" x="4.5" y="0" width="68" height="92.36" filterUnits="userSpaceOnUse" color-interpolation-filters="sRGB">
<feFlood flood-opacity="0" result="BackgroundImageFix"/>
<feColorMatrix in="SourceAlpha" type="matrix" values="0 0 0 0 0 0 0 0 0 0 0 0 0 0 0 0 0 0 127 0" result="hardAlpha"/>
<feOffset dx="-0.5"/>
<feGaussianBlur stdDeviation="0.5"/>
<feComposite in2="hardAlpha" operator="out"/>
<feColorMatrix type="matrix" values="0 0 0 0 0 0 0 0 0 0 0 0 0 0 0 0 0 0 0.25 0"/>
<feBlend mode="normal" in2="BackgroundImageFix" result="effect1_dropShadow"/>
<feBlend mode="normal" in="SourceGraphic" in2="effect1_dropShadow" result="shape"/>
</filter>
<filter id="filter3_d" x="8.5" y="0" width="68" height="92.36" filterUnits="userSpaceOnUse" color-interpolation-filters="sRGB">
<feFlood flood-opacity="0" result="BackgroundImageFix"/>
<feColorMatrix in="SourceAlpha" type="matrix" values="0 0 0 0 0 0 0 0 0 0 0 0 0 0 0 0 0 0 127 0" result="hardAlpha"/>
<feOffset dx="-0.5"/>
<feGaussianBlur stdDeviation="0.5"/>
<feComposite in2="hardAlpha" operator="out"/>
<feColorMatrix type="matrix" values="0 0 0 0 0 0 0 0 0 0 0 0 0 0 0 0 0 0 0.25 0"/>
<feBlend mode="normal" in2="BackgroundImageFix" result="effect1_dropShadow"/>
<feBlend mode="normal" in="SourceGraphic" in2="effect1_dropShadow" result="shape"/>
</filter>
<filter id="filter4_d" x="12.5" y="1" width="68" height="93.36" filterUnits="userSpaceOnUse" color-interpolation-filters="sRGB">
<feFlood flood-opacity="0" result="BackgroundImageFix"/>
<feColorMatrix in="SourceAlpha" type="matrix" values="0 0 0 0 0 0 0 0 0 0 0 0 0 0 0 0 0 0 127 0" result="hardAlpha"/>
<feOffset dx="-0.5" dy="2"/>
<feGaussianBlur stdDeviation="0.5"/>
<feComposite in2="hardAlpha" operator="out"/>
<feColorMatrix type="matrix" values="0 0 0 0 0 0 0 0 0 0 0 0 0 0 0 0 0 0 0.25 0"/>
<feBlend mode="normal" in2="BackgroundImageFix" result="effect1_dropShadow"/>
<feBlend mode="normal" in="SourceGraphic" in2="effect1_dropShadow" result="shape"/>
</filter>
</defs>
</svg>
