<svg width="33" height="24" viewBox="0 0 33 24" fill="none" xmlns="http://www.w3.org/2000/svg">
<path d="M30.4524 1.90735e-06L1.60092 1.90735e-06C1.30882 0.000919342 1.02249 0.0814838 0.772766 0.233023C0.523041 0.384563 0.319372 0.601339 0.183685 0.86002C0.0479965 1.1187 -0.0145721 1.40949 0.00270844 1.70109C0.0199928 1.99269 0.116476 2.27405 0.281773 2.51489L14.7075 23.352C15.3054 24.216 16.7447 24.216 17.3442 23.352L31.7699 2.51489C31.9369 2.27455 32.0348 1.99305 32.053 1.70096C32.0713 1.40888 32.0091 1.11739 31.8733 0.858162C31.7375 0.598932 31.5332 0.381878 31.2827 0.230583C31.0322 0.0792904 30.745 -0.000457764 30.4524 1.90735e-06Z" fill="white"/>
</svg>
