<svg width="33" height="24" viewBox="0 0 33 24" fill="none" xmlns="http://www.w3.org/2000/svg">
<path d="M1.60378 24H30.4552C30.7473 23.9991 31.0337 23.9185 31.2834 23.767C31.5331 23.6154 31.7368 23.3987 31.8725 23.14C32.0082 22.8813 32.0707 22.5905 32.0534 22.2989C32.0362 22.0073 31.9397 21.726 31.7744 21.4851L17.3487 0.647955C16.7508 -0.215985 15.3114 -0.215985 14.712 0.647955L0.286228 21.4851C0.11925 21.7255 0.0213307 22.007 0.00310782 22.299C-0.015115 22.5911 0.0470561 22.8826 0.182866 23.1418C0.318677 23.4011 0.522932 23.6181 0.77344 23.7694C1.02395 23.9207 1.31113 24.0005 1.60378 24Z" fill="white"/>
</svg>
